<svg id="Layer_1" data-name="Layer 1" xmlns="http://www.w3.org/2000/svg" viewBox="0 0 750 750"><defs><style>.cls-1{fill:#0055ec;}.cls-2{fill:#fff;}.cls-2,.cls-5{stroke:#0055ec;stroke-miterlimit:10;}.cls-3,.cls-5{fill:none;}.cls-3{stroke:#707070;}.cls-4{fill:#888;}.cls-5{stroke-width:5.67px;}</style></defs><g id="Group_131" data-name="Group 131"><path id="Path_168" data-name="Path 168" class="cls-1" d="M160.94,639.73l215.49,14.78,121.28-25.1L688.15,522"/><g id="Group_130" data-name="Group 130"><path id="Path_169" data-name="Path 169" class="cls-2" d="M252.29,143.88,376.43,68.93V654.51l-89-42.16S271,343,252.29,143.88Z"/><path id="Path_170" data-name="Path 170" class="cls-2" d="M497.7,110.92l-121.27-42V654.51l121.27-25.1Z"/><g id="Group_129" data-name="Group 129"><path id="Path_171" data-name="Path 171" class="cls-3" d="M376.43,137.75,257.06,196.6l-1.9-21.52,121.27-68.15Z"/><path id="Path_172" data-name="Path 172" class="cls-4" d="M497.7,185.66,376.43,137.75V106.92L497.7,154.83Z"/><path id="Path_173" data-name="Path 173" class="cls-4" d="M497.7,240.64,376.43,203.41V170.24L497.7,212Z"/><path id="Path_174" data-name="Path 174" class="cls-4" d="M497.7,290.86,376.43,258.6V230.49L497.7,263.23Z"/><path id="Path_175" data-name="Path 175" class="cls-4" d="M497.7,337.66,376.43,324V290.86L497.7,312.38Z"/><path id="Path_176" data-name="Path 176" class="cls-4" d="M497.7,390.15l-121.27-6.56V353l121.27,11.9Z"/><path id="Path_177" data-name="Path 177" class="cls-4" d="M497.7,443.21l-121.27,2.68V415.26l121.27,2.67Z"/><path id="Path_178" data-name="Path 178" class="cls-4" d="M497.7,497.08l-121.27,9.16V475.62l121.27-3.83Z"/><path id="Path_179" data-name="Path 179" class="cls-4" d="M497.7,547.28,376.43,562.72V532.09L497.7,522Z"/><path id="Path_180" data-name="Path 180" class="cls-4" d="M497.7,593.4,376.43,613.76V583.13l121.27-15Z"/><path id="Path_181" data-name="Path 181" class="cls-3" d="M376.43,203.41,261.49,248.82l-2.26-27.06,117.2-51.51Z"/><path id="Path_182" data-name="Path 182" class="cls-3" d="M376.43,258.6,265.14,293.77l-2.25-25.21,113.53-38.07Z"/><path id="Path_183" data-name="Path 183" class="cls-3" d="M376.43,324,268.79,341.42,267,317.5l109.47-26.64Z"/><path id="Path_184" data-name="Path 184" class="cls-3" d="M376.43,383.59l-103.92,7.92-1.83-24.89L376.43,353Z"/><path id="Path_185" data-name="Path 185" class="cls-3" d="M376.43,445.89l-100.06-.36-1.9-26.88,102-3.4Z"/><path id="Path_186" data-name="Path 186" class="cls-3" d="M376.43,506.24l-96.68-11.79-1.83-22.66,98.5,3.82Z"/><path id="Path_187" data-name="Path 187" class="cls-3" d="M376.43,562.72l-93.17-15.84L281.61,522l94.83,10.09Z"/><path id="Path_188" data-name="Path 188" class="cls-3" d="M376.43,613.76l-90.62-27.14-1.53-23.91,92.15,20.41Z"/></g></g><circle id="Ellipse_7" data-name="Ellipse 7" class="cls-5" cx="375" cy="361.72" r="351.71"/></g></svg>