<svg id="Layer_1" data-name="Layer 1" xmlns="http://www.w3.org/2000/svg" xmlns:xlink="http://www.w3.org/1999/xlink" viewBox="0 0 750 750"><defs><style>.cls-1,.cls-11,.cls-6{fill:none;}.cls-2,.cls-4{fill:#888;}.cls-3{fill:#4c4c4c;}.cls-4{stroke:#4c4c4c;stroke-width:0.57px;}.cls-4,.cls-6,.cls-7{stroke-linejoin:round;}.cls-5{clip-path:url(#clip-path);}.cls-6,.cls-7,.cls-8{stroke:#848484;}.cls-6,.cls-7{stroke-linecap:round;stroke-width:1px;}.cls-7,.cls-8{fill:#5b5b5b;}.cls-11,.cls-8{stroke-miterlimit:10;}.cls-9{fill:#ffd900;}.cls-10{fill:#85b7ff;}.cls-11{stroke:#0055ec;stroke-width:5.67px;}</style><clipPath id="clip-path"><circle class="cls-1" cx="376.44" cy="381.94" r="349.04"/></clipPath></defs><g id="Group_324" data-name="Group 324"><g id="Path_528" data-name="Path 528"><path class="cls-2" d="M194.33,604.82l-13.08-6.57,44.69-14.46L239,590.37Z"/><path class="cls-3" d="M225.88,584.61,183.24,598.4,194.39,604,237,590.22l-11.15-5.61M226,583l15,7.54-46.74,15.12-15-7.54Z"/></g><path id="Path_529" data-name="Path 529" class="cls-4" d="M241,600.08l-46.85,15V605.5l46.85-15Z"/><g id="Group_308" data-name="Group 308"><path id="Path_530" data-name="Path 530" class="cls-4" d="M213.28,636,182,618.87v-8.8l31.26,17.09Z"/><path id="Path_531" data-name="Path 531" class="cls-4" d="M213.28,627.15,182,610.05,193.9,606l31.26,17.09Z"/></g><path id="Path_532" data-name="Path 532" class="cls-4" d="M213.26,636.34l11.61-4.86.29-8.38-11.89,4.06Z"/><path id="Path_533" data-name="Path 533" class="cls-4" d="M194.26,605.64l-12.44,4.49-15-8.28,12.44-3.76"/><g id="Group_323" data-name="Group 323"><g class="cls-5"><g id="Group_322" data-name="Group 322"><g id="Group_321" data-name="Group 321"><g id="Group_309" data-name="Group 309"><line id="Line_38" data-name="Line 38" class="cls-6" x1="226.88" y1="582.94" x2="241.88" y2="590.48"/></g><path id="Path_534" data-name="Path 534" class="cls-4" d="M585.37,602.14l-14.85-7.49L569.81,60l14.84,6.91Z"/><g id="Group_310" data-name="Group 310"><g id="Path_535" data-name="Path 535"><path class="cls-2" d="M557.53,606.11l-29.75-16.27v-7.08L557.53,599Z"/><path class="cls-3" d="M556.78,604.84v-5.36L528.54,584v5.37l28.24,15.44m1.51,2.55L527,590.29v-8.81l31.26,17.1Z"/></g><g id="Path_536" data-name="Path 536"><path class="cls-2" d="M558.36,597.76l-29.29-16,9.78-2.54,29.39,15.29Z"/><path class="cls-3" d="M558.44,596.94l7.86-2.6L538.76,580l-7.65,2,27.33,15m-.15,1.64L527,581.48l11.91-3.08,31.23,16.25Z"/></g></g><path id="Path_537" data-name="Path 537" class="cls-4" d="M572.76,606.57l-15-8,12.45-3.93,15.2,7.49Z"/><g id="Group_311" data-name="Group 311"><path id="Path_538" data-name="Path 538" class="cls-4" d="M408,674.6l-34.28,10.87-15-7.54L393,667.06Z"/><path id="Path_539" data-name="Path 539" class="cls-4" d="M408,684.17,373.75,695v-9.56L408,674.62Z"/><path id="Path_540" data-name="Path 540" class="cls-7" d="M358.75,687.6l15,7.44v-9.56l-15-7.44Z"/></g><g id="Group_312" data-name="Group 312"><path id="Path_541" data-name="Path 541" class="cls-4" d="M346.86,690.68l-31.26-17.1v-8.8l31.26,17.1Z"/><path id="Path_542" data-name="Path 542" class="cls-4" d="M346.86,681.87,315.6,664.78l11.92-3.08,31.26,17.09Z"/></g><g id="Group_313" data-name="Group 313"><path id="Path_543" data-name="Path 543" class="cls-4" d="M392.59,715.76l-31.26-17.09v-8.8L392.59,707Z"/><path id="Path_544" data-name="Path 544" class="cls-4" d="M373.5,685.35l31.95,16.86-12.86,4.42-31.26-17.09"/><path id="Path_545" data-name="Path 545" class="cls-4" d="M405.45,702.45v8.89l-12.86,4.42v-9.13"/></g><g id="Group_314" data-name="Group 314"><path id="Path_546" data-name="Path 546" class="cls-4" d="M361.33,689.53,327.05,700.4l-15-7.54L346.33,682Z"/><path id="Path_547" data-name="Path 547" class="cls-4" d="M361.32,699.09,327,710v-9.57l34.28-10.86Z"/><path id="Path_548" data-name="Path 548" class="cls-4" d="M312.05,702.52,327,710V700.4l-15-7.44Z"/></g><g id="Group_315" data-name="Group 315"><g id="Path_549" data-name="Path 549"><path class="cls-2" d="M585.24,601.38l-13.07-6.57,32.22-10.21,13.07,6.56Z"/><path class="cls-3" d="M604.33,585.41,574.17,595l11.13,5.59L615.46,591l-11.13-5.6m.13-1.63,15,7.54-34.29,10.87-15-7.54Z"/></g><g id="Path_550" data-name="Path 550"><path class="cls-2" d="M585.93,610.71v-8l32.77-10.39v8Z"/><path class="cls-3" d="M618,593.39l-31.26,9.91v6.38L618,599.77v-6.38m1.51-2.07v9.56l-34.29,10.87v-9.56Z"/></g></g><g id="Group_316" data-name="Group 316"><g id="Path_551" data-name="Path 551"><path class="cls-2" d="M603.26,631.2l-29.75-16.27v-7.09l29.75,16.27Z"/><path class="cls-3" d="M602.5,629.92v-5.36l-28.23-15.44v5.36l28.23,15.44m1.52,2.55-31.26-17.09v-8.81L604,623.66Z"/></g><path id="Path_552" data-name="Path 552" class="cls-4" d="M584.92,602.06l32,16.86L604,623.34l-31.26-17.1"/><path id="Path_553" data-name="Path 553" class="cls-4" d="M616.88,619.15v8.9L604,632.48v-9.14"/></g><g id="Group_317" data-name="Group 317"><g id="Path_554" data-name="Path 554"><path class="cls-2" d="M538.54,616.3l-13.07-6.57,32.22-10.21,13.07,6.57Z"/><path class="cls-3" d="M557.63,600.33l-30.16,9.56,11.13,5.59,30.16-9.55-11.13-5.6m.13-1.63,15,7.54-34.29,10.87-15-7.54Z"/></g><g id="Path_555" data-name="Path 555"><path class="cls-2" d="M539.23,625.63v-8L572,607.28v8Z"/><path class="cls-3" d="M571.24,608.31,540,618.22v6.38l31.26-9.91v-6.38m1.52-2.07v9.56l-34.29,10.87v-9.56Z"/></g><g id="Path_556" data-name="Path 556"><path class="cls-2" d="M537.72,625.45l-13.49-6.69v-7.87l13.49,6.69Z"/><path class="cls-3" d="M537,624.23v-6.18l-12-5.94v6.18l12,5.94m1.51,2.44-15-7.44v-9.56l15,7.44Z"/></g></g><g id="Group_318" data-name="Group 318"><path id="Path_557" data-name="Path 557" class="cls-4" d="M168.23,610.91,137,593.81V585l31.26,17.1Z"/><path id="Path_558" data-name="Path 558" class="cls-4" d="M168.23,602.1,137,585l11.92-3.08L180.15,599Z"/></g><path id="Path_559" data-name="Path 559" class="cls-8" d="M182,598.09l-14.32,4V45L182,40.68Z"/><g id="Path_560" data-name="Path 560"><path class="cls-9" d="M361.82,560.54,170.19,459.87l224.49-76,188.09,98Z"/><path class="cls-10" d="M361.87,559.72l219-78L394.62,384.68,172.11,460l189.76,99.7m-.11,1.64L168.28,459.72,394.75,383l189.91,99Z"/></g><g id="Path_561" data-name="Path 561"><path class="cls-9" d="M361.82,456.75,170.19,356.08l224.49-76,188.09,98Z"/><path class="cls-10" d="M361.87,455.92l219-78L394.62,280.89,172.11,356.23l189.76,99.69m-.11,1.65L168.28,355.93l226.47-76.68,189.91,99Z"/></g><g id="Path_562" data-name="Path 562"><path class="cls-9" d="M361.82,353,170.19,252.29l224.49-76,188.09,98Z"/><path class="cls-10" d="M361.87,352.14l219-78L394.62,177.1,172.11,252.44l189.76,99.7m-.11,1.64L168.28,252.14l226.47-76.68,189.91,99Z"/></g><g id="Path_563" data-name="Path 563"><path class="cls-9" d="M361.82,249.17,170.19,148.5l224.49-76,188.09,98Z"/><path class="cls-10" d="M361.87,248.34l219-78L394.62,73.31,172.11,148.65l189.76,99.69m-.11,1.65L168.28,148.35,394.75,71.67l189.91,99Z"/></g><g id="Path_564" data-name="Path 564"><path class="cls-9" d="M361.82,145.37,170.19,44.71l224.49-76,188.09,98Z"/><path class="cls-10" d="M361.87,144.55l219-78L394.62-30.48,172.11,44.86l189.76,99.69m-.11,1.65L168.28,44.56,394.75-32.12l189.91,99Z"/></g><path id="Path_565" data-name="Path 565" class="cls-4" d="M373.5,685.35l-11.74,4.18V146.2l14.71-5Z"/><path id="Path_566" data-name="Path 566" class="cls-4" d="M585.38,602.14,572.76,606,572,71.38l12.61-4.45Z"/><path id="Path_567" data-name="Path 567" class="cls-4" d="M361.76,689.88l-14.71-7.74V138.47l14.71,7.73Z"/><g id="Group_320" data-name="Group 320"><path id="Path_568" data-name="Path 568" class="cls-4" d="M182.71,609.76l-34.29,10.87-15-7.55,34.28-10.86Z"/><path id="Path_569" data-name="Path 569" class="cls-4" d="M182.7,619.32l-34.28,10.87v-9.56l34.28-10.87Z"/><path id="Path_570" data-name="Path 570" class="cls-4" d="M133.42,622.75l15,7.43v-9.55l-15-7.44Z"/></g><path id="Path_571" data-name="Path 571" class="cls-4" d="M183.1,609.76l-15.79-7.93V45l15.79,7.62Z"/></g></g></g></g><circle id="Ellipse_8-2" data-name="Ellipse 8-2" class="cls-11" cx="376.44" cy="381.94" r="349.04"/></g></svg>