<svg id="Layer_1" data-name="Layer 1" xmlns="http://www.w3.org/2000/svg" xmlns:xlink="http://www.w3.org/1999/xlink" viewBox="0 0 750 750"><defs><style>.cls-1,.cls-7{fill:none;}.cls-2{clip-path:url(#clip-path);}.cls-3{fill:#888;}.cls-4{fill:#fff;}.cls-5{fill:#ffd900;}.cls-6{fill:#c5ccd3;}.cls-7{stroke:#0055ec;stroke-miterlimit:10;stroke-width:5.67px;}.cls-8{fill:#697483;}.cls-9{fill:#eee;}.cls-10{fill:#0055ec;}</style><clipPath id="clip-path"><circle class="cls-1" cx="376.23" cy="398.21" r="315.23"/></clipPath></defs><g id="Group_150" data-name="Group 150"><g id="Group_142" data-name="Group 142"><g class="cls-2"><g id="Group_141" data-name="Group 141"><g id="Group_140" data-name="Group 140"><g id="Group_139" data-name="Group 139"><g id="Group_133" data-name="Group 133"><path id="Path_193" data-name="Path 193" class="cls-3" d="M224.13,146.34c0,5.73,4.38,10.17,8.36,13.31a71.58,71.58,0,0,0,16.25,9,229.67,229.67,0,0,0,37.95,11.61c13.56,3.13,27.27,5.42,40.89,8.25s27.34,6,40.87,9.72c25.81,7,51.8,15.53,75.46,28.88,10.95,6.17,21.88,13.53,30.09,23.63,11.72,14.41,10.31,26.84,10.31,35.74a39.21,39.21,0,0,0-1.17-9c-1.27-5.35-3-12.81-13.05-23.13a121.74,121.74,0,0,0-31-21.9c-23.89-12.55-49.68-20.74-75.43-27.52-13.47-3.55-27.05-6.62-40.68-9.39s-27.14-5.05-40.58-8.32a207.08,207.08,0,0,1-35.69-11.49,65.39,65.39,0,0,1-15-8.76,19.84,19.84,0,0,1-6.82-8.7C223.67,155,224.13,151.34,224.13,146.34Z"/><path id="Path_194" data-name="Path 194" class="cls-3" d="M325.71,66.36c2.08.23,4.37.42,6.93.74.46.07,3.28.4,3.28.92v8a.16.16,0,0,0,0-.09c-.18-.28-1.17-.47-1.47-.53-2.39-.46-6.41-.74-8.87-1-.39,0-3.5-.37-3.5-.79v-8C322.05,66,325.31,66.31,325.71,66.36Z"/><path id="Path_195" data-name="Path 195" class="cls-3" d="M335.69,73.55c15.36-1.32,20.86-1.89,20.86-4v8c0,2.1-5.51,2.67-20.86,4-14,1.22-39.1,4.11-39.1,7.42V81C296.59,77.67,321.67,74.76,335.69,73.55Z"/><path id="Path_196" data-name="Path 196" class="cls-3" d="M259.37,83.52c10.75,4.15,90,6.64,103.17,11.62.67.25,1.94.82,2.09,1.56v8c-.15-.74-1.42-1.32-2.09-1.56-13.13-5-92.42-7.48-103.17-11.64-.89-.34-3-1.21-3.21-2.2,0-.14,0-8,0-8.12C256.14,82.22,258.43,83.16,259.37,83.52Z"/><path id="Path_197" data-name="Path 197" class="cls-3" d="M418.54,100.38a1.74,1.74,0,0,0,.38-1v8a1.77,1.77,0,0,1-.38,1C411.18,118.51,310,131.39,310,148.6v-7.95C310,123.44,411.18,110.55,418.54,100.38Z"/><path id="Path_198" data-name="Path 198" class="cls-3" d="M372.64,723.3c44.52-49.89,78.44-82.37,174.88-197.42,70.22-83.78,110.09-141.17,118.13-158.09A92.66,92.66,0,0,0,674,329v-8a92.66,92.66,0,0,1-8.36,38.75c-8,16.92-47.91,74.32-118.13,158.08C446.05,639,413.8,668.61,365.59,723.3Z"/><path id="Path_199" data-name="Path 199" class="cls-3" d="M307.73,184.64c143,26.48,169.8,64.39,174.33,80.73,5.46,20.73,18.19,51.81-203,210.46C146.45,571,6.89,673-61.41,723.3h427c48.22-54.69,80.47-84.33,181.94-205.38,70.21-83.77,110.08-141.17,118.12-158.08,6.42-13.48,30.87-78.32-51.83-135.58s-289-61.67-302.67-80.46,99.59-32.63,107.4-43.41-111.13-14.11-120.29-18,21.39-7.47,37.43-8.86,21.34-1.93,20.83-4.27-20.31-4.34-29.66-4.34a10.6,10.6,0,0,0-4.77.54c-1.24,1.65,37.78,1.46-10,6.16s-63.45,7.75-52.71,11.9,90,6.64,103.17,11.62c1.32.5,2,1,2.09,1.56-.91,5.14-43.48,11.34-63.57,15.18-32.88,6.27-61.92,13.58-73.44,26.15C226.11,139.73,201.58,165,307.73,184.64Z"/></g><g id="Group_134" data-name="Group 134"><path id="Path_200" data-name="Path 200" class="cls-4" d="M284.17,75l-2.92.38,8.69-1.07Z"/><path id="Path_201" data-name="Path 201" class="cls-4" d="M-20.47,723.31l20-15.77c58.5-45.63,79.63-61.44,131.62-100.4l66.23-49.73C354.94,439.3,312.63,475.76,395.56,407.08c20.36-17,43.8-37.15,62.35-56.17,13.93-14.46,31.92-34.93,37.17-54.43,6.47-24.15-3.29-47.77-21.73-63-11.33-9.3-24.25-15.11-37-20.07a282.45,282.45,0,0,0-38.87-12.82c-37-9.54-49.17-12-79.18-17.66-10.44-2-35.23-6-58.85-14.14-8.21-3.09-19.85-8.13-26.56-14.1-9.67-8.67-4.36-15.33,7-21.48,10.29-5.5,26.84-10.58,38-13.5,9.22-2.45,16.49-3.82,39.53-8.48l19.85-4c5.25-1.06,19.72-4.15,24.6-6.46,5.1-2.29,5.78-5.63-.23-7.3a223.23,223.23,0,0,0-25.12-3.12c-12.4-1-7.45-.67-20.14-1.5L296.3,87.38c-7.67-.55-28.18-1.81-35.09-3.78-6-1.62-6.36-3.15,0-4.93a149,149,0,0,1,17.18-3l2.84-.37-2.84.35a147,147,0,0,0-17.2,2.88c-6.37,1.74-6.23,3.45,0,5.16,6.88,2,27.65,3.36,35.11,3.93l20.12,1.62c12.41,1,7.45.53,20.11,1.75a222.78,222.78,0,0,1,24.94,3.42c4.79,1.39,4.42,3.31,0,5.2-4.76,2.17-19.36,5.08-24.43,6l-19.88,3.75c-22.59,4.24-30.11,5.54-39.73,8-11.4,2.84-28.08,7.74-38.67,13.23-13.5,7.13-18.89,16.24-7.62,26.35,6.78,6.05,19.63,11.94,27.47,14.64C282.09,179.5,309,184,317.88,185.8a665.45,665.45,0,0,1,78.49,19.48A266.8,266.8,0,0,1,434,220c12.29,5.56,24.24,11.82,34,20.7,14.6,13.31,22.52,32.91,16.56,52.4-4.83,16.44-23,37.23-34.33,49.3a718.5,718.5,0,0,1-60.93,56C311.48,462,324.06,447.72,190.06,545.92l-66.8,48.78C78.38,627.43,42.74,653.52-9.91,693.27-26.39,705.83-26.69,706-49.22,723.32Z"/></g><g id="Group_138" data-name="Group 138"><path id="Path_202" data-name="Path 202" class="cls-5" d="M274.75,139.42a31.56,31.56,0,0,1,9.81-6.3l.65,1.28c-6.07,3.24-9.32,5.63-9.22,6Zm15.51-8.87c2.68-1.35,5.71-2.71,9-4l.41,1.22c-3.28,1.32-6.27,2.66-8.91,4ZM305,124.33c2.9-1,6-2.08,9.3-3.1l.33,1.26c-3.26,1-6.37,2.05-9.26,3.07Zm15.16-4.83c3-.86,6.18-1.71,9.44-2.54l.27,1.26c-3.25.83-6.42,1.68-9.4,2.53Zm15.36-4c3.07-.73,6.27-1.45,9.52-2.15l.23,1.27c-3.25.7-6.44,1.43-9.49,2.15ZM351,112.1c1.52-.31,3.07-.62,4.62-.91l4.84-1.26.28,1.26-4.89,1.27c-1.57.3-3.12.61-4.64.92Zm15.36-3.74c3.83-1,6.8-1.88,9.37-2.68l.33,1.25c-2.58.81-5.57,1.66-9.42,2.7Zm15.12-4.66a30.66,30.66,0,0,0,8.75-4.46l.77.67a31.89,31.89,0,0,1-9.18,4.87Z"/><path id="Path_203" data-name="Path 203" class="cls-5" d="M575.41,336a60.19,60.19,0,0,0,6-24.72,40,40,0,0,0-5.4-22.35l-6.84,2.83a34.43,34.43,0,0,1,4.26,19.63c-.16,6.5-2.35,12.19-5.84,20.07Z"/><g id="Group_135" data-name="Group 135"><path id="Path_204" data-name="Path 204" class="cls-5" d="M563.86,271l4.28-4.65a235.6,235.6,0,0,0-23-20.24l-3,4.57A217.46,217.46,0,0,1,563.86,271Z"/></g><g id="Group_136" data-name="Group 136"><path id="Path_205" data-name="Path 205" class="cls-5" d="M509.83,224.89l1.77-3.61a138.78,138.78,0,0,1,17,10.35l-2.59,3.5A102.35,102.35,0,0,0,509.83,224.89Zm-34.11-15.51,1.14-3.27c6.07,2.31,12.16,4.77,17.63,7.2l-1.14,3.38c-5.44-2.42-11.6-5-17.63-7.32Zm-34.9-11.95.67-2.6c6.13,1.79,12.13,3.66,17.85,5.55L458.6,203c-5.68-1.9-11.66-3.75-17.77-5.54Zm-36-9.33.53-2.64c6.14,1.41,12.23,2.89,18.12,4.42l-.59,2.63c-5.86-1.53-11.94-3-18-4.42Zm-36.39-7.45.43-2.66c6.16,1.12,12.32,2.3,18.28,3.52l-.48,2.65c-5.93-1.22-12.06-2.4-18.22-3.52Zm-23.34-3.94c-4.44-.63-8.93-1.36-13.34-2.17l.43-2.66c4.38.8,8.84,1.53,13.27,2.16l5.08.81-.38,2.67ZM295.5,165.08l.83-2.55A157.59,157.59,0,0,0,314.05,168l-.58,2.63a158.88,158.88,0,0,1-18-5.54ZM273.66,145.5v-.43l2,.11v.32a11.77,11.77,0,0,0,4.65,8.17l-1.6,2.08a13.6,13.6,0,0,1-5-10.25Z"/></g><g id="Group_137" data-name="Group 137"><path id="Path_206" data-name="Path 206" class="cls-5" d="M274.37,650.73c13.94-13.55,29.06-28.36,44.95-44L312.78,599c-15.87,15.64-31,30.43-44.91,44Z"/><path id="Path_207" data-name="Path 207" class="cls-5" d="M355.11,571.32c14.2-14.1,29.2-29.05,44.58-44.44l-6.6-7.65c-15.37,15.38-30.36,30.32-44.55,44.42Z"/><path id="Path_208" data-name="Path 208" class="cls-5" d="M435.24,491.21c14.45-14.52,29.36-29.57,44.34-44.71l-6.64-7.61c-15,15.14-29.88,30.17-44.32,44.69Z"/><path id="Path_209" data-name="Path 209" class="cls-6" d="M198.05,723.31c11.65-10.72,25.09-23.36,40.08-37.67l-6.43-7.81c-17.5,16.71-32.9,31.14-45.76,42.87l2.05,2.61Z"/></g><path id="Path_210" data-name="Path 210" class="cls-5" d="M513.2,414.18a322.41,322.41,0,0,0,44-50.5c-3.24-2.4-4.82-3.63-7.93-6.13a315,315,0,0,1-44,49.17C508.38,409.74,510,411.24,513.2,414.18Z"/></g><path id="Path_211" data-name="Path 211" class="cls-4" d="M304.59,84c5.8.63,11.81,1.27,18,1.79,12.45,1.07,25.71,2.08,39.65,3.46,13,1.28,28.6,2.65,43.76,5.65,3,.57,8.46,1.62,10.92,3.56.73.56,1,.91-.13,1.84a33.62,33.62,0,0,1-8.07,3.74,244.9,244.9,0,0,1-23.61,6.59c-35.34,8.47-64.61,13.23-75.08,23.25-4.94,5-3.92,11,.58,14.49,9.05,6.74,35.91,11.53,68.88,17.24,55.05,9.48,170,26.9,229.29,68.19,16.78,11.63,31.88,26.16,41.87,44.56,11.74,21.6,13.26,40,8.65,59.15-4.7,19.52-9.52,29.33-66.54,101.3-21,26.28-31.5,39.7-74.85,87.44C420.29,634,400.31,656.31,342.16,713.44q-5.36,5.25-10.08,9.86H357.3c69.57-69.87,93-98.11,170.08-187.41,29.86-34.51,45.52-53.65,73.78-89.45,55.39-70.85,62.36-82.52,67.75-106.38,4.89-21.86,2.74-43-10.6-66.6-11-19.48-27.16-34.71-45.29-46.84-60-40.1-165.91-54.78-232.94-65.05-33.36-5.15-59.61-9.45-68-15.48-3.65-2.72-3.92-6.87-.46-10.44,9.75-9.8,41.21-15.71,73.7-24.16,8.06-2,16-4,23.64-6.73a33.17,33.17,0,0,0,8.26-3.88c1.55-1.36,1.23-2.08.12-3-2.61-2-8-3-11.22-3.62-15.16-2.9-29.89-4-43.83-5.35s-27.22-2.25-39.68-3.25c-6.22-.48-12.24-1.15-18-1.75-2.48-.31-7.16-1-8.12-2.39-1.19-1.77,4.71-3.28,6.71-3.76,5.28-1.22,10.43-1.91,15.34-2.56s9.62-1.14,14.08-1.61c2.23-.21,4.4-.5,6.52-.63s4.17-.25,6.16-.42c3.5-.31,9.49-.92,10.83-2.51.33-.48.11-.82-.33-1.15a27.41,27.41,0,0,0-8.1-2.09c-1.46-.2-2.86-.41-4.18-.61s-2.6-.32-3.79-.44c-4.79-.45-8.47-.55-11-.62l-3.52,0,3.52,0c2.48.07,6.16.18,11,.63,1.19.11,2.46.26,3.79.44s2.72.41,4.18.61a27.56,27.56,0,0,1,8.09,2.08c.45.34.66.69.33,1.14-1.44,1.71-8.44,2.3-10.82,2.51-2,.18-4.05.3-6.16.43s-4.29.41-6.52.62c-4.46.46-9.16,1-14.08,1.6s-10.07,1.33-15.36,2.54c-2.08.49-8,2-6.75,3.86C297.47,83.1,302.7,83.74,304.59,84Z"/></g></g></g></g></g><circle id="Ellipse_7-2" data-name="Ellipse 7-2" class="cls-7" cx="376.23" cy="398.21" r="315.23"/><g id="Group_149" data-name="Group 149"><g id="Group_145" data-name="Group 145"><g id="Group_144" data-name="Group 144"><rect id="Rectangle_31" data-name="Rectangle 31" class="cls-8" x="474.36" y="320.66" width="12.59" height="261.56"/><g id="Group_143" data-name="Group 143"><path id="Path_212" data-name="Path 212" class="cls-9" d="M487,554.67v17.2l-9.61,10.34h-3v-14Z"/><path id="Path_213" data-name="Path 213" class="cls-9" d="M474.36,522.81,487,509.25v17.2L474.36,540Z"/><path id="Path_214" data-name="Path 214" class="cls-9" d="M487,463.83V481L474.36,494.6V477.4Z"/><path id="Path_215" data-name="Path 215" class="cls-9" d="M487,418.42v17.2l-12.59,13.56V432Z"/><path id="Path_216" data-name="Path 216" class="cls-9" d="M487,373v17.2l-12.59,13.56v-17.2Z"/><path id="Path_217" data-name="Path 217" class="cls-9" d="M487,327.58v17.2l-12.59,13.57v-17.2Z"/></g></g><ellipse id="Ellipse_9" data-name="Ellipse 9" class="cls-10" cx="480.65" cy="327.35" rx="49.15" ry="52.92"/><ellipse id="Ellipse_10" data-name="Ellipse 10" class="cls-4" cx="480.65" cy="327.35" rx="37.29" ry="40.15"/></g><g id="Group_148" data-name="Group 148"><g id="Group_147" data-name="Group 147"><rect id="Rectangle_32" data-name="Rectangle 32" class="cls-8" x="244.08" y="35.08" width="6.29" height="130.78"/><g id="Group_146" data-name="Group 146"><path id="Path_218" data-name="Path 218" class="cls-9" d="M250.38,152.09v8.6l-4.8,5.17h-1.5v-7Z"/><path id="Path_219" data-name="Path 219" class="cls-9" d="M244.08,136.16l6.3-6.78V138l-6.3,6.79Z"/><path id="Path_220" data-name="Path 220" class="cls-9" d="M250.38,106.67v8.6l-6.3,6.78v-8.6Z"/><path id="Path_221" data-name="Path 221" class="cls-9" d="M250.38,84v8.59l-6.3,6.78v-8.6Z"/><path id="Path_222" data-name="Path 222" class="cls-9" d="M250.38,61.25v8.6l-6.3,6.78V68Z"/><path id="Path_223" data-name="Path 223" class="cls-9" d="M250.38,38.54v8.61l-6.3,6.78v-8.6Z"/></g></g><ellipse id="Ellipse_11" data-name="Ellipse 11" class="cls-10" cx="247.23" cy="38.43" rx="24.58" ry="26.46"/><ellipse id="Ellipse_12" data-name="Ellipse 12" class="cls-4" cx="247.23" cy="38.43" rx="18.64" ry="20.07"/></g></g></g></svg>