<svg id="Layer_1" data-name="Layer 1" xmlns="http://www.w3.org/2000/svg" viewBox="0 0 750 750"><defs><style>.cls-1,.cls-4{fill:#b7b7b7;}.cls-2{fill:#606060;}.cls-3,.cls-7,.cls-8,.cls-9{fill:none;}.cls-3,.cls-4,.cls-8{stroke:#606060;stroke-width:0.1px;}.cls-3,.cls-4{stroke-linecap:round;stroke-linejoin:round;}.cls-5{fill:#ffd900;}.cls-6{fill:#fff;}.cls-7{stroke:#fff;stroke-width:0.28px;}.cls-7,.cls-8,.cls-9{stroke-miterlimit:10;}.cls-9{stroke:#0055ec;stroke-width:5.67px;}</style></defs><g id="Group_198" data-name="Group 198"><g id="Group_132" data-name="Group 132"><g id="Group_189" data-name="Group 189"><g id="Group_188" data-name="Group 188"><g id="Path_284" data-name="Path 284"><path class="cls-1" d="M659.76,438.43,549.13,399.78l64-22.19,102.49,32.84Z"/><path class="cls-2" d="M613.14,377.73l-63.6,22,110.21,38.51,55.52-27.83L613.14,377.73m0-.28,102.86,33-56.22,28.17-111-38.8Z"/></g><g id="Path_285" data-name="Path 285"><path class="cls-1" d="M659.92,467.14,550.37,430l.42-29.93,108.93,38.6.06,0,.05,0,56-28.07v26.76Z"/><path class="cls-2" d="M659.91,467l55.81-29.68V410.85l-55.83,28-.12,0h-.09L550.93,400.3l-.43,29.64L659.91,467m0,.29-109.7-37.14.43-30.22,109.11,38.66L716,410.41v27.06Z"/></g></g><line id="Line_17" data-name="Line 17" class="cls-3" x1="659.97" y1="438.83" x2="659.64" y2="467.28"/></g><g id="Group_190" data-name="Group 190"><path id="Path_286" data-name="Path 286" class="cls-4" d="M361.19,477.41,496,527.92l67.74-39L439.18,450.38Z"/><path id="Path_287" data-name="Path 287" class="cls-4" d="M563.7,523l-67.85,36.09L361.59,511.05l.48-33.47,133.57,46.81,68.07-35.47Z"/></g><g id="Group_191" data-name="Group 191"><g id="Path_288" data-name="Path 288"><path class="cls-1" d="M159.84,402.24,52.17,361.57l68.32-18L227.14,380.5Z"/><path class="cls-2" d="M120.48,343.71,52.61,361.59,159.84,402.1l66.87-21.61L120.48,343.71m0-.28L227.57,380.5l-67.74,21.88L51.72,361.54Z"/></g><g id="Path_289" data-name="Path 289"><path class="cls-1" d="M159.73,435.26,51.42,392.37l.43-30.63,107.93,40.77.05,0,0,0,67.58-21.83,1.8,26Z"/><path class="cls-2" d="M159.72,435.11l69.39-28.53-1.79-25.71-67.41,21.77h-.17L52,361.93l-.44,30.35,108.17,42.83m0,.29L51.28,392.46l.44-30.92,108.11,40.84,67.74-21.88,1.83,26.25Z"/></g></g><g id="Group_192" data-name="Group 192"><g id="Path_290" data-name="Path 290"><path class="cls-1" d="M481.28,474.66,124.38,351.28,341.1,298.54l335.63,92.08Z"/><path class="cls-2" d="M341.1,298.68,124.86,351.3,481.27,474.51l195.05-83.86-335.22-92m0-.28,336,92.19L481.28,474.8,123.89,351.26Z"/></g><g id="Path_291" data-name="Path 291"><path class="cls-1" d="M476.74,486.24l-353-126.06v-8.59l353,121.89.05,0,.05,0L677,390.8l-.67,10.47Z"/><path class="cls-2" d="M123.85,351.78v8.31l352.89,126,199.45-84.93.65-10.17-200,82.6a.18.18,0,0,1-.1,0h-.09L123.85,351.78m-.27-.38,353.17,122,200.39-82.76-.69,10.77-199.7,85L123.58,360.28Z"/></g></g><g id="Group_193" data-name="Group 193"><path id="Path_292" data-name="Path 292" class="cls-4" d="M482.63,330.78l-5.9,142.57,14.32-5.91,4.57-138.07Z"/><path id="Path_293" data-name="Path 293" class="cls-4" d="M464.07,324.1l-4,143.32,16.64,5.93,5.88-137.83Z"/></g><g id="Group_194" data-name="Group 194"><g id="Path_294" data-name="Path 294"><path class="cls-1" d="M663.79,396l1.91-130.46,12.73-1.26L677,390.5Z"/><path class="cls-2" d="M678.29,264.44l-12.46,1.23-1.91,130.14,13-5.4,1.42-126m.28-.3-1.43,126.45-13.49,5.63,1.91-130.79Z"/></g><g id="Path_295" data-name="Path 295"><path class="cls-1" d="M663.51,396l-16.36-5.33V260.2l18.28,10.28Z"/><path class="cls-2" d="M647.28,260.44V390.6l16.1,5.24,1.91-125.28-18-10.12M647,260l18.55,10.43-1.91,125.82L647,390.8Z"/></g></g><g id="Group_195" data-name="Group 195"><g id="Path_296" data-name="Path 296"><path class="cls-1" d="M137.68,356.13l-14-4.83-5.44-117.72,15.49,4.67Z"/><path class="cls-2" d="M118.41,233.76l5.43,117.44,13.7,4.73-3.91-117.58-15.22-4.59m-.29-.37,15.78,4.75,3.93,118.18-14.25-4.92Z"/></g><g id="Path_297" data-name="Path 297"><path class="cls-1" d="M138,356.15,133.1,238.81,145,231l3.63,122.66Z"/><path class="cls-2" d="M144.88,231.27l-11.64,7.61L138.08,356l10.42-2.41-3.62-122.3m.26-.49,3.64,123-10.95,2.54L133,238.74Z"/></g></g><g id="Group_196" data-name="Group 196"><g id="Path_298" data-name="Path 298"><path class="cls-1" d="M337.23,307.72l-9.69-3.14L324.73,240l10,1Z"/><path class="cls-2" d="M324.87,240.18l2.8,64.3,9.41,3-2.52-66.37-9.69-1m-.29-.3,10.24,1,2.55,67-10-3.23Z"/></g><g id="Path_299" data-name="Path 299"><path class="cls-1" d="M337.25,307.59l-2.81-66.26L342.2,237l2.53,68.44Z"/><path class="cls-2" d="M342.07,237.24l-7.49,4.16,2.8,66,7.21-2.05-2.52-68.12m.26-.45,2.54,68.77-7.75,2.21-2.82-66.52Z"/></g></g><g id="Group_197" data-name="Group 197"><g id="Path_300" data-name="Path 300"><path class="cls-5" d="M483,326.33l-365.23-98.9,224-31.36,352,60.73Z"/><path class="cls-6" d="M341.73,196.46l-222.1,31.09,363.31,98.38,209.24-69L341.73,196.46m0-.78,353.6,61L483,326.73,115.8,227.31Z"/></g><g id="Path_301" data-name="Path 301"><path class="cls-5" d="M482.62,339.21,116.19,235.54v-7.72L482.86,327.1l.11,0,.11,0L695,257.22V269Z"/><path class="cls-6" d="M116.57,228.32v6.93l366,103.56,212-70.11V257.75L483.2,327.46h-.44L116.57,228.32m-.77-1L483,326.73l212.39-70v12.57L482.63,339.61,115.8,235.83Z"/></g></g><line id="Line_18" data-name="Line 18" class="cls-7" x1="482.96" y1="326.73" x2="482.63" y2="339.61"/><line id="Line_19" data-name="Line 19" class="cls-8" x1="495.8" y1="524.39" x2="495.47" y2="559.13"/><line id="Line_20" data-name="Line 20" class="cls-8" x1="160" y1="402.38" x2="159.68" y2="435.4"/></g><circle id="Ellipse_8" data-name="Ellipse 8" class="cls-9" cx="383.63" cy="377.41" r="358.09"/></g></svg>