<svg id="Layer_1" data-name="Layer 1" xmlns="http://www.w3.org/2000/svg" xmlns:xlink="http://www.w3.org/1999/xlink" viewBox="0 0 750 750"><defs><style>.cls-1,.cls-2{fill:none;}.cls-2,.cls-8{stroke:#0055ec;stroke-miterlimit:10;}.cls-2{stroke-width:5.67px;}.cls-3{clip-path:url(#clip-path);}.cls-4{fill:#0055ec;}.cls-5,.cls-8{fill:#fff;}.cls-6{fill:#ffd900;}.cls-7{fill:#7c7c7c;}</style><clipPath id="clip-path"><circle class="cls-1" cx="375" cy="362.64" r="346.71"/></clipPath></defs><g id="Group_186" data-name="Group 186"><circle id="Ellipse_7-2" data-name="Ellipse 7-2" class="cls-2" cx="375" cy="362.64" r="346.71"/><g id="Group_185" data-name="Group 185"><g class="cls-3"><g id="Group_184" data-name="Group 184"><g id="Group_183" data-name="Group 183"><path id="Path_232" data-name="Path 232" class="cls-4" d="M666.05,346.54,241.53,101.27l-29.1,39.06L618.21,368.21Z"/><path id="Path_233" data-name="Path 233" class="cls-4" d="M550,401.7,443.23,580.46,17.91,312.7,99.12,156Z"/><path id="Path_234" data-name="Path 234" class="cls-4" d="M443.23,661.71V556.86c0-59.54,36.54-129.37,81.21-155.17l88.44-51.06c44.67-25.78,81.21,1.84,81.21,61.39V516.87L674.48,528l-3.2-1.85L586.88,575v3.81L554,597.65l-2.55-2.26L466.4,644.58l0,3.73Z"/><path id="Path_235" data-name="Path 235" class="cls-4" d="M17.91,416V311.12c0-59.54,36.55-129.37,81.21-155.16l88.44-51.07c44.67-25.77,81.21,1.84,81.21,61.4V271.13Z"/><path id="Path_236" data-name="Path 236" class="cls-4" d="M17.91,312.71,443.23,558.52V661.7L344.1,604.42v-3.74l-40-23.15-2.54,2.26L17.91,415.9Z"/><path id="Path_237" data-name="Path 237" class="cls-4" d="M99.12,156,524.44,401.7l88.44-51.06L187.56,104.9Z"/><g id="Group_163" data-name="Group 163"><g id="Group_159" data-name="Group 159"><path id="Path_238" data-name="Path 238" class="cls-5" d="M493,383.48l88.44-51.07c19.34-11.16,37.15-12.3,51.14-5.18h0l.09,0a40.42,40.42,0,0,1,4.47,2.69l.57.34c-13.92-6.88-31.57-5.68-50.71,5.38l-88.44,51.07c-44.67,25.77-81.21,95.61-81.21,155.16V646.77l-5.57-3.28V538.64C411.81,479.09,448.35,409.27,493,383.48Z"/></g><g id="Group_160" data-name="Group 160"><path id="Path_239" data-name="Path 239" class="cls-5" d="M463,366.26l88.44-51.08c19.33-11.16,37.15-12.3,51.13-5.18h0l.09.05a43,43,0,0,1,4.47,2.69l.56.34c-13.92-6.88-31.56-5.67-50.7,5.39l-88.45,51.06c-44.67,25.78-81.21,95.61-81.21,155.17V629.54l-5.57-3.27V521.42C381.77,461.87,418.31,392,463,366.26Z"/></g><g id="Group_161" data-name="Group 161"><path id="Path_240" data-name="Path 240" class="cls-5" d="M431.92,348.37l88.44-51.07c19.33-11.16,37.15-12.3,51.14-5.18h0l.09.05a41.37,41.37,0,0,1,4.47,2.69l.56.34c-13.92-6.88-31.56-5.67-50.7,5.38l-88.44,51.07c-44.67,25.77-81.21,95.61-81.21,155.16V611.66l-5.57-3.28V503.53C350.71,444,387.25,374.16,431.92,348.37Z"/></g><g id="Group_162" data-name="Group 162"><path id="Path_241" data-name="Path 241" class="cls-5" d="M401.87,331.16l88.45-51.07c19.33-11.16,37.15-12.3,51.13-5.18h0l.09,0a40.42,40.42,0,0,1,4.47,2.69l.57.34c-13.92-6.88-31.56-5.67-50.71,5.38l-88.44,51.06C362.77,360.2,326.23,430,326.23,489.6v97l-5.58-3.28v-97C320.65,426.76,357.2,356.93,401.87,331.16Z"/></g></g><g id="Group_168" data-name="Group 168"><g id="Group_164" data-name="Group 164"><path id="Path_242" data-name="Path 242" class="cls-5" d="M372.5,313.93,461,262.87c19.33-11.17,37.14-12.31,51.13-5.19h0l.08.06a41.94,41.94,0,0,1,4.47,2.68l.57.34c-13.92-6.88-31.56-5.67-50.7,5.39l-88.45,51.07c-44.66,25.77-81.21,95.61-81.21,155.16V577.23L291.29,574V469.1C291.29,409.54,327.84,339.72,372.5,313.93Z"/></g><g id="Group_165" data-name="Group 165"><path id="Path_243" data-name="Path 243" class="cls-5" d="M342.45,296.72l88.45-51.07c19.33-11.16,37.15-12.3,51.13-5.18h0l.09.05a41.37,41.37,0,0,1,4.47,2.69l.56.34c-13.92-6.88-31.56-5.67-50.7,5.38L348,300c-44.67,25.77-81.21,95.61-81.21,155.17V560l-5.57-3.28V451.88C261.25,392.33,297.79,322.5,342.45,296.72Z"/></g><g id="Group_166" data-name="Group 166"><path id="Path_244" data-name="Path 244" class="cls-5" d="M311.4,278.82l88.44-51C419.18,216.6,437,215.46,451,222.58h0l.09.06a41.07,41.07,0,0,1,4.46,2.67l.57.34c-13.92-6.88-31.57-5.67-50.71,5.39L317,282.1c-44.66,25.78-81.21,95.61-81.21,155.17V542.12l-5.57-3.28V434C230.19,374.43,266.73,304.61,311.4,278.82Z"/></g><g id="Group_167" data-name="Group 167"><path id="Path_245" data-name="Path 245" class="cls-5" d="M281.35,261.61l88.45-51.07c19.33-11.16,37.15-12.3,51.13-5.18h0l.08,0a41.51,41.51,0,0,1,4.48,2.69l.56.34c-13.92-6.88-31.56-5.67-50.7,5.39l-88.45,51.06c-44.66,25.77-81.21,95.61-81.21,155.16V524.9l-5.57-3.28V416.77C200.14,357.22,236.69,287.4,281.35,261.61Z"/></g></g><g id="Group_173" data-name="Group 173"><g id="Group_169" data-name="Group 169"><path id="Path_246" data-name="Path 246" class="cls-5" d="M250.46,243.55l88.45-51.07c19.33-11.16,37.14-12.3,51.13-5.18h0l.09,0a41.37,41.37,0,0,1,4.47,2.69l.56.34c-13.92-6.88-31.56-5.67-50.7,5.39L256,246.84c-44.66,25.77-81.21,95.61-81.21,155.16V506.85l-5.57-3.28V398.71C169.26,339.16,205.8,269.33,250.46,243.55Z"/></g><g id="Group_170" data-name="Group 170"><path id="Path_247" data-name="Path 247" class="cls-5" d="M220.42,226.33l88.44-51.06C328.19,164.1,346,163,360,170.08h0l.09.06a40.34,40.34,0,0,1,4.47,2.68l.57.34c-13.92-6.88-31.56-5.67-50.71,5.39L226,229.61c-44.67,25.78-81.21,95.62-81.21,155.17V489.62l-5.57-3.28V381.49C139.21,321.94,175.74,252.12,220.42,226.33Z"/></g><g id="Group_171" data-name="Group 171"><path id="Path_248" data-name="Path 248" class="cls-5" d="M189.36,208.44l88.44-51.05c19.34-11.17,37.15-12.3,51.14-5.19h0l.09.06a41.29,41.29,0,0,1,4.47,2.68l.56.34c-13.91-6.87-31.56-5.67-50.7,5.39l-88.44,51.06c-44.67,25.78-81.21,95.61-81.21,155.17V471.75l-5.57-3.28V363.6C108.15,304.05,144.69,234.22,189.36,208.44Z"/></g><g id="Group_172" data-name="Group 172"><path id="Path_249" data-name="Path 249" class="cls-5" d="M159.32,191.22l88.43-51.07c19.33-11.16,37.15-12.3,51.13-5.18h0l.09.06a41.42,41.42,0,0,1,4.48,2.68l.56.34c-13.92-6.88-31.56-5.67-50.7,5.39L164.87,194.5c-44.66,25.78-81.21,95.61-81.21,155.17V454.52l-5.57-3.28V346.38C78.11,286.83,114.65,217,159.32,191.22Z"/></g></g><g id="Group_176" data-name="Group 176"><g id="Group_174" data-name="Group 174"><path id="Path_250" data-name="Path 250" class="cls-5" d="M129.69,173.67l88.45-51.07c19.33-11.16,37.14-12.3,51.13-5.18h0l.09.06a40.34,40.34,0,0,1,4.47,2.68l.56.34c-13.91-6.88-31.55-5.67-50.7,5.39L135.26,177c-44.67,25.78-81.21,95.61-81.21,155.17V437l-5.57-3.3V328.83C48.48,269.28,85,199.46,129.69,173.67Z"/></g><g id="Group_175" data-name="Group 175"><path id="Path_251" data-name="Path 251" class="cls-5" d="M99.65,156.45l88.44-51.07c19.33-11.16,37.15-12.3,51.13-5.18h0l.09,0a43,43,0,0,1,4.47,2.69l.56.34c-13.92-6.88-31.56-5.67-50.7,5.39l-88.45,51.06C60.55,185.5,24,255.34,24,314.89V419.73l-5.57-3.28V311.61C18.44,252.06,55,182.24,99.65,156.45Z"/></g></g><g id="Group_178" data-name="Group 178"><path id="Path_252" data-name="Path 252" class="cls-6" d="M671.94,525.76,586.88,575V476.86l85.06-49.12Z"/><path id="Path_253" data-name="Path 253" class="cls-7" d="M674.48,426.23V528l-3.21-1.84v-98.1Z"/><g id="Group_177" data-name="Group 177"><path id="Path_254" data-name="Path 254" class="cls-4" d="M671.27,456.74v2.93l-84.39,48.78V505.5Z"/><path id="Path_255" data-name="Path 255" class="cls-4" d="M671.27,466.3v2.93L586.88,518v-2.94Z"/><path id="Path_256" data-name="Path 256" class="cls-4" d="M671.27,475.87v2.92l-84.39,48.78v-2.94Z"/><path id="Path_257" data-name="Path 257" class="cls-4" d="M671.27,437.61v2.93l-84.39,48.77v-2.94Z"/><path id="Path_258" data-name="Path 258" class="cls-4" d="M671.27,447.18v2.92l-84.39,48.77v-2.94Z"/><path id="Path_259" data-name="Path 259" class="cls-4" d="M671.27,485.43v2.93l-84.39,48.77v-2.94Z"/><path id="Path_260" data-name="Path 260" class="cls-4" d="M671.27,495v2.92L586.88,546.7v-3Z"/><path id="Path_261" data-name="Path 261" class="cls-4" d="M671.27,504.56v2.93l-84.39,48.77v-3Z"/><path id="Path_262" data-name="Path 262" class="cls-4" d="M671.27,514.13v2.93l-84.39,48.77v-2.94Z"/></g></g><g id="Group_180" data-name="Group 180"><path id="Path_263" data-name="Path 263" class="cls-6" d="M551.46,595.4,466.4,644.59V546.5l85.06-49.12Z"/><path id="Path_264" data-name="Path 264" class="cls-7" d="M554,495.86v101.8l-3.21-1.85V497.72Z"/><g id="Group_179" data-name="Group 179"><path id="Path_265" data-name="Path 265" class="cls-4" d="M550.8,526.37v2.93l-84.39,48.77v-2.94Z"/><path id="Path_266" data-name="Path 266" class="cls-4" d="M550.8,535.94v2.92l-84.39,48.78v-2.95Z"/><path id="Path_267" data-name="Path 267" class="cls-4" d="M550.8,545.5v2.93L466.41,597.2v-2.94Z"/><path id="Path_268" data-name="Path 268" class="cls-4" d="M550.8,507.24v2.93l-84.39,48.77V556Z"/><path id="Path_269" data-name="Path 269" class="cls-4" d="M550.8,516.81v2.92L466.41,568.5v-2.94Z"/><path id="Path_270" data-name="Path 270" class="cls-4" d="M550.8,555.07V558l-84.39,48.77v-2.94Z"/><path id="Path_271" data-name="Path 271" class="cls-4" d="M550.8,564.63v2.91l-84.39,48.77v-2.94Z"/><path id="Path_272" data-name="Path 272" class="cls-4" d="M550.8,574.19v2.93l-84.39,48.77V623Z"/><path id="Path_273" data-name="Path 273" class="cls-4" d="M550.8,583.76v2.93l-84.39,48.77v-3Z"/></g></g><g id="Group_181" data-name="Group 181"><path id="Path_274" data-name="Path 274" class="cls-8" d="M344.11,497.08V600.69l-40-23.14V474Z"/><path id="Path_275" data-name="Path 275" class="cls-8" d="M301.53,472.44V579.79l3.21-1.85V474.3Z"/></g><g id="Group_182" data-name="Group 182"><path id="Path_276" data-name="Path 276" class="cls-4" d="M544,458.69l38.7-22.35V393.76L544,416.11Z"/><path id="Path_277" data-name="Path 277" class="cls-5" d="M580.94,397.33V435l-35.06,20.24V417.57Z"/><path id="Path_278" data-name="Path 278" class="cls-4" d="M580.86,428.53v2.08L545.8,451.1v-2.32Z"/><path id="Path_279" data-name="Path 279" class="cls-4" d="M580.86,421.73v2.08L545.8,444.05V442Z"/><path id="Path_280" data-name="Path 280" class="cls-4" d="M580.86,415.15v2.08L545.8,437.47v-2.08Z"/><path id="Path_281" data-name="Path 281" class="cls-4" d="M580.86,408.35v2.08L545.8,430.67v-2.08Z"/><path id="Path_282" data-name="Path 282" class="cls-4" d="M580.86,401.36v2.08L545.8,423.68V421.6Z"/></g><path id="Path_283" data-name="Path 283" class="cls-4" d="M307.63,540.94,309.5,542V530.93l-1.87-1.07Z"/></g></g></g></g></g></svg>