<svg id="Layer_1" data-name="Layer 1" xmlns="http://www.w3.org/2000/svg" viewBox="0 0 750 750"><defs><style>.cls-1{fill:#0055ec;}.cls-2{fill:#888;}</style></defs><g id="Path_45" data-name="Path 45"><path class="cls-1" d="M518,544.75a44.82,44.82,0,0,1,0-89.63h0a44.82,44.82,0,1,1,0,89.63Zm0-84a39.15,39.15,0,0,0,0,78.3h0a39.15,39.15,0,0,0,0-78.3Zm-301,84a44.82,44.82,0,1,1,44.81-44.81A44.86,44.86,0,0,1,217,544.75Zm0-84a39.15,39.15,0,1,0,39.14,39.15A39.19,39.19,0,0,0,217,460.79ZM518,519.3h0a19.36,19.36,0,0,1,0-38.72h0a19.36,19.36,0,1,1,0,38.72Zm0-33a13.69,13.69,0,0,0,0,27.38h0a13.69,13.69,0,0,0,0-27.38Zm-301,33a19.36,19.36,0,0,1,0-38.72h0a19.36,19.36,0,1,1,0,38.72Zm0-33a13.69,13.69,0,1,0,9.68,4,13.7,13.7,0,0,0-9.68-4Zm-91.82,16.82a10.13,10.13,0,0,1-10-9.29v-48a10.12,10.12,0,0,1,10.57-9.27H554.87l20,23.8h46.46a25.71,25.71,0,0,0,7.24-1l3.64-1.07v35.59a10.11,10.11,0,0,1-10.56,9.28H566.08v-3.13a48.08,48.08,0,1,0-96.16,0v3.13H265.09v-3.13A48.09,48.09,0,0,0,217,451.82h0a48.07,48.07,0,0,0-48.05,48.1v3.13H125.71Zm446.5-5.69h50.22a4.41,4.41,0,0,0,4.65-4V465.52a31.32,31.32,0,0,1-5.21.44h-49.1l-20-23.8H125.45a4.42,4.42,0,0,0-4.65,4v47.32a4.43,4.43,0,0,0,4.66,4h37.86A53.76,53.76,0,0,1,217,446.15h0a53.76,53.76,0,0,1,53.69,51.23H464.31A53.74,53.74,0,0,1,518,446.15h0a53.77,53.77,0,0,1,53.69,51.23Zm9.25-47.3h-1.32l-17.92-21.3a9,9,0,0,0-6.78-2.78H452.23V274.14H570.58c29,2.73,37.55,20.77,46.48,46l.08.28L637,402.51l-1.51.67h1.59v31.13a15.86,15.86,0,0,1-15.76,15.77Zm1.32-5.67h39a10.16,10.16,0,0,0,10.1-10.11V403.51l-19.74-81.66c-8.44-23.8-15.92-39.59-41.48-42H457.9V420.34h96.93a14.6,14.6,0,0,1,11,4.6l.11.12ZM439.6,424H345.84l-.91-5.52c21.75-7.35,42.3-25.26,56.36-49.12a143.05,143.05,0,0,0,19.08-84.49l-.27-3.08h19.5Zm-80-5.67h74.31V287.48h-7.67a148.85,148.85,0,0,1-20.09,84.78C394,392.88,377.81,408.85,359.62,418.35ZM213.22,424H119.45V305.23h15.63l-22.46-23.3,19.68-75.26,2.21,0c15.38.18,31.56-.23,48.69-.67,56.27-1.44,120-3.07,166.88,17.84,26.21,11.69,47.9,26,64.44,42.64l.76.77.06,1.08c4.3,80-25,130.67-89.45,154.91l-.51.19h-.55c-66-1.45-88.6-21.32-133.62-60.9l-5.8-5.11-46.78-48.52c-2.38,28.44,4,52.62,18.94,71.88,13,16.72,32,29.41,56.55,37.71Zm-88.1-5.67h73c-45.63-20.38-68.65-58-65.36-107.45h-7.67Zm64.29-64.94,5.54,4.87c43.86,38.56,65.95,58,129.46,59.48,33-12.51,55.81-31.71,69.77-58.7,12.29-23.75,17.38-53,15.55-89.32-16-15.79-36.79-29.48-62-40.7C302.09,208.65,239,210.26,183.35,211.69c-16.37.41-31.88.81-46.69.69l-17.75,67.9Zm383.25,27.43-51.27-.39a8.44,8.44,0,0,1-8.33-8.33V332.29A8.39,8.39,0,0,1,521.4,324h51.51a8.33,8.33,0,0,1,8.34,8.34L581,372.51A8.4,8.4,0,0,1,572.66,380.84Zm-51.24-51.22a2.7,2.7,0,0,0-2.69,2.68v39.8a2.72,2.72,0,0,0,2.7,2.68l51.24.39a2.7,2.7,0,0,0,2.65-2.69l.26-40.21a2.66,2.66,0,0,0-2.67-2.65Zm74.79,50.9a10.23,10.23,0,0,1-7.26-2.77,6.35,6.35,0,0,1-1.84-4.75l1.41-39.72a8.92,8.92,0,0,1,6.75-9.09l4-1,0,.26,5-.93,13.73,58-21.69,0Zm.28-50.79a3.26,3.26,0,0,0-2.3,3.33v.29l-1.43,39.85a.78.78,0,0,0,.26.61,4.81,4.81,0,0,0,3.19,1h0l14.53,0-10.83-45.74Z"/></g><path class="cls-2" d="M257.42,359.48l-17-8.67.32-.73.73-1.72c.5-1.2,1-2.45,1.62-3.63l3.46-6.86c4.16-8.24,8.47-16.75,12.88-25,1-1.88,1.31-3.14,1-4.08s-1.22-1.71-2.91-2.52l-2.88-1.4c-2.87-1.42-4.6-2.28-5.47-2s-1.63,1.85-2.95,4.49c-.44.9-1,1.94-1.57,3.11l-2.74,5.27c-3.85,7.38-7.83,15-11.41,22.66-1.19,2.56-2.41,3.9-4,4.34s-3.22,0-5.53-1.51a61.43,61.43,0,0,0-6.62-3.51c-1.11-.54-2.25-1.09-3.43-1.69l-.71-.37.33-.73.79-1.81c.51-1.19,1-2.31,1.55-3.38,1.27-2.51,2.54-5,3.8-7.52,4.2-8.31,8.55-16.9,13-25.26.83-1.55,1.09-2.66.82-3.48s-1.12-1.56-2.69-2.32c-1.24-.6-2.31-1.14-3.26-1.61-3-1.52-4.67-2.36-5.54-2.07s-1.6,1.84-2.89,4.44c-.46.92-1,2-1.6,3.17l-2.43,4.66c-4,7.57-8,15.41-11.72,23.27-1.2,2.55-2.42,3.89-4,4.34s-3.23,0-5.53-1.5a61.38,61.38,0,0,0-6.61-3.51c-1.09-.53-2.21-1.07-3.35-1.65l-.76-.38,28.57-56,.74.33,1.58.68c1.11.48,2.26,1,3.35,1.53,18.93,9.64,39.11,19.92,59.42,30.32,9.45,4.84,10.76,9,5.85,18.66q-6.9,13.54-13.82,27.09ZM242.64,350l14,7.17,7.69-15.06q6.92-13.54,13.82-27.1c4.46-8.76,3.46-12-5.12-16.36-20.31-10.4-40.48-20.69-59.41-30.33-1-.53-2.12-1-3.25-1.47l-.86-.37-27.07,53,2.56,1.25a61.46,61.46,0,0,1,6.79,3.61c1.82,1.17,3.14,1.59,4.14,1.3s1.95-1.39,2.91-3.43c3.68-7.9,7.78-15.75,11.75-23.34l2.43-4.66c.62-1.19,1.13-2.23,1.58-3.14,1.59-3.19,2.39-4.8,3.88-5.29s3.2.32,6.85,2.16l3.23,1.6c2,1,3.14,2,3.56,3.32s.15,2.79-.92,4.8c-4.44,8.35-8.78,16.94-13,25.24l-3.81,7.52c-.52,1-1,2.12-1.5,3.29l-.47,1.08,2.67,1.3a63.28,63.28,0,0,1,6.8,3.62c1.83,1.18,3.15,1.59,4.14,1.31s1.94-1.38,2.89-3.43c3.59-7.68,7.58-15.33,11.44-22.72l2.74-5.27c.61-1.17,1.12-2.19,1.56-3.09,3.24-6.52,3.74-6.68,10.69-3.25l2.86,1.4c2.14,1,3.35,2.14,3.8,3.52s.14,3.06-1.12,5.41c-4.4,8.27-8.7,16.78-12.86,25-1.15,2.29-2.31,4.57-3.47,6.86-.57,1.13-1.05,2.29-1.56,3.52Z"/><path class="cls-2" d="M333.07,398.28l-1.24-.64-4.77-2.4c-3.94-2-7.66-3.83-11.18-5.89a6.3,6.3,0,0,1-2.45-5.07c.13-2.8.46-5.63.77-8.36.26-2.29.53-4.66.69-7a14.94,14.94,0,0,0-.44-3.89c-.05-.24-.1-.48-.14-.73l-.68.36a17.78,17.78,0,0,0-3.43,2.08c-1.83,1.53-3.63,3.17-5.38,4.76S301,375,299,376.63a9.6,9.6,0,0,1-4.64,1.61,3.13,3.13,0,0,1-2.14-.74c-.2-.13-.41-.26-.6-.36l-14.59-7.44-1.57,1,.64-1.45L260.05,361l28.66-56.16.76.39c1.14.58,2.3,1.15,3.46,1.72a101.6,101.6,0,0,1,9.93,5.37c1.44.93,1,4.88.23,6.51-5.15,10.39-10.52,20.89-15.7,31q-3.18,6.23-6.36,12.46c-.54,1.07-1,2.16-1.66,3.67a1.54,1.54,0,0,0-.08.19,95.51,95.51,0,0,0,9.6-8c4.85-4.44,9.44-8.64,15.27-10.72l1.43-34,1.18.6q2.46,1.26,4.72,2.38c4.17,2.09,7.76,3.89,11.31,6,1.39.82,1.95,3.46,1.8,5-.31,3.24-.76,6.5-1.19,9.66-.34,2.5-.7,5.07-1,7.61a5.83,5.83,0,0,0,.39,2.16c0,.11.07.23.11.35l.47-.11a5.38,5.38,0,0,0,2.17-.83c5-4.41,8.87-8.07,12.26-11.54,2.33-2.39,4.57-2.7,7.51-1s5.91,3.14,9.34,4.86c1.51.75,3.08,1.54,4.74,2.39l1.25.63-1.14.82a102.1,102.1,0,0,0-9.29,7.77c-5.16,4.68-10.05,9.11-16.57,11.63,2.09,7.42,1.25,14.65.37,22.29a106.29,106.29,0,0,0-1,12.87Zm-17.46-36.65.18,1.25c.09.61.21,1.22.33,1.83a16.6,16.6,0,0,1,.47,4.34c-.16,2.36-.44,4.75-.7,7.06-.31,2.71-.63,5.5-.77,8.25a4.78,4.78,0,0,0,1.62,3.52c3.47,2,7.17,3.88,11.08,5.84l3.56,1.79c.08-4,.53-7.9,1-11.69.89-7.73,1.74-15-.53-22.37l-.24-.78.76-.27c6.59-2.35,11.53-6.83,16.76-11.57,2.62-2.38,5.32-4.83,8.31-7.07L353.92,340c-3.31-1.65-6.44-3.22-9.41-4.9-2.29-1.29-3.67-1.1-5.47.75-3.41,3.5-7.34,7.19-12.34,11.62a6.56,6.56,0,0,1-2.9,1.21c-.41.1-.82.2-1.2.32l-.9.31-.21-.93a11.24,11.24,0,0,0-.3-1.1,7.24,7.24,0,0,1-.45-2.84c.29-2.56.64-5.14,1-7.65.43-3.14.88-6.39,1.19-9.59.13-1.31-.46-3.05-1-3.35-3.5-2-7.07-3.83-11.21-5.91l-3.55-1.78-1.37,32.55-.56.18c-5.75,1.9-10.35,6.11-15.21,10.56a87.35,87.35,0,0,1-11.31,9.2l13.68,7a8.44,8.44,0,0,1,.74.44,3.52,3.52,0,0,0,1,.49,8.42,8.42,0,0,0,3.82-1.24c2-1.62,3.88-3.37,5.74-5.07s3.57-3.25,5.42-4.8a20.74,20.74,0,0,1,3.75-2.3c.56-.29,1.13-.58,1.67-.89Zm-53.27-1.35,14.47,7.38c.37-.86.7-1.62,1-2.3.63-1.48,1.13-2.65,1.7-3.77l6.36-12.47c5.19-10.15,10.55-20.64,15.7-31,.64-1.28.68-3.9.31-4.36a99.19,99.19,0,0,0-9.7-5.23l-2.72-1.35Z"/><path class="cls-1" d="M281,296.58a8.55,8.55,0,0,1-3.67-.93l-2.65-1.24a79.92,79.92,0,0,1-12-6.43c-1.76-1.22-2.83-3.32-3.86-5.36-.25-.49-.5-1-.76-1.47a5.2,5.2,0,0,1-2.72,1.93c-2.3.62-4.68-.73-7-2.05-.62-.36-1.25-.72-1.88-1-5.31-2.7-8-4.06-8.7-6.32s.63-5,3.35-10.3q1.29-2.52,2.6-5c2-3.84,4.06-7.82,5.95-11.79a4.53,4.53,0,0,1,2.54-2.62c1.37-.45,2.84.2,4.21,1l.66.35c1.33.7,2.7,1.43,3.13,2.85a4.4,4.4,0,0,1-.62,3.42c-1.39,2.6-2.74,5.28-4,7.88-1.48,2.94-3,6-4.62,8.92a3.78,3.78,0,0,0-.65,2.73c.21.68.91,1.3,2.2,2l1.34.68c3.59,1.81,5.57,2.81,6.41,2.53.59-.2,1.13-1.33,1.94-3.05.46-1,1-2.16,1.79-3.57,1-1.93,2-3.92,3-5.84.65-1.3,1.3-2.6,2-3.88,2.3-4.43,5.82-5.59,10.21-3.35l3.46,1.75c3.52,1.79,7.16,3.63,10.72,5.5,4.24,2.23,5.35,5.62,3.19,9.81l-.92,1.8c-2.83,5.5-5.75,11.18-8.56,16.8C285.62,295.08,283.52,296.58,281,296.58Zm-22.91-18.7.75,1.21c.55.89,1,1.84,1.5,2.76,1,1.94,1.91,3.76,3.31,4.73a79.16,79.16,0,0,0,11.74,6.29l2.67,1.25c3.33,1.58,5.79.7,7.49-2.72,2.81-5.63,5.74-11.32,8.57-16.82l.92-1.8c1.72-3.34.94-5.73-2.47-7.52s-7.18-3.71-10.7-5.49L278.41,258c-3.55-1.8-6.07-1-7.93,2.62-.66,1.28-1.32,2.57-2,3.86-1,1.94-2,3.94-3,5.89-.74,1.37-1.3,2.55-1.75,3.5-1,2.17-1.66,3.48-2.93,3.92-1.51.51-3.34-.4-7.73-2.63l-1.33-.67c-1.73-.87-2.7-1.81-3.06-3s-.11-2.42.78-4.05c1.59-2.92,3.11-5.95,4.59-8.87,1.31-2.61,2.66-5.31,4.07-7.92a3,3,0,0,0,.49-2.12c-.23-.75-1.24-1.28-2.3-1.85l-.69-.37c-1.42-.78-2.26-1-2.88-.82s-1,.74-1.51,1.73c-1.91,4-4,8-6,11.85l-2.59,5c-2.43,4.77-3.78,7.4-3.26,9s3.13,2.93,7.86,5.34c.65.33,1.31.7,2,1.08,2.09,1.19,4.06,2.32,5.68,1.88a4.42,4.42,0,0,0,2.48-2.32Zm18.51,9c-1.4,0-3-.82-5.33-2.67-1.18-.94-2.13-3.52-1.53-5,1.24-3,2.8-6,4.3-8.83.48-.91.95-1.82,1.42-2.73a4.41,4.41,0,0,1,2.46-2.41c1.46-.46,2.92.3,4.2,1,.36.2.72.39,1.08.55,1.51.67,3.12,1.57,3.61,3.12a4.47,4.47,0,0,1-.71,3.69c-.68,1.14-1.29,2.37-1.87,3.56-.27.55-.54,1.11-.82,1.65-.51,1-1,2.07-1.56,3.1-1.38,2.66-2.67,4.51-4.52,4.91A3.48,3.48,0,0,1,276.6,286.9Zm2.26-20.06a1.25,1.25,0,0,0-.43.07,2.85,2.85,0,0,0-1.45,1.56l-1.44,2.74c-1.48,2.82-3,5.73-4.23,8.69a3.85,3.85,0,0,0,1,3c2.25,1.8,3.65,2.48,4.65,2.26s2-1.41,3.35-4c.53-1,1.05-2.05,1.56-3.08h0c.28-.54.55-1.08.81-1.63.6-1.22,1.22-2.48,1.93-3.68a2.94,2.94,0,0,0,.56-2.3c-.29-.91-1.52-1.57-2.68-2.09-.39-.17-.79-.38-1.19-.59A6.06,6.06,0,0,0,278.86,266.84Z"/><path class="cls-1" d="M360.92,337.65a9.38,9.38,0,0,1-4.53-1.44c-4.66-2.64-9.53-5.1-14.25-7.47-3.44-1.74-7-3.53-10.47-5.39a13,13,0,0,0-1.49-.62c-1.49-.55-3.17-1.17-3.75-2.67a4,4,0,0,1,.47-3.33c.7-1.33,2.62-1.74,4.49-2.13a19.67,19.67,0,0,0,2.11-.53l.49-.16.73.69L338.6,299l-.47-.31c-.21.13-.43.25-.65.37a7.77,7.77,0,0,0-2,1.35c-2.24,2.43-4.44,5-6.58,7.43-1.08,1.24-2.16,2.49-3.25,3.72-5.63,6.4-6.15,6.45-13.78,1.24l-.65-.44.39-.69c.16-.27.3-.56.45-.85a9.27,9.27,0,0,1,1.29-2.05c2.64-2.95,5.31-5.88,8-8.81,3.4-3.74,6.91-7.6,10.32-11.44,1.94-2.18,3.94-3.29,7.36-1.59l.37.19c11.49,5.7,11.66,6.06,9,18.94-1,4.65-1.89,9.3-2.82,14l-1.09,5.42.28.1,3.06-6c2.81-5.47,5.72-11.13,8.49-16.74.91-1.85,1.8-3.43,3.39-4,1.2-.4,2.6-.14,4.42.8s2.91,2,3.28,3.22c.5,1.65-.33,3.37-1.22,5-1.15,2.08-2.22,4.26-3.27,6.36-1.35,2.73-2.75,5.55-4.32,8.23-.86,1.48-1.15,2.6-.87,3.43s1.2,1.54,2.81,2.2a45,45,0,0,1,4.36,2.14c.65.36,1.32.71,2,1.06l.77.4-.41.76c-1.55,2.89-3.07,4.42-4.92,4.95A5.27,5.27,0,0,1,360.92,337.65Zm-27.37-21.81c-.58.16-1.2.29-1.81.42-1.34.28-3,.64-3.34,1.27a2.48,2.48,0,0,0-.38,1.92c.3.78,1.6,1.26,2.75,1.69a13.28,13.28,0,0,1,1.71.71c3.44,1.85,7,3.64,10.43,5.37,4.73,2.38,9.63,4.85,14.32,7.51,1.9,1.08,3.43,1.44,4.66,1.08s2.31-1.4,3.47-3.36l-1.25-.67a45.1,45.1,0,0,0-4.19-2.07c-2.13-.87-3.33-1.89-3.78-3.23s-.13-2.87,1-4.83c1.54-2.63,2.92-5.42,4.26-8.13,1.05-2.11,2.14-4.31,3.3-6.42.87-1.6,1.36-2.77,1.08-3.68s-1-1.48-2.43-2.21-2.38-.94-3.11-.7c-1,.32-1.63,1.53-2.4,3.09-2.77,5.62-5.68,11.29-8.5,16.77L346,327l-.34.66-3.08-1.08,1.38-6.87q1.4-7,2.82-14c1.25-6,1.87-9.07.92-11.08s-3.65-3.32-9-6l-.36-.18c-2.54-1.26-3.7-.65-5.34,1.19-3.42,3.84-6.93,7.71-10.33,11.45q-4,4.39-8,8.81a7.6,7.6,0,0,0-1,1.68l-.12.24c3,2,4.68,3.13,5.88,3s2.59-1.64,5-4.41l3.25-3.72c2.14-2.46,4.35-5,6.6-7.46a9.07,9.07,0,0,1,2.4-1.69c.35-.19.7-.39,1-.6l.46-.29,2.4,1.56-4.89,19.59Z"/><path class="cls-1" d="M308.8,310.72a10.23,10.23,0,0,1-4.3-1.2c-2.69-1.29-5.37-2.68-8-4-2.32-1.2-4.72-2.44-7.1-3.6a4.27,4.27,0,0,1-2.23-6.68c3.84-7.31,7.78-15,11.73-23a5,5,0,0,1,2.87-2.91,4.81,4.81,0,0,1,3.83.74c1.79,1,3.68,2,5.5,2.87.81.4,1.61.79,2.41,1.2h0l3.54,1.81c4.89,2.49,7.18,4,7.88,6.25s-.35,4.78-3,9.63c-1.44,2.65-2.83,5.4-4.16,8.06-1,2-2,4-3,5.92C313.06,309.16,311.24,310.72,308.8,310.72Zm-6-39.82a1.7,1.7,0,0,0-.51.07c-.65.2-1.26.87-1.84,2-3.95,7.94-7.9,15.67-11.74,23a3.44,3.44,0,0,0-.54,2.58,3.55,3.55,0,0,0,2,1.79c2.4,1.16,4.81,2.41,7.13,3.61,2.59,1.34,5.26,2.72,7.92,4,4,1.93,5.85,1.27,8.06-2.95,1-2,2-3.93,3-5.9,1.34-2.67,2.73-5.43,4.18-8.1,2.35-4.32,3.37-6.67,2.86-8.32s-2.68-3-7-5.24l-3.53-1.8-2.39-1.2c-1.85-.91-3.76-1.86-5.6-2.91A4.16,4.16,0,0,0,302.8,270.9Zm1.7,30.44a4.59,4.59,0,0,1-2.78-1.16c-1.61-.66-3.35-1.51-3.94-3.07a4.56,4.56,0,0,1,.47-3.7,5,5,0,0,1,2.83-2.83c1.58-.49,3.23.27,4.34.88l.19.1c2.13,1.17,4.79,2.63,2.74,6.6-.94,1.84-2,2.85-3.23,3.11A3.18,3.18,0,0,1,304.5,301.34Zm-2.34-9.22a1.79,1.79,0,0,0-.57.09,3.38,3.38,0,0,0-1.81,2,3,3,0,0,0-.41,2.33c.35.92,1.7,1.58,3.1,2.15l.22.13a2.72,2.72,0,0,0,2.09.83c.68-.15,1.37-.9,2.06-2.23,1.29-2.49.24-3.07-2-4.33l-.19-.1A5.34,5.34,0,0,0,302.16,292.12Zm7.88-1.76a5.81,5.81,0,0,1-3.15-1.17c-1.22-.48-2.86-1.29-3.47-2.83a5.9,5.9,0,0,1,3.07-6.59c1.5-.49,3.05.17,4.51,1l.12.06c2.26,1.22,4.83,2.6,2.75,6.59a5.06,5.06,0,0,1-3,2.88A3.1,3.1,0,0,1,310,290.36Zm-2.48-9.05a1.53,1.53,0,0,0-.54.08,3.11,3.11,0,0,0-1.63,1.81,3.2,3.2,0,0,0-.39,2.53c.29.73,1.11,1.33,2.59,1.9l.17.09c1.14.77,2,1.07,2.68.89s1.3-.83,1.92-2c1.3-2.5.25-3.06-2.05-4.3l-.12-.07A6.07,6.07,0,0,0,307.56,281.31Z"/><path class="cls-1" d="M231.48,271.75a3,3,0,0,1-1.16-.2c-5.17-2.23-10.21-4.94-15.09-7.57l-.09,0c-4.07-2.2-5.13-5.44-3.07-9.4,3.5-6.7,7-13.56,10-19.47,1.95-3.88,5.13-5,8.95-3.13,4.3,2.1,8.63,4.33,12.81,6.48q2.66,1.38,5.33,2.74l.76.39-.39.76c-3.17,6.14-4.7,6.72-10.22,3.95-4.24-2.12-6.58-3.29-8-2.84s-2.57,2.76-4.71,7c-.16.31-.31.64-.47,1a14.38,14.38,0,0,1-1.19,2.21c-.81,1.18-1.68,2.84-1.23,4.09.33.9,1.35,1.6,3,2.07s3.37.43,3.93,0a2.78,2.78,0,0,0,1.15-2.11,2.71,2.71,0,0,0-1.34-1.93,2.56,2.56,0,0,1-.82-1.19,4.4,4.4,0,0,0-.24-.49l-.26-.48.33-.44c3.41-4.6,6.59-2.57,8.91-1.08a13,13,0,0,0,1.82,1,3.74,3.74,0,0,1,2.23,2.12c.49,1.41-.28,2.84-1,4.11-.14.25-.27.51-.39.75-.35.71-.69,1.43-1,2.15a55.12,55.12,0,0,1-4.13,7.62A6,6,0,0,1,231.48,271.75Zm-3.91-39c-1.67,0-3,1-4,3.07-3,5.92-6.46,12.79-10,19.5-1.62,3.11-.87,5.37,2.37,7.11l.09.05c4.84,2.6,9.85,5.3,15,7.5a4.37,4.37,0,0,0,3.52-1.2,54.59,54.59,0,0,0,4-7.38c.34-.73.69-1.45,1-2.17l.42-.81c.54-1,1.1-2,.85-2.75a2.21,2.21,0,0,0-1.31-1.11,15.07,15.07,0,0,1-2.05-1.18c-2.31-1.48-4-2.57-6.31.26a.61.61,0,0,0,.05.12,2.62,2.62,0,0,0,.24.48,4.15,4.15,0,0,1,2.06,3.24,4.36,4.36,0,0,1-1.76,3.5c-1.65,1.37-5.09.47-5.47.36-2.26-.62-3.67-1.67-4.19-3.12s-.08-3.44,1.43-5.63a13.09,13.09,0,0,0,1-2c.16-.35.32-.69.5-1,4.83-9.48,5.39-9.66,15-4.86,4.27,2.15,5,2.31,7.54-2.45L243,239.94c-4.17-2.15-8.49-4.38-12.78-6.47A6.09,6.09,0,0,0,227.57,232.76Z"/></svg>