<svg id="Layer_1" data-name="Layer 1" xmlns="http://www.w3.org/2000/svg" viewBox="0 0 750 750"><defs><style>.cls-1{fill:#888;}.cls-2{fill:#ffd900;}.cls-3{fill:#0055ec;}.cls-4{fill:#fff;}.cls-5{fill:none;stroke:#0055ec;stroke-miterlimit:10;stroke-width:5.67px;}</style></defs><g id="Group_154" data-name="Group 154"><path id="Path_224" data-name="Path 224" class="cls-1" d="M51.58,509.11S146.52,270,590.42,262.62H709.76S309.32,293.11,352.63,509.11Z"/><path id="Path_225" data-name="Path 225" class="cls-2" d="M189.56,445.2c.83-1.07,24,0,24,0s-24.91,39.22-27.53,63.91H162.46S169,471.65,189.56,445.2Z"/><path id="Path_226" data-name="Path 226" class="cls-2" d="M230.65,423.78c22.9-36.76,61.64-60.89,61.64-60.89H266.5c-42.25,29.15-61,60.89-61,60.89Z"/><path id="Path_227" data-name="Path 227" class="cls-2" d="M293.32,347.29s14.09-17.93,58-30.92h22.4s-44.5,17.38-54.58,30.92Z"/><path id="Path_228" data-name="Path 228" class="cls-2" d="M376.11,308.14c.52,0,52.46-26.85,114.67-29.43l14.55,4.42A278.78,278.78,0,0,0,401.19,309.8Z"/><path id="Path_229" data-name="Path 229" class="cls-3" d="M352.64,509.11s.62-69.68,42.22-104.3a38.32,38.32,0,0,1,37.21-7c11,3.94,22.29,12.24,30.78,34.88l50.82-34.94S502,332.6,555.38,313.05c0,0,32.29-13.12,47.76,23.07l20.33-14s-18.84-49.14,86.29-59.5"/><path id="Path_230" data-name="Path 230" class="cls-4" d="M551.69,319.89s42,.93,45.19,5.13a53.26,53.26,0,0,1,6.27,11.1Z"/><path id="Path_231" data-name="Path 231" class="cls-4" d="M411.51,415.67s43.15.16,45.73,4.73a94.14,94.14,0,0,1,5.61,12.31Z"/><circle id="Ellipse_7" data-name="Ellipse 7" class="cls-5" cx="375" cy="370.73" r="351.7"/></g></svg>