<svg id="Layer_1" data-name="Layer 1" xmlns="http://www.w3.org/2000/svg" xmlns:xlink="http://www.w3.org/1999/xlink" viewBox="0 0 750 750"><defs><style>.cls-1,.cls-9{fill:none;}.cls-2{clip-path:url(#clip-path);}.cls-3{fill:#5b5b5b;}.cls-4{fill:#888;}.cls-5{fill:#fff;}.cls-6{fill:#ffd900;}.cls-7{fill:#fff6c1;}.cls-8{fill:#85b7ff;}.cls-9{stroke:#0055ec;stroke-miterlimit:10;stroke-width:5.67px;}</style><clipPath id="clip-path"><circle class="cls-1" cx="380.28" cy="368.47" r="351.48"/></clipPath></defs><g id="Group_289" data-name="Group 289"><g class="cls-2"><g id="Group_288" data-name="Group 288"><g id="Group_287" data-name="Group 287"><g id="Group_274" data-name="Group 274"><g id="Path_418" data-name="Path 418"><path class="cls-3" d="M154.45,498.29V308.91l220.46-73.77,197.33,82Z"/><path class="cls-4" d="M374.88,235.94,155.2,309.45V497.16l415.13-180L374.88,235.94m.06-1.6,199.22,82.81L153.7,499.43V308.37Z"/></g><g id="Path_419" data-name="Path 419"><path class="cls-3" d="M153.73,307.57l-18.21-7.66L314,235.09h56.39Z"/><path class="cls-4" d="M314.09,235.84,137.57,300l16.19,6.8,212-70.93H314.09m-.26-1.5h61.11l-221.24,74-20.23-8.51Z"/></g><path id="Path_420" data-name="Path 420" class="cls-4" d="M153.7,308.37-22.59,387.3-30.46,384l163.93-84.11Z"/><path id="Path_422" data-name="Path 422" class="cls-4" d="M153.7,499.43-22.59,512.49V387.3L153.7,308.37Z"/></g><g id="Group_275" data-name="Group 275"><path id="Path_423" data-name="Path 423" class="cls-4" d="M330.34,243.14,162.37,289-391.26,144.06l151.45-40.8Z"/><path id="Path_424" data-name="Path 424" class="cls-5" d="M7.36,199.68l-17.61,4.8-58-15.19,15.87-4.59Z"/><path id="Path_428" data-name="Path 428" class="cls-5" d="M83,219l-17.61,4.8-58-15.19,15.87-4.59Z"/><path id="Path_429" data-name="Path 429" class="cls-5" d="M159.71,239.18l-17.6,4.8-58-15.19L100,224.2Z"/><path id="Path_430" data-name="Path 430" class="cls-5" d="M235.35,260.16l-17.6,4.8-58-15.18,15.87-4.6Z"/></g><g id="Group_286" data-name="Group 286"><g id="Group_276" data-name="Group 276"><g id="Path_431" data-name="Path 431"><path class="cls-6" d="M338.38,567.17V553.82L506.91,502.1v13.35Z"/><path class="cls-7" d="M339.13,566.16l167-51.26V503.11l-167,51.27v11.78m-1.5,2V553.27l170-52.18V516Z"/></g><g id="Path_432" data-name="Path 432"><path class="cls-6" d="M336.89,567.21,287.73,554V540.63l49.16,13.22Z"/><path class="cls-7" d="M336.14,566.24V554.42L288.48,541.6v11.82l47.66,12.82m1.5,2L287,554.57V539.65l50.65,13.62Z"/></g><g id="Path_433" data-name="Path 433"><path class="cls-6" d="M337.62,552.72,289.7,540,457,488.63l47.92,12.73Z"/><path class="cls-7" d="M337.61,551.94l164.61-50.52L457,489.4,292.42,539.93l45.19,12m0,1.55L287,540l170-52.18,50.65,13.46Z"/></g></g><g id="Group_277" data-name="Group 277"><g id="Path_434" data-name="Path 434"><path class="cls-3" d="M333.33,547.88a62.51,62.51,0,0,1-23.44-4.52V397.17h46.89V543.41a30.83,30.83,0,0,1-5.44,2.14A63.64,63.64,0,0,1,333.33,547.88Z"/><path class="cls-4" d="M333.33,547.14A62.24,62.24,0,0,0,351,544.85a30.88,30.88,0,0,0,5-1.9v-145h-45.4V542.86a62.16,62.16,0,0,0,22.7,4.28m0,1.49a61.64,61.64,0,0,1-24.19-4.79V396.43h48.38V543.84S349.88,548.63,333.33,548.63Z"/></g><path id="Path_435" data-name="Path 435" class="cls-4" d="M309.14,543.7a58.69,58.69,0,0,0,24.19,4.93c16.88,0,24.13-4.32,24.13-4.32,0-11.9.36-25,.36-36.92a135.5,135.5,0,0,1-23.51,2.45,116.34,116.34,0,0,1-25.17-2.45Z"/></g><g id="Group_278" data-name="Group 278"><g id="Path_436" data-name="Path 436"><path class="cls-3" d="M470.39,502.14a62.59,62.59,0,0,1-23.45-4.52V351.43h46.89V497.67a30.14,30.14,0,0,1-5.44,2.14A63.55,63.55,0,0,1,470.39,502.14Z"/><path class="cls-4" d="M470.39,501.4a62.67,62.67,0,0,0,17.71-2.29,30.66,30.66,0,0,0,5-1.9v-145H447.69V497.12a62.1,62.1,0,0,0,22.7,4.28m0,1.49a61.73,61.73,0,0,1-24.2-4.79V350.69h48.39V498.1S486.93,502.89,470.39,502.89Z"/></g><path id="Path_437" data-name="Path 437" class="cls-4" d="M446.19,498a58.73,58.73,0,0,0,24.2,4.93c16.87,0,24.13-4.33,24.13-4.33,0-11.9.35-25,.35-36.91a137.37,137.37,0,0,1-23.51,2.45,116.34,116.34,0,0,1-25.17-2.45Z"/></g><g id="Group_279" data-name="Group 279"><g id="Path_438" data-name="Path 438"><path class="cls-3" d="M335.21,402.49V389.14l168.53-51.72v13.35Z"/><path class="cls-4" d="M336,401.48l167-51.26V338.43L336,389.7v11.78m-1.5,2V388.59l170-52.18v14.91Z"/></g><path id="Path_439" data-name="Path 439" class="cls-4" d="M334.47,403.5l-50.65-13.61V375l50.65,13.62Z"/><g id="Path_440" data-name="Path 440"><path class="cls-3" d="M334.45,388,286.53,375.3,453.85,324l47.92,12.74Z"/><path class="cls-4" d="M334.44,387.26l164.62-50.52-45.19-12L289.25,375.25l45.19,12m0,1.56-50.65-13.47,170-52.18,50.65,13.47Z"/></g></g><g id="Group_280" data-name="Group 280"><g id="Path_441" data-name="Path 441"><path class="cls-6" d="M520.51,607.56V594.21L689,542.49v13.35Z"/><path class="cls-7" d="M521.26,606.55l167-51.26V543.5l-167,51.26v11.79m-1.5,2V593.66l170-52.18v14.91Z"/></g><g id="Path_442" data-name="Path 442"><path class="cls-6" d="M519,607.6l-49.16-13.22V581L519,594.23Z"/><path class="cls-7" d="M518.27,606.62V594.8L470.61,582v11.82l47.66,12.81m1.5,2L469.12,595V580l50.65,13.62Z"/></g><g id="Path_443" data-name="Path 443"><path class="cls-6" d="M519.75,593.1l-47.92-12.74L639.15,529l47.92,12.74Z"/><path class="cls-7" d="M519.74,592.32,684.36,541.8l-45.19-12L474.55,580.31l45.19,12m0,1.56-50.65-13.46,170-52.18,50.65,13.46Z"/></g></g><g id="Group_281" data-name="Group 281"><g id="Path_444" data-name="Path 444"><path class="cls-3" d="M515.46,588.27A62.62,62.62,0,0,1,492,583.75V437.56h46.89V583.8a30.28,30.28,0,0,1-5.44,2.13A63.18,63.18,0,0,1,515.46,588.27Z"/><path class="cls-4" d="M515.46,587.53a62.61,62.61,0,0,0,17.71-2.29,30.88,30.88,0,0,0,5-1.9v-145h-45.4V583.25a62.43,62.43,0,0,0,22.7,4.28m0,1.49a61.71,61.71,0,0,1-24.19-4.79V436.82h48.38V584.23S532,589,515.46,589Z"/></g><path id="Path_445" data-name="Path 445" class="cls-4" d="M491.27,584.08A58.54,58.54,0,0,0,515.46,589c16.88,0,24.13-4.33,24.13-4.33,0-11.9.36-25,.36-36.91a137.37,137.37,0,0,1-23.51,2.45,117,117,0,0,1-25.17-2.45Z"/></g><g id="Group_282" data-name="Group 282"><g id="Path_446" data-name="Path 446"><path class="cls-3" d="M652.52,542.53A62.51,62.51,0,0,1,629.07,538V391.82H676V538.05a28.63,28.63,0,0,1-5.44,2.14A63.1,63.1,0,0,1,652.52,542.53Z"/><path class="cls-4" d="M652.52,541.78a62.76,62.76,0,0,0,17.71-2.28,30.66,30.66,0,0,0,5-1.9v-145H629.82V537.51a62.45,62.45,0,0,0,22.7,4.27m0,1.5a61.64,61.64,0,0,1-24.19-4.79V391.07h48.38V538.49S669.07,543.28,652.52,543.28Z"/></g><path id="Path_447" data-name="Path 447" class="cls-4" d="M628.33,538.34a58.66,58.66,0,0,0,24.19,4.93c16.87,0,24.13-4.33,24.13-4.33,0-11.9.36-25,.36-36.91a137.47,137.47,0,0,1-23.51,2.45A116.21,116.21,0,0,1,628.33,502Z"/></g><g id="Group_283" data-name="Group 283"><g id="Path_448" data-name="Path 448"><path class="cls-3" d="M517.34,442.88V429.53l168.53-51.72v13.35Z"/><path class="cls-4" d="M518.09,441.87l167-51.27V378.82l-167,51.26v11.79m-1.49,2V429l170-52.18v14.91Z"/></g><path id="Path_449" data-name="Path 449" class="cls-4" d="M516.6,443.89,466,430.27V415.36L516.6,429Z"/><g id="Path_450" data-name="Path 450"><path class="cls-3" d="M516.58,428.42l-47.92-12.73L636,364.33l47.92,12.74Z"/><path class="cls-4" d="M516.57,427.65l164.62-50.53-45.19-12L471.38,415.63l45.19,12m0,1.55L466,415.74l170-52.18L686.62,377Z"/></g></g><g id="Path_451" data-name="Path 451"><path class="cls-3" d="M649.25,391.17,199.13,280V263L649.25,374.26Z"/><path class="cls-4" d="M199.88,264v15.37L648.5,390.21V374.84L199.88,264m-1.49-1.91L650,373.67v18.45L198.39,280.54Z"/></g><path id="Path_452" data-name="Path 452" class="cls-4" d="M338.45,192,808.31,303.28V318l-469.86-114Z"/><g id="Path_453" data-name="Path 453"><path class="cls-3" d="M689,373.92l-18.15-6.69L689,360.94Z"/><path class="cls-4" d="M688.29,372.85V362l-15.18,5.26,15.18,5.6m1.5,2.15-21.12-7.79,21.12-7.32Z"/></g><g id="Path_454" data-name="Path 454"><path class="cls-3" d="M732.54,359.65,714.27,352l18.27-6.32Z"/><path class="cls-4" d="M731.79,358.52v-11.8l-15.43,5.34,15.43,6.46m1.5,2.25-21.12-8.84,21.12-7.31Z"/></g><g id="Group_284" data-name="Group 284"><path id="Path_456" data-name="Path 456" class="cls-8" d="M337.47,171.92,809,279.79l0,3.09L337.52,175Z"/><path id="Path_457" data-name="Path 457" class="cls-8" d="M337.59,180,809.11,287.85l0,3.09L337.64,183.06Z"/><rect id="Rectangle_55" data-name="Rectangle 55" class="cls-4" x="704.51" y="256.64" width="2.3" height="28.57" transform="translate(-3.97 10.58) rotate(-0.86)"/><rect id="Rectangle_56" data-name="Rectangle 56" class="cls-8" x="634.56" y="240.75" width="2.3" height="28.57" transform="translate(-3.74 9.54) rotate(-0.86)"/><rect id="Rectangle_57" data-name="Rectangle 57" class="cls-8" x="566.39" y="225.58" width="2.3" height="28.57" transform="translate(-3.52 8.52) rotate(-0.86)"/><rect id="Rectangle_58" data-name="Rectangle 58" class="cls-8" x="496.59" y="210.54" width="2.3" height="28.57" transform="translate(-3.31 7.47) rotate(-0.86)"/><rect id="Rectangle_59" data-name="Rectangle 59" class="cls-8" x="427.63" y="194.63" width="2.3" height="28.57" transform="translate(-3.08 6.44) rotate(-0.86)"/><rect id="Rectangle_60" data-name="Rectangle 60" class="cls-8" x="358.11" y="179.65" width="2.3" height="28.57" transform="translate(-2.86 5.4) rotate(-0.86)"/></g><g id="Path_458" data-name="Path 458"><path class="cls-3" d="M650.16,362.78,190.57,248.4l150.21-47.33L799.24,312.93Z"/><path class="cls-4" d="M650.13,362l146.42-49L340.81,201.84,193.32,248.32,650.13,362m.06,1.55L187.81,248.49l152.94-48.2L801.94,312.82Z"/></g><path id="Path_459" data-name="Path 459" class="cls-4" d="M180.14,246.67,650,358v15.69L180.14,258.75Z"/><path id="Path_460" data-name="Path 460" class="cls-4" d="M808.31,304V318l-16.14,5.7v15.93L773.5,346.4V330.32L752,337.91v16l-18.68,6.74V344.51l-24.87,8.78v14.95L689.79,375V359.88l-21.11,7.46v18L650,392.11V373.93h0V358.18Z"/><path id="Path_461" data-name="Path 461" class="cls-4" d="M781.63,251l-133.5,36.41-440-115.16,120.37-32.43Z"/><path id="Path_462" data-name="Path 462" class="cls-5" d="M524.93,216.49l-14,3.81-46.12-12.07,12.62-3.65Z"/><path id="Path_463" data-name="Path 463" class="cls-5" d="M464.82,200.78l-14,3.82L404.7,192.53l12.62-3.65Z"/><path id="Path_464" data-name="Path 464" class="cls-5" d="M404,185.06l-14,3.82-46.12-12.07,12.61-3.66Z"/><path id="Path_465" data-name="Path 465" class="cls-5" d="M343.93,169.33l-14,3.81-46.12-12.06,12.61-3.66Z"/><path id="Path_466" data-name="Path 466" class="cls-5" d="M585.05,231.87l-14,3.82-46.12-12.07L537.55,220Z"/><path id="Path_467" data-name="Path 467" class="cls-5" d="M646,247.89l-14,3.81-46.12-12.07L598.53,236Z"/><path id="Path_468" data-name="Path 468" class="cls-5" d="M706.13,264.56l-14,3.82L646,256.31l12.62-3.65Z"/><g id="Group_285" data-name="Group 285"><path id="Path_469" data-name="Path 469" class="cls-4" d="M180.14,222.59,650,337.51v3.08L180.14,225.68Z"/><path id="Path_470" data-name="Path 470" class="cls-4" d="M180.14,230.66,650,345.57v3.09L180.14,233.74Z"/><rect id="Rectangle_61" data-name="Rectangle 61" class="cls-4" x="612.93" y="329.58" width="2.3" height="28.57"/><rect id="Rectangle_62" data-name="Rectangle 62" class="cls-4" x="545.66" y="312.82" width="2.3" height="28.57"/><rect id="Rectangle_63" data-name="Rectangle 63" class="cls-4" x="475.96" y="295.89" width="2.3" height="28.57"/><rect id="Rectangle_64" data-name="Rectangle 64" class="cls-4" x="408.01" y="279.7" width="2.3" height="28.57"/><rect id="Rectangle_65" data-name="Rectangle 65" class="cls-4" x="338.46" y="263.62" width="2.3" height="28.57"/><rect id="Rectangle_66" data-name="Rectangle 66" class="cls-4" x="269.74" y="246.67" width="2.3" height="28.57"/><rect id="Rectangle_67" data-name="Rectangle 67" class="cls-4" x="200.44" y="230.66" width="2.3" height="28.57"/></g></g></g></g></g></g><circle id="Ellipse_8-2" data-name="Ellipse 8-2" class="cls-9" cx="382.18" cy="370.37" r="351.48"/></svg>