<svg id="Layer_1" data-name="Layer 1" xmlns="http://www.w3.org/2000/svg" xmlns:xlink="http://www.w3.org/1999/xlink" viewBox="0 0 750 750"><defs><style>.cls-1,.cls-9{fill:none;}.cls-2{clip-path:url(#clip-path);}.cls-3{fill:#5b5b5b;}.cls-4{fill:#888;}.cls-5{fill:#fff;}.cls-6{fill:#ffd900;}.cls-7{fill:#85b7ff;}.cls-8{fill:#fff6c1;}.cls-9{stroke:#0055ec;stroke-miterlimit:10;stroke-width:5.67px;}</style><clipPath id="clip-path"><circle class="cls-1" cx="371.63" cy="381.94" r="345.28"/></clipPath></defs><g id="Group_307" data-name="Group 307"><g id="Group_306" data-name="Group 306"><g class="cls-2"><g id="Group_305" data-name="Group 305"><g id="Group_304" data-name="Group 304"><g id="Group_291" data-name="Group 291"><g id="Path_471" data-name="Path 471"><path class="cls-3" d="M149.79,509.47v-186L366.35,251l193.86,80.58Z"/><path class="cls-4" d="M366.33,251.75,150.52,324v184.4L558.33,331.55l-192-79.8m.05-1.57,195.71,81.34-413,179.07V322.9Z"/></g><g id="Path_472" data-name="Path 472"><path class="cls-3" d="M149.08,322.12l-17.89-7.53,175.29-63.68h55.4Z"/><path class="cls-4" d="M306.61,251.65l-173.41,63,15.91,6.69,208.26-69.68H306.61m-.26-1.47h60L149.05,322.9l-19.87-8.36Z"/></g><path id="Path_473" data-name="Path 473" class="cls-4" d="M149.05,322.9-24.13,400.45l-7.74-3.25,161-82.64Z"/><path id="Path_475" data-name="Path 475" class="cls-4" d="M149.05,510.59-24.13,523.41v-123l173.18-77.54Z"/></g><g id="Group_292" data-name="Group 292"><path id="Path_476" data-name="Path 476" class="cls-4" d="M322.57,258.83l-165,45L-386.3,161.5l148.78-40.09Z"/><path id="Path_477" data-name="Path 477" class="cls-5" d="M5.28,216.13-12,220.85l-57-14.92,15.6-4.51Z"/><path id="Path_481" data-name="Path 481" class="cls-5" d="M79.59,235.13l-17.3,4.72-57-14.92,15.6-4.51Z"/><path id="Path_482" data-name="Path 482" class="cls-5" d="M155,254.93l-17.3,4.71-57-14.91,15.59-4.52Z"/><path id="Path_483" data-name="Path 483" class="cls-5" d="M229.26,275.54,212,280.26l-57-14.92,15.59-4.52Z"/></g><g id="Group_303" data-name="Group 303"><g id="Group_293" data-name="Group 293"><g id="Path_484" data-name="Path 484"><path class="cls-3" d="M330.47,577.14V564L496,513.22v13.11Z"/><path class="cls-4" d="M331.2,576.15l164.09-50.36V514.21L331.2,564.57v11.58m-1.46,2V563.48l167-51.26v14.65Z"/></g><path id="Path_485" data-name="Path 485" class="cls-4" d="M329.74,578.13,280,564.76V550.12l49.76,13.38Z"/><g id="Path_486" data-name="Path 486"><path class="cls-3" d="M329.72,562.94l-47.07-12.52L447,500l47.07,12.51Z"/><path class="cls-4" d="M329.71,562.17l161.72-49.63L447,500.74,285.31,550.37l44.4,11.8m0,1.53L280,550.47l167-51.26,49.76,13.23Z"/></g></g><g id="Group_294" data-name="Group 294"><g id="Path_487" data-name="Path 487"><path class="cls-3" d="M325.51,558.19a61.25,61.25,0,0,1-23-4.45V410.14h46.06V553.79a29.06,29.06,0,0,1-5.34,2.1A62.11,62.11,0,0,1,325.51,558.19Z"/><path class="cls-4" d="M325.51,557.46a61.25,61.25,0,0,0,17.4-2.25,31.05,31.05,0,0,0,4.9-1.86V410.87h-44.6V553.26a61.32,61.32,0,0,0,22.3,4.2m0,1.46a60.68,60.68,0,0,1-23.77-4.7V409.4h47.53V554.22S341.77,558.92,325.51,558.92Z"/></g><path id="Path_488" data-name="Path 488" class="cls-4" d="M301.74,554.08a57.68,57.68,0,0,0,23.77,4.85c16.57,0,23.7-4.25,23.7-4.25,0-11.69.36-24.57.36-36.25a134.7,134.7,0,0,1-23.1,2.41,115.49,115.49,0,0,1-24.73-2.41Z"/></g><g id="Group_295" data-name="Group 295"><g id="Path_489" data-name="Path 489"><path class="cls-3" d="M460.15,513.26a61.52,61.52,0,0,1-23-4.45V365.2h46.06V508.86a29.06,29.06,0,0,1-5.34,2.1A62.11,62.11,0,0,1,460.15,513.26Z"/><path class="cls-4" d="M460.15,512.52a61.71,61.71,0,0,0,17.4-2.24,29.6,29.6,0,0,0,4.89-1.87V365.94H437.85V508.32a61.26,61.26,0,0,0,22.3,4.2m0,1.47a60.68,60.68,0,0,1-23.77-4.7V364.47h47.53V509.29S476.4,514,460.15,514Z"/></g><path id="Path_490" data-name="Path 490" class="cls-4" d="M436.38,509.14A57.51,57.51,0,0,0,460.15,514c16.57,0,23.7-4.25,23.7-4.25,0-11.69.35-24.56.35-36.25a133.6,133.6,0,0,1-23.09,2.41,114.1,114.1,0,0,1-24.73-2.41Z"/></g><g id="Group_296" data-name="Group 296"><g id="Path_491" data-name="Path 491"><path class="cls-3" d="M327.36,415.36V402.25l165.55-50.81v13.11Z"/><path class="cls-4" d="M328.09,414.37,492.18,364V352.43L328.09,402.79v11.58m-1.47,2V401.71l167-51.26V365.1Z"/></g><path id="Path_492" data-name="Path 492" class="cls-4" d="M326.63,416.35,276.87,403V388.32l49.76,13.38Z"/><g id="Path_493" data-name="Path 493"><path class="cls-3" d="M326.61,401.16l-47.07-12.51L443.91,338.2,491,350.72Z"/><path class="cls-4" d="M326.6,400.4l161.71-49.63L443.92,339,282.2,388.6l44.4,11.8m0,1.52L276.87,388.7l167-51.26,49.76,13.22Z"/></g></g><g id="Group_297" data-name="Group 297"><g id="Path_494" data-name="Path 494"><path class="cls-3" d="M509.39,616.81V603.7l165.55-50.81V566Z"/><path class="cls-4" d="M510.12,615.82l164.09-50.36V553.88L510.12,604.24v11.58m-1.46,2V603.16l167-51.26v14.65Z"/></g><path id="Path_495" data-name="Path 495" class="cls-4" d="M508.66,617.81,458.9,604.43V589.78l49.76,13.38Z"/><g id="Path_496" data-name="Path 496"><path class="cls-3" d="M508.64,602.61l-47.07-12.52,164.37-50.44L673,552.16Z"/><path class="cls-4" d="M508.63,601.84l161.71-49.63L626,540.41,464.23,590l44.4,11.8m0,1.53L458.9,590.15l167-51.26,49.76,13.22Z"/></g></g><g id="Group_298" data-name="Group 298"><g id="Path_497" data-name="Path 497"><path class="cls-3" d="M504.43,597.87a61.52,61.52,0,0,1-23-4.45V449.81h46.06V593.47a29.85,29.85,0,0,1-5.34,2.1A62.11,62.11,0,0,1,504.43,597.87Z"/><path class="cls-4" d="M504.43,597.13a61.71,61.71,0,0,0,17.4-2.24,30.56,30.56,0,0,0,4.89-1.87V450.55H482.13V592.93a61.31,61.31,0,0,0,22.3,4.2m0,1.47a60.57,60.57,0,0,1-23.77-4.71V449.08h47.53V593.89S520.69,598.6,504.43,598.6Z"/></g><path id="Path_498" data-name="Path 498" class="cls-4" d="M480.66,593.75a57.51,57.51,0,0,0,23.77,4.85c16.57,0,23.7-4.25,23.7-4.25,0-11.69.36-24.57.36-36.25a133.81,133.81,0,0,1-23.1,2.41,114.16,114.16,0,0,1-24.73-2.41Z"/></g><g id="Group_299" data-name="Group 299"><g id="Path_499" data-name="Path 499"><path class="cls-3" d="M639.06,552.93a61.42,61.42,0,0,1-23-4.45V404.88H662.1V548.53a29,29,0,0,1-5.35,2.1A62,62,0,0,1,639.06,552.93Z"/><path class="cls-4" d="M639.06,552.2A61.39,61.39,0,0,0,656.47,550a29.6,29.6,0,0,0,4.89-1.87V405.61H616.77V548a61.17,61.17,0,0,0,22.29,4.21m0,1.46A60.66,60.66,0,0,1,615.3,549V404.14h47.53V549S655.32,553.66,639.06,553.66Z"/></g><path id="Path_500" data-name="Path 500" class="cls-4" d="M615.3,548.82a57.82,57.82,0,0,0,23.76,4.85c16.57,0,23.71-4.26,23.71-4.26,0-11.69.35-24.56.35-36.24A134.59,134.59,0,0,1,640,515.58a115.36,115.36,0,0,1-24.73-2.41Z"/></g><g id="Group_300" data-name="Group 300"><g id="Path_501" data-name="Path 501"><path class="cls-3" d="M506.27,455V441.92l165.56-50.81v13.12Z"/><path class="cls-4" d="M507,454.05l164.08-50.36V392.11L507,442.47v11.58m-1.47,2V441.38l167-51.26v14.65Z"/></g><g id="Path_502" data-name="Path 502"><path class="cls-3" d="M504.81,455.07l-48.29-13V429l48.29,13Z"/><path class="cls-4" d="M504.07,454.12V442.51l-46.82-12.59v11.61l46.82,12.59m1.47,1.91-49.75-13.38V428l49.75,13.38Z"/></g><g id="Path_503" data-name="Path 503"><path class="cls-3" d="M505.53,440.84l-47.08-12.52,164.37-50.44,47.08,12.51Z"/><path class="cls-4" d="M505.51,440.07l161.72-49.63-44.39-11.8L461.12,428.27l44.39,11.8m0,1.53-49.75-13.23,167-51.26,49.75,13.23Z"/></g></g><g id="Path_504" data-name="Path 504"><path class="cls-6" d="M635.85,404.24,193.68,295V278.37L635.85,387.62Z"/><path class="cls-7" d="M194.41,279.31v15.1L635.12,403.3V388.2L194.41,279.31M193,277.43,636.59,387.05v18.13L193,295.56Z"/></g><path id="Path_505" data-name="Path 505" class="cls-8" d="M330.54,208.55,792.11,317.91v14.5l-461.57-112Z"/><path id="Path_506" data-name="Path 506" class="cls-6" d="M675.69,388.35l-20.75-7.65,20.75-7.19Z"/><path id="Path_507" data-name="Path 507" class="cls-6" d="M718.42,374.38l-20.75-8.69,20.75-7.18Z"/><path id="Path_508" data-name="Path 508" class="cls-6" d="M758,360.41l-20.74-8.69L758,344.54Z"/><g id="Group_301" data-name="Group 301"><path id="Path_509" data-name="Path 509" class="cls-6" d="M329.57,188.85l463.21,106,0,3-463.2-106Z"/><path id="Path_510" data-name="Path 510" class="cls-6" d="M329.69,196.77l463.21,106,0,3-463.2-106Z"/><rect id="Rectangle_69" data-name="Rectangle 69" class="cls-6" x="690.14" y="272.08" width="2.26" height="28.07" transform="translate(-4.2 10.37) rotate(-0.86)"/><rect id="Rectangle_70" data-name="Rectangle 70" class="cls-6" x="621.42" y="256.48" width="2.26" height="28.07" transform="translate(-3.98 9.34) rotate(-0.86)"/><rect id="Rectangle_71" data-name="Rectangle 71" class="cls-6" x="554.45" y="241.58" width="2.26" height="28.07" transform="translate(-3.76 8.34) rotate(-0.86)"/><rect id="Rectangle_72" data-name="Rectangle 72" class="cls-6" x="485.89" y="226.8" width="2.26" height="28.07" transform="translate(-3.55 7.31) rotate(-0.86)"/><rect id="Rectangle_73" data-name="Rectangle 73" class="cls-6" x="418.15" y="211.16" width="2.26" height="28.07" transform="translate(-3.32 6.3) rotate(-0.86)"/><rect id="Rectangle_74" data-name="Rectangle 74" class="cls-6" x="349.84" y="196.45" width="2.26" height="28.07" transform="translate(-3.11 5.27) rotate(-0.86)"/></g><path id="Path_511" data-name="Path 511" class="cls-6" d="M785.84,327.27l-453-110.55L182.55,264.06,636.78,377.11Z"/><path id="Path_512" data-name="Path 512" class="cls-8" d="M175,262.29,636.59,371.64v15.41L175,274.16Z"/><path id="Path_513" data-name="Path 513" class="cls-8" d="M792.11,318.56v13.83L776.25,338v15.65l-18.34,6.62V344.47l-21.11,7.46v15.72l-18.35,6.62V358.41L694,367v14.69l-18.35,6.62V373.52l-20.73,7.33v17.71l-18.35,6.62V387.32h0V371.84Z"/><path id="Path_514" data-name="Path 514" class="cls-4" d="M765.9,266.58,634.75,302.35,202.51,189.23l118.24-31.87Z"/><path id="Path_515" data-name="Path 515" class="cls-5" d="M513.73,232.65,500,236.4l-45.31-11.86,12.4-3.58Z"/><path id="Path_516" data-name="Path 516" class="cls-5" d="M454.68,217.21,440.93,221,395.62,209.1l12.4-3.59Z"/><path id="Path_517" data-name="Path 517" class="cls-5" d="M395,201.77l-13.74,3.74-45.31-11.85,12.39-3.59Z"/><path id="Path_518" data-name="Path 518" class="cls-5" d="M335.92,186.32l-13.75,3.75-45.31-11.86,12.4-3.58Z"/><path id="Path_519" data-name="Path 519" class="cls-5" d="M572.78,247.75,559,251.5l-45.31-11.86,12.39-3.58Z"/><path id="Path_520" data-name="Path 520" class="cls-5" d="M632.69,263.48l-13.75,3.75-45.31-11.86,12.4-3.58Z"/><path id="Path_521" data-name="Path 521" class="cls-5" d="M691.74,279.86,678,283.61l-45.3-11.85,12.39-3.59Z"/><g id="Group_302" data-name="Group 302"><path id="Path_522" data-name="Path 522" class="cls-8" d="M175,238.64,636.59,351.52v3L175,241.67Z"/><path id="Path_523" data-name="Path 523" class="cls-8" d="M175,246.56,636.59,359.44v3L175,249.59Z"/><rect id="Rectangle_75" data-name="Rectangle 75" class="cls-8" x="600.17" y="343.74" width="2.26" height="28.07"/><rect id="Rectangle_76" data-name="Rectangle 76" class="cls-8" x="534.09" y="327.27" width="2.26" height="28.07"/><rect id="Rectangle_77" data-name="Rectangle 77" class="cls-8" x="465.62" y="310.63" width="2.26" height="28.07"/><rect id="Rectangle_78" data-name="Rectangle 78" class="cls-8" x="398.87" y="294.74" width="2.26" height="28.07"/><rect id="Rectangle_79" data-name="Rectangle 79" class="cls-8" x="330.54" y="278.94" width="2.26" height="28.07"/><rect id="Rectangle_80" data-name="Rectangle 80" class="cls-8" x="263.04" y="262.29" width="2.26" height="28.07"/><rect id="Rectangle_81" data-name="Rectangle 81" class="cls-8" x="194.97" y="246.56" width="2.26" height="28.07"/></g></g></g></g></g></g><circle id="Ellipse_8-2" data-name="Ellipse 8-2" class="cls-9" cx="373.5" cy="383.81" r="345.28"/></g></svg>