<svg id="Layer_1" data-name="Layer 1" xmlns="http://www.w3.org/2000/svg" xmlns:xlink="http://www.w3.org/1999/xlink" viewBox="0 0 750 750"><defs><style>.cls-1,.cls-9{fill:none;}.cls-2{clip-path:url(#clip-path);}.cls-3{fill:#ffd900;}.cls-4{fill:#fff6c1;}.cls-5{fill:#888;}.cls-6{fill:#fff;}.cls-7{fill:#5b5b5b;}.cls-8{fill:#85b7ff;}.cls-9{stroke:#0055ec;stroke-miterlimit:10;stroke-width:5.67px;}</style><clipPath id="clip-path"><circle class="cls-1" cx="379.72" cy="368.11" r="352.04"/></clipPath></defs><g id="Group_273" data-name="Group 273"><g id="Group_272" data-name="Group 272"><g class="cls-2"><g id="Group_271" data-name="Group 271"><g id="Group_270" data-name="Group 270"><g id="Group_257" data-name="Group 257"><g id="Path_365" data-name="Path 365"><path class="cls-3" d="M153.53,498.13V308.45l220.8-73.88L572,316.71Z"/><path class="cls-4" d="M374.3,235.38,154.29,309V497L570,316.73,374.3,235.38m.06-1.61L573.9,316.7,152.78,499.28V307.91Z"/></g><g id="Path_366" data-name="Path 366"><path class="cls-3" d="M152.81,307.1l-18.23-7.66,178.71-64.92h56.44Z"/><path class="cls-4" d="M313.42,235.27,136.65,299.49l16.19,6.81,212.26-71H313.42m-.26-1.5h61.2L152.78,307.91l-20.27-8.52Z"/></g><g id="Path_367" data-name="Path 367"><path class="cls-4" d="M-23.8,386.14l-6.1-2.56,162.45-83.36,18.33,7.71Z"/><path class="cls-3" d="M132.58,301.05-28.11,383.52l4.3,1.8L149,308l-16.41-6.9m-.07-1.66,20.27,8.52L-23.8,387l-7.88-3.32Z"/></g><g id="Path_369" data-name="Path 369"><path class="cls-4" d="M-23,511.54V387.46L152,309.08v189.5Z"/><path class="cls-3" d="M-22.29,510.73l173.56-12.85V310.24L-22.29,388V510.73m-1.51,1.62V387l176.58-79.06V499.28Z"/></g></g><g id="Group_258" data-name="Group 258"><path id="Path_370" data-name="Path 370" class="cls-5" d="M329.69,242.58,161.45,288.46-393.06,143.34l151.69-40.87Z"/><path id="Path_371" data-name="Path 371" class="cls-6" d="M6.2,199.05l-17.64,4.81-58.11-15.21,15.9-4.6Z"/><path id="Path_375" data-name="Path 375" class="cls-6" d="M82,218.42l-17.63,4.82L6.19,208l15.9-4.6Z"/><path id="Path_376" data-name="Path 376" class="cls-6" d="M158.8,238.61l-17.63,4.81L83.05,228.19l15.9-4.6Z"/><path id="Path_377" data-name="Path 377" class="cls-6" d="M234.55,259.62l-17.63,4.81L158.8,249.22l15.9-4.6Z"/></g><g id="Group_269" data-name="Group 269"><g id="Group_259" data-name="Group 259"><g id="Path_378" data-name="Path 378"><path class="cls-7" d="M337.76,567.12V553.76L506.54,502v13.36Z"/><path class="cls-5" d="M338.51,566.1l167.27-51.34V503L338.51,554.32V566.1m-1.51,2V553.2l170.29-52.26v14.94Z"/></g><path id="Path_379" data-name="Path 379" class="cls-5" d="M337,568.14,286.27,554.5V539.56L337,553.2Z"/><g id="Path_380" data-name="Path 380"><path class="cls-7" d="M337,552.64l-48-12.75,167.57-51.43,48,12.75Z"/><path class="cls-5" d="M337,551.85l164.84-50.59-45.22-12L291.75,539.83l45.22,12m0,1.57-50.73-13.48,170.29-52.27,50.73,13.49Z"/></g></g><g id="Group_260" data-name="Group 260"><path id="Path_381" data-name="Path 381" class="cls-7" d="M308.46,543.76a61.8,61.8,0,0,0,24.23,4.79c16.57,0,24.22-4.79,24.22-4.79V396.11H308.46Z"/><path id="Path_382" data-name="Path 382" class="cls-5" d="M308.46,543.61a58.53,58.53,0,0,0,24.23,4.94c16.89,0,24.16-4.33,24.16-4.33,0-11.92.36-25.05.36-37a136.82,136.82,0,0,1-23.54,2.45,116.64,116.64,0,0,1-25.21-2.45Z"/></g><g id="Group_261" data-name="Group 261"><path id="Path_383" data-name="Path 383" class="cls-7" d="M445.73,498A61.8,61.8,0,0,0,470,502.74c16.57,0,24.22-4.79,24.22-4.79V350.29H445.73Z"/><path id="Path_384" data-name="Path 384" class="cls-5" d="M445.73,497.8A58.69,58.69,0,0,0,470,502.74c16.89,0,24.17-4.33,24.17-4.33,0-11.92.35-25.05.35-37a136.83,136.83,0,0,1-23.54,2.46,117.28,117.28,0,0,1-25.21-2.46Z"/></g><g id="Group_262" data-name="Group 262"><g id="Path_385" data-name="Path 385"><path class="cls-7" d="M334.58,402.17V388.82L503.36,337v13.35Z"/><path class="cls-5" d="M335.33,401.15l167.28-51.33V338L335.33,389.37v11.78m-1.5,2.05V388.26L504.12,336v14.93Z"/></g><path id="Path_386" data-name="Path 386" class="cls-5" d="M333.83,403.19,283.1,389.55V374.62l50.73,13.64Z"/><g id="Path_387" data-name="Path 387"><path class="cls-7" d="M333.81,387.7l-48-12.76L453.4,323.52l48,12.75Z"/><path class="cls-5" d="M333.8,386.91l164.83-50.59-45.21-12L288.58,374.89l45.22,12m0,1.57L283.09,375l170.3-52.27,50.73,13.49Z"/></g></g><g id="Group_263" data-name="Group 263"><g id="Path_388" data-name="Path 388"><path class="cls-7" d="M520.17,607.57V594.21L689,542.41v13.36Z"/><path class="cls-5" d="M520.93,606.55,688.2,555.21V543.43L520.93,594.77v11.78m-1.51,2V593.65l170.29-52.26v14.93Z"/></g><path id="Path_389" data-name="Path 389" class="cls-5" d="M519.42,608.59,468.69,595V580l50.73,13.64Z"/><g id="Path_390" data-name="Path 390"><path class="cls-7" d="M519.41,593.09l-48-12.76L639,528.91l48,12.75Z"/><path class="cls-5" d="M519.39,592.3l164.84-50.59-45.22-12L474.17,580.28l45.22,12m0,1.57-50.73-13.48L639,528.12l50.73,13.49Z"/></g></g><g id="Group_264" data-name="Group 264"><path id="Path_391" data-name="Path 391" class="cls-7" d="M490.88,584.21A61.8,61.8,0,0,0,515.11,589c16.57,0,24.22-4.79,24.22-4.79V436.56H490.88Z"/><path id="Path_392" data-name="Path 392" class="cls-5" d="M490.88,584.07A58.72,58.72,0,0,0,515.11,589c16.89,0,24.17-4.33,24.17-4.33,0-11.92.35-25,.35-37a136.83,136.83,0,0,1-23.54,2.46,116.8,116.8,0,0,1-25.22-2.46Z"/></g><g id="Group_265" data-name="Group 265"><path id="Path_393" data-name="Path 393" class="cls-7" d="M628.15,538.39a61.8,61.8,0,0,0,24.23,4.8c16.57,0,24.22-4.8,24.22-4.8V390.74H628.15Z"/><path id="Path_394" data-name="Path 394" class="cls-5" d="M628.15,538.25a58.72,58.72,0,0,0,24.23,4.94c16.89,0,24.17-4.33,24.17-4.33,0-11.92.36-25.05.36-37a137.05,137.05,0,0,1-23.55,2.46,116.65,116.65,0,0,1-25.21-2.46Z"/></g><g id="Group_266" data-name="Group 266"><g id="Path_395" data-name="Path 395"><path class="cls-7" d="M517,442.62V429.27l168.78-51.8v13.35Z"/><path class="cls-5" d="M517.76,441.6,685,390.27V378.49L517.76,429.82V441.6m-1.51,2V428.71l170.29-52.27v14.94Z"/></g><path id="Path_396" data-name="Path 396" class="cls-5" d="M516.25,443.64,465.52,430V415.07l50.73,13.64Z"/><g id="Path_397" data-name="Path 397"><path class="cls-7" d="M516.23,428.15l-48-12.76L635.82,364l48,12.75Z"/><path class="cls-5" d="M516.22,427.36l164.84-50.59-45.22-12L471,415.34l45.22,12m0,1.57-50.73-13.48,170.29-52.27,50.73,13.49Z"/></g></g><g id="Path_398" data-name="Path 398"><path class="cls-7" d="M649.11,390.83,198.29,279.44V262.52L649.11,373.9Z"/><path class="cls-5" d="M199,263.48v15.37l449.31,111V374.5L199,263.48m-1.51-1.93L649.86,373.31v18.48L197.53,280Z"/></g><g id="Path_399" data-name="Path 399"><path class="cls-5" d="M807.09,315.89,339.15,202.38V193L807.09,303.86Z"/><path class="cls-5" d="M340.48,194.68v6.65L805.76,314.2v-9.28L340.48,194.68m-2.66-3.36,470.6,111.49v14.78L337.82,203.42Z"/></g><g id="Path_400" data-name="Path 400"><path class="cls-7" d="M689,373.56l-18.15-6.7L689,360.57Z"/><path class="cls-5" d="M688.2,372.48V361.63l-15.15,5.25,15.15,5.6m1.51,2.16-21.15-7.8,21.15-7.33Z"/></g><g id="Path_401" data-name="Path 401"><path class="cls-7" d="M732.53,359.26l-18.28-7.66,18.28-6.33Z"/><path class="cls-5" d="M731.77,358.13v-11.8l-15.41,5.34,15.41,6.46m1.51,2.26-21.14-8.85,21.14-7.33Z"/></g><g id="Group_267" data-name="Group 267"><path id="Path_403" data-name="Path 403" class="cls-8" d="M336.83,171.24l472.28,108,0,3.1-472.27-108Z"/><path id="Path_404" data-name="Path 404" class="cls-8" d="M337,179.31l472.27,108,0,3.1L337,182.4Z"/><rect id="Rectangle_41" data-name="Rectangle 41" class="cls-8" x="704.46" y="256.1" width="2.3" height="28.62" transform="translate(-3.97 10.58) rotate(-0.86)"/><rect id="Rectangle_42" data-name="Rectangle 42" class="cls-8" x="634.4" y="240.18" width="2.3" height="28.62" transform="translate(-3.74 9.53) rotate(-0.86)"/><rect id="Rectangle_43" data-name="Rectangle 43" class="cls-8" x="566.11" y="224.99" width="2.3" height="28.62" transform="translate(-3.52 8.51) rotate(-0.86)"/><rect id="Rectangle_44" data-name="Rectangle 44" class="cls-8" x="496.21" y="209.93" width="2.3" height="28.62" transform="translate(-3.3 7.46) rotate(-0.86)"/><rect id="Rectangle_45" data-name="Rectangle 45" class="cls-8" x="427.14" y="193.99" width="2.3" height="28.62" transform="translate(-3.07 6.43) rotate(-0.86)"/><rect id="Rectangle_46" data-name="Rectangle 46" class="cls-8" x="357.5" y="178.99" width="2.3" height="28.62" transform="translate(-2.85 5.39) rotate(-0.86)"/></g><g id="Path_405" data-name="Path 405"><path class="cls-7" d="M650,362.4,189.72,247.85l150.43-47.41,459.18,112Z"/><path class="cls-5" d="M650,361.61l146.62-49L340.18,201.23,192.5,247.76,650,361.61m.06,1.57L186.94,247.93l153.19-48.27L802,312.36Z"/></g><path id="Path_406" data-name="Path 406" class="cls-5" d="M179.26,246.11,649.86,357.6v15.71L179.26,258.22Z"/><g id="Path_407" data-name="Path 407"><path class="cls-5" d="M651.19,389.9V358.76l155.9-53.42v11.3L791.81,322l-.88.31v16l-16,5.79V328l-1.77.63-21.52,7.6-.89.31v16l-16,5.79V342.23l-1.78.63L708,351.65l-.88.32v15L691,372.75V357.63l-1.77.63-21.15,7.47-.89.31V384.1Z"/><path class="cls-5" d="M805.76,307.21,652.52,359.72V388l13.38-4.83V365.1l1.78-.63L688.83,357l3.54-1.25v15.1L705.75,366V351l1.78-.63,24.91-8.8,3.55-1.25v16.14l13.38-4.83v-16l1.77-.63,21.53-7.6,3.55-1.25v16.07l13.38-4.83v-16l1.77-.62,14.39-5.09v-8.49m2.66-3.73v14.1l-16.16,5.72v15.95L773.55,346V329.9L752,337.5v16l-18.71,6.75V344.11l-24.9,8.8v15l-18.71,6.75V359.51L668.56,367V385l-18.7,6.75v-34Z"/></g><path id="Path_408" data-name="Path 408" class="cls-5" d="M781.7,250.49,648,287,207.28,171.62l120.56-32.48Z"/><path id="Path_409" data-name="Path 409" class="cls-6" d="M524.6,215.89l-14,3.83-46.19-12.09L477,204Z"/><path id="Path_410" data-name="Path 410" class="cls-6" d="M464.39,200.14l-14,3.82-46.19-12.07,12.64-3.66Z"/><path id="Path_411" data-name="Path 411" class="cls-6" d="M403.51,184.4l-14,3.82-46.2-12.09,12.64-3.65Z"/><path id="Path_412" data-name="Path 412" class="cls-6" d="M343.3,168.66l-14,3.82L283.1,160.39l12.63-3.66Z"/><path id="Path_413" data-name="Path 413" class="cls-6" d="M584.8,231.29l-14,3.82L524.59,223l12.64-3.65Z"/><path id="Path_414" data-name="Path 414" class="cls-6" d="M645.88,247.33l-14,3.82-46.2-12.09,12.64-3.65Z"/><path id="Path_415" data-name="Path 415" class="cls-6" d="M706.09,264l-14,3.82-46.19-12.09,12.64-3.65Z"/><g id="Group_268" data-name="Group 268"><path id="Path_416" data-name="Path 416" class="cls-5" d="M179.26,222l470.6,115.1v3.1l-470.6-115.1Z"/><path id="Path_417" data-name="Path 417" class="cls-5" d="M179.26,230.07l470.6,115.1v3.09l-470.6-115.1Z"/><rect id="Rectangle_47" data-name="Rectangle 47" class="cls-5" x="612.73" y="329.15" width="2.3" height="28.62"/><rect id="Rectangle_48" data-name="Rectangle 48" class="cls-5" x="545.36" y="312.36" width="2.3" height="28.62"/><rect id="Rectangle_49" data-name="Rectangle 49" class="cls-5" x="475.54" y="295.4" width="2.3" height="28.62"/><rect id="Rectangle_50" data-name="Rectangle 50" class="cls-5" x="407.49" y="279.19" width="2.3" height="28.62"/><rect id="Rectangle_51" data-name="Rectangle 51" class="cls-5" x="337.82" y="263.08" width="2.3" height="28.62"/><rect id="Rectangle_52" data-name="Rectangle 52" class="cls-5" x="269" y="246.11" width="2.3" height="28.62"/><rect id="Rectangle_53" data-name="Rectangle 53" class="cls-5" x="199.59" y="230.07" width="2.3" height="28.62"/></g></g></g></g></g></g><circle id="Ellipse_8-2" data-name="Ellipse 8-2" class="cls-9" cx="381.62" cy="370.01" r="352.04"/></g></svg>