<svg id="Layer_1" data-name="Layer 1" xmlns="http://www.w3.org/2000/svg" xmlns:xlink="http://www.w3.org/1999/xlink" viewBox="0 0 750 750"><defs><style>.cls-1,.cls-9{fill:none;}.cls-2{clip-path:url(#clip-path);}.cls-3{fill:#5b5b5b;stroke:#848484;}.cls-3,.cls-6,.cls-9{stroke-miterlimit:10;}.cls-4,.cls-6{fill:#ffd900;}.cls-5{fill:#fff;}.cls-6{stroke:#fff;stroke-width:0.3px;}.cls-7{fill:#85b7ff;}.cls-8{fill:#888;stroke:#4c4c4c;stroke-linejoin:round;stroke-width:0.57px;}.cls-9{stroke:#0055ec;stroke-width:5.67px;}</style><clipPath id="clip-path"><circle class="cls-1" cx="376.44" cy="375" r="351.05"/></clipPath></defs><g id="Group_341" data-name="Group 341"><g class="cls-2"><g id="Group_340" data-name="Group 340"><g id="Group_339" data-name="Group 339"><path id="Path_578" data-name="Path 578" class="cls-3" d="M586.57,596.46l-14.92-7.53-.72-537.69,14.92,6.95Z"/><g id="Group_328" data-name="Group 328"><g id="Path_579" data-name="Path 579"><path class="cls-4" d="M558.93,601.07l-30.64-16.76v-7.95l30.64,16.76Z"/><path class="cls-5" d="M558.53,600.39v-7L528.69,577v7l29.84,16.32m.8,1.35-31.44-17.19v-8.86l31.44,17.19Z"/></g><g id="Path_580" data-name="Path 580"><path class="cls-4" d="M559.37,592.45,529,575.82,539.83,573l30.43,15.84Z"/><path class="cls-5" d="M559.41,592l9.83-3.25-29.46-15.32L530,576l29.37,16m-.08.87-31.44-17.19,12-3.1,31.41,16.34Z"/></g></g><g id="Path_581" data-name="Path 581"><path class="cls-4" d="M573.91,600.48,559.79,593l11.46-3.61,14.3,7Z"/><path class="cls-5" d="M574,600.05l10.57-3.71-13.3-6.55-10.4,3.28,13.13,7m-.07.87-15.12-8,12.53-4,15.28,7.53Z"/></g><g id="Group_329" data-name="Group 329"><g id="Path_582" data-name="Path 582"><path class="cls-4" d="M373.76,679.85l-14.06-7.07,33.39-10.58,14.06,7.07Z"/><path class="cls-5" d="M393.06,662.63l-32.3,10.23,13,6.56,32.3-10.24-13-6.55m.06-.86,15.09,7.58-34.48,10.93-15.09-7.58Z"/></g><g id="Path_583" data-name="Path 583"><path class="cls-4" d="M374.13,689.35v-8.78l33.68-10.67v8.77Z"/><path class="cls-5" d="M407.41,670.44l-32.88,10.42v7.94l32.88-10.42v-7.94m.8-1.09V679l-34.48,10.93v-9.61Z"/></g><g id="Path_584" data-name="Path 584"><path class="cls-4" d="M373.33,689.25,359,682.17v-8.73l14.29,7.09Z"/><path class="cls-5" d="M372.93,688.61v-7.83l-13.49-6.69v7.83l13.49,6.69m.8,1.28-15.09-7.48V672.8l15.09,7.48Z"/></g></g><g id="Group_330" data-name="Group 330"><g id="Path_585" data-name="Path 585"><path class="cls-4" d="M346.29,684.83l-30.64-16.75v-8l30.64,16.76Z"/><path class="cls-5" d="M345.89,684.16v-7L316.05,660.8v7l29.84,16.32m.8,1.35-31.44-17.19v-8.86l31.44,17.19Z"/></g><g id="Path_586" data-name="Path 586"><path class="cls-4" d="M346.74,676.22l-30.41-16.63,10.85-2.81,30.42,16.64Z"/><path class="cls-5" d="M346.79,675.8l9.73-2.52-29.39-16.07-9.73,2.52,29.39,16.07m-.1.85-31.44-17.19,12-3.1,31.44,17.19Z"/></g></g><g id="Group_331" data-name="Group 331"><g id="Path_587" data-name="Path 587"><path class="cls-4" d="M392.28,710.06l-30.64-16.75v-7.95l30.64,16.75Z"/><path class="cls-5" d="M391.88,709.39v-7L362,686v7l29.84,16.32m.8,1.35-31.44-17.2v-8.85l31.44,17.19Z"/></g><path id="Path_588" data-name="Path 588" class="cls-6" d="M373.48,680.15l32.13,17-12.93,4.45-31.44-17.2"/><path id="Path_589" data-name="Path 589" class="cls-6" d="M405.62,697.34v8.95l-12.94,4.44v-9.19"/></g><g id="Group_332" data-name="Group 332"><g id="Path_590" data-name="Path 590"><path class="cls-4" d="M326.79,694.86l-14.06-7.07,33.39-10.59,14.07,7.07Z"/><path class="cls-5" d="M346.09,677.63l-32.3,10.24,13,6.56,32.3-10.24-13-6.56m.07-.86,15.08,7.59-34.48,10.93-15.09-7.59Z"/></g><g id="Path_591" data-name="Path 591"><path class="cls-4" d="M327.16,704.35v-8.77l33.68-10.68v8.78Z"/><path class="cls-5" d="M360.44,685.45l-32.88,10.42v7.94l32.88-10.42v-7.94m.8-1.09V694L326.76,704.9v-9.61Z"/></g><g id="Path_592" data-name="Path 592"><path class="cls-4" d="M326.36,704.25l-14.29-7.08v-8.72l14.29,7.08Z"/><path class="cls-5" d="M326,703.61v-7.83l-13.49-6.69v7.83L326,703.61m.8,1.29-15.09-7.48V687.8l15.09,7.49Z"/></g></g><g id="Group_333" data-name="Group 333"><g id="Path_593" data-name="Path 593"><path class="cls-4" d="M586.41,596.08,572.34,589l33.39-10.58,14.07,7.07Z"/><path class="cls-5" d="M605.7,578.86,573.4,589.1l13,6.55,32.3-10.23-13-6.56m.07-.86,15.08,7.58-34.48,10.93-15.08-7.58Z"/></g><g id="Path_594" data-name="Path 594"><path class="cls-4" d="M586.77,605.58V596.8l33.68-10.67v8.77Z"/><path class="cls-5" d="M620.06,586.67,587.17,597.1V605l32.89-10.42v-7.94m.79-1.09v9.62l-34.48,10.92v-9.61Z"/></g></g><g id="Group_334" data-name="Group 334"><g id="Path_595" data-name="Path 595"><path class="cls-4" d="M604.92,626.3l-30.64-16.76v-7.95l30.64,16.76Z"/><path class="cls-5" d="M604.52,625.62v-7l-29.84-16.32v7l29.84,16.32m.8,1.35-31.44-17.19v-8.86l31.44,17.19Z"/></g><path id="Path_596" data-name="Path 596" class="cls-6" d="M586.12,596.38l32.14,17-12.94,4.45-31.43-17.19"/><path id="Path_597" data-name="Path 597" class="cls-6" d="M618.26,613.57v8.95L605.32,627v-9.18"/></g><g id="Group_335" data-name="Group 335"><g id="Path_598" data-name="Path 598"><path class="cls-4" d="M539.43,611.09,525.37,604l33.39-10.59,14.07,7.07Z"/><path class="cls-5" d="M558.73,593.86l-32.3,10.24,13,6.56,32.3-10.24-13-6.56m.07-.86,15.08,7.59L539.4,611.52l-15.08-7.59Z"/></g><g id="Path_599" data-name="Path 599"><path class="cls-4" d="M539.8,620.58v-8.77l33.68-10.68v8.78Z"/><path class="cls-5" d="M573.08,601.68,540.2,612.1V620l32.88-10.42v-7.94m.8-1.09v9.61L539.4,621.13v-9.61Z"/></g><g id="Path_600" data-name="Path 600"><path class="cls-4" d="M539,620.48l-14.29-7.08v-8.72L539,611.76Z"/><path class="cls-5" d="M538.6,619.84V612l-13.49-6.69v7.83l13.49,6.69m.8,1.29-15.08-7.48V604l15.08,7.49Z"/></g></g><g id="Group_336" data-name="Group 336"><g id="Path_601" data-name="Path 601"><path class="cls-4" d="M166.64,604.61,136,587.85v-8l30.64,16.76Z"/><path class="cls-7" d="M166.24,603.93v-7L136.4,580.57v7l29.84,16.32m.8,1.35L135.6,588.09v-8.86L167,596.42Z"/></g><g id="Path_602" data-name="Path 602"><path class="cls-4" d="M167.09,596l-30.42-16.63,10.86-2.81L178,593.18Z"/><path class="cls-7" d="M167.14,595.57l9.73-2.52L147.48,577l-9.73,2.51,29.39,16.08m-.1.85L135.6,579.23l12-3.1L179,593.32Z"/></g></g><path id="Path_603" data-name="Path 603" class="cls-3" d="M182.87,592.6l-16.37,3.78V36.08L182.87,32Z"/><path id="Path_604" data-name="Path 604" class="cls-8" d="M585.85,472.52,361.67,552.34,167.09,450.11,394.85,373Z"/><path id="Path_605" data-name="Path 605" class="cls-8" d="M585.85,368.13,361.67,448,167.09,345.72,394.85,268.6Z"/><path id="Path_606" data-name="Path 606" class="cls-8" d="M585.85,266.87,361.67,346.69,167.09,244.46l227.76-77.12Z"/><path id="Path_607" data-name="Path 607" class="cls-8" d="M585.85,162.48,361.67,242.29,167.08,140.06,394.85,63Z"/><path id="Path_608" data-name="Path 608" class="cls-8" d="M585.85,58.09,361.67,137.91,167.08,35.67,394.85-41.45Z"/><path id="Path_609" data-name="Path 609" class="cls-8" d="M373.48,680.15l-11.81,4.21V137.9l14.8-5.05Z"/><path id="Path_610" data-name="Path 610" class="cls-8" d="M586.57,596.46l-12.69,3.89-.72-537.69,12.69-4.47Z"/><path id="Path_611" data-name="Path 611" class="cls-8" d="M361.67,684.7l-14.79-7.77V130.13l14.79,7.77Z"/><g id="Group_338" data-name="Group 338"><g id="Path_612" data-name="Path 612"><path class="cls-4" d="M147.14,614.63l-14.06-7.07L166.47,597,180.53,604Z"/><path class="cls-5" d="M166.43,597.4l-32.3,10.24,13.05,6.56L179.48,604l-13-6.56m.07-.86,15.09,7.59-34.48,10.93L132,607.47Z"/></g><g id="Path_613" data-name="Path 613"><path class="cls-4" d="M147.51,624.12v-8.77l33.68-10.68v8.78Z"/><path class="cls-5" d="M180.79,605.22l-32.88,10.42v7.94l32.88-10.42v-7.94m.8-1.09v9.61l-34.48,10.93v-9.61Z"/></g><g id="Path_614" data-name="Path 614"><path class="cls-4" d="M146.71,624l-14.29-7.09v-8.72l14.29,7.08Z"/><path class="cls-5" d="M146.31,623.38v-7.83l-13.49-6.69v7.83l13.49,6.69m.8,1.29L132,617.19v-9.61l15.09,7.48Z"/></g></g><path id="Path_615" data-name="Path 615" class="cls-8" d="M182,601l-15.88-8V33L182,40.61Z"/></g></g></g></g><circle id="Ellipse_8-2" data-name="Ellipse 8-2" class="cls-9" cx="376.44" cy="375" r="351.05"/></svg>