<svg id="Layer_1" data-name="Layer 1" xmlns="http://www.w3.org/2000/svg" xmlns:xlink="http://www.w3.org/1999/xlink" viewBox="0 0 750 750"><defs><style>.cls-1,.cls-11,.cls-5{fill:none;}.cls-2{clip-path:url(#clip-path);}.cls-3,.cls-6{fill:#888;}.cls-4{fill:#4c4c4c;}.cls-5,.cls-7{stroke:#848484;stroke-linecap:round;stroke-width:1px;}.cls-5,.cls-6,.cls-7{stroke-linejoin:round;}.cls-6{stroke:#4c4c4c;stroke-width:0.57px;}.cls-7{fill:#5b5b5b;}.cls-8{fill:#ffd900;}.cls-9{fill:#fff;}.cls-10{fill:#aaa;}.cls-11{stroke:#0055ec;stroke-miterlimit:10;stroke-width:5.67px;}</style><clipPath id="clip-path"><circle class="cls-1" cx="375" cy="361.98" r="344.01"/></clipPath></defs><g id="Group_358" data-name="Group 358"><g id="Group_357" data-name="Group 357"><g class="cls-2"><g id="Group_356" data-name="Group 356"><g id="Group_355" data-name="Group 355"><g id="Path_616" data-name="Path 616"><path class="cls-3" d="M196.38,581.61l-12.91-6.48,44.07-14.25,12.9,6.48Z"/><path class="cls-4" d="M227.48,561.67l-42.06,13.61,11,5.54,42.06-13.6-11-5.55m.12-1.59,14.78,7.43-46.06,14.9L181.53,575Z"/></g><g id="Group_343" data-name="Group 343"><line id="Line_40" data-name="Line 40" class="cls-5" x1="227.6" y1="560.08" x2="242.38" y2="567.51"/><path id="Path_617" data-name="Path 617" class="cls-6" d="M242.38,576.93,196.2,591.69v-9.42l46.18-14.76Z"/></g><g id="Path_618" data-name="Path 618"><path class="cls-3" d="M580.18,577.8,567,571.16l-.71-525.29L579.48,52Z"/><path class="cls-4" d="M579.44,576.6l-.7-524.14L567.07,47l.7,523.68,11.67,5.89m1.48,2.4-14.62-7.38-.71-526.91,14.63,6.81Z"/></g><g id="Group_344" data-name="Group 344"><g id="Path_619" data-name="Path 619"><path class="cls-3" d="M553.49,582.93l-29.33-16v-7l29.33,16Z"/><path class="cls-4" d="M552.75,581.68v-5.31L524.9,561.14v5.31l27.85,15.23m1.48,2.49-30.81-16.84v-8.69l30.81,16.85Z"/></g><g id="Path_620" data-name="Path 620"><path class="cls-3" d="M554.3,574.69l-28.89-15.8,9.66-2.5,29,15.08Z"/><path class="cls-4" d="M554.37,573.89l7.78-2.58L535,557.18l-7.58,2,27,14.75m-.14,1.6-30.81-16.85,11.74-3,30.78,16Z"/></g></g><g id="Path_621" data-name="Path 621"><path class="cls-3" d="M568.55,582.56l-13-6.89,10.31-3.26L579,578.89Z"/><path class="cls-4" d="M568.61,581.76l8.5-3-11.29-5.56-8.35,2.63,11.14,5.92m-.12,1.61-14.82-7.88,12.27-3.87,15,7.38Z"/></g><g id="Group_345" data-name="Group 345"><g id="Path_622" data-name="Path 622"><path class="cls-3" d="M372.41,660.34l-12.89-6.48,31.77-10.07,12.89,6.48Z"/><path class="cls-4" d="M391.23,644.59,361.47,654l11,5.53,29.76-9.43-11-5.53m.12-1.59,14.79,7.43-33.79,10.71-14.79-7.43Z"/></g><g id="Path_623" data-name="Path 623"><path class="cls-3" d="M373.08,669.55v-7.87l32.31-10.24v7.87Z"/><path class="cls-4" d="M404.66,652.45l-30.84,9.77v6.32l30.84-9.77v-6.32m1.47-2v9.42l-33.79,10.71v-9.42Z"/></g><path id="Path_624" data-name="Path 624" class="cls-7" d="M357.57,663.23l14.78,7.33v-9.42l-14.78-7.33Z"/></g><g id="Group_346" data-name="Group 346"><g id="Path_625" data-name="Path 625"><path class="cls-3" d="M345.11,665l-29.33-16v-7l29.33,16Z"/><path class="cls-4" d="M344.37,663.77v-5.31l-27.85-15.23v5.31l27.85,15.23m1.48,2.49L315,649.41v-8.68l30.81,16.85Z"/></g><g id="Path_626" data-name="Path 626"><path class="cls-3" d="M346,656.79,317,641l9.66-2.5L355.6,654.3Z"/><path class="cls-4" d="M346.05,656l7.56-2-27-14.78-7.56,2,27,14.77m-.2,1.58L315,640.73l11.74-3,30.81,16.84Z"/></g></g><g id="Group_347" data-name="Group 347"><g id="Path_627" data-name="Path 627"><path class="cls-3" d="M390.18,689.74l-29.33-16v-7l29.33,16Z"/><path class="cls-4" d="M389.44,688.49v-5.31L361.59,668v5.31l27.85,15.23m1.48,2.49-30.81-16.84v-8.68l30.81,16.84Z"/></g><path id="Path_628" data-name="Path 628" class="cls-6" d="M372.1,661l31.49,16.61L390.92,682l-30.81-16.85"/><path id="Path_629" data-name="Path 629" class="cls-6" d="M403.59,677.86v8.77L390.92,691v-9"/></g><g id="Group_348" data-name="Group 348"><g id="Path_630" data-name="Path 630"><path class="cls-3" d="M326.38,675.05l-12.89-6.48,31.77-10.07L358.15,665Z"/><path class="cls-4" d="M345.2,659.29l-29.75,9.43,11,5.53,29.75-9.43-11-5.53m.13-1.59,14.78,7.44-33.79,10.7-14.78-7.43Z"/></g><g id="Path_631" data-name="Path 631"><path class="cls-3" d="M327.06,684.24v-7.85l32.31-10.25v7.46Z"/><path class="cls-4" d="M358.63,667.15l-30.83,9.78v6.29l30.83-10.15v-5.92m1.48-2v9l-33.79,11.12v-9.42Z"/></g><g id="Path_632" data-name="Path 632"><path class="cls-3" d="M325.58,684.07l-13.3-6.6V669.7l13.3,6.6Z"/><path class="cls-4" d="M324.84,682.88v-6.12L313,670.9V677l11.83,5.87m1.48,2.38-14.78-7.33v-9.42l14.78,7.33Z"/></g></g><g id="Group_349" data-name="Group 349"><g id="Path_633" data-name="Path 633"><path class="cls-3" d="M580.79,578.26l-12.89-6.49,31.77-10.06,12.89,6.48Z"/><path class="cls-4" d="M599.6,562.5l-29.75,9.43,11,5.53L610.6,568l-11-5.53m.13-1.59,14.78,7.43-33.79,10.71-14.78-7.43Z"/></g><g id="Path_634" data-name="Path 634"><path class="cls-3" d="M581.46,587.46v-7.87l32.31-10.24v7.87Z"/><path class="cls-4" d="M613,570.36l-30.83,9.77v6.32L613,576.68v-6.32m1.48-2v9.42l-33.79,10.71v-9.42Z"/></g></g><g id="Group_350" data-name="Group 350"><g id="Path_635" data-name="Path 635"><path class="cls-3" d="M598.56,607.65l-29.34-16v-7l29.34,16Z"/><path class="cls-4" d="M597.82,606.4v-5.31L570,585.86v5.31l27.86,15.23m1.47,2.5-30.8-16.85v-8.68l30.8,16.85Z"/></g><path id="Path_636" data-name="Path 636" class="cls-6" d="M580.47,578.92,612,595.53l-12.68,4.36L568.49,583"/><path id="Path_637" data-name="Path 637" class="cls-6" d="M612,595.77v8.76l-12.67,4.36v-9"/></g><g id="Group_351" data-name="Group 351"><g id="Path_638" data-name="Path 638"><path class="cls-3" d="M534.76,593l-12.89-6.48,31.77-10.07,12.89,6.48Z"/><path class="cls-4" d="M553.58,577.2l-29.76,9.43,11,5.53,29.76-9.43-11-5.53m.12-1.59,14.79,7.44-33.79,10.7-14.79-7.43Z"/></g><g id="Path_639" data-name="Path 639"><path class="cls-3" d="M535.44,602.16v-7.87l32.31-10.24v7.87Z"/><path class="cls-4" d="M567,585.06l-30.84,9.78v6.31L567,591.38v-6.32m1.48-2v9.42L534.7,603.17v-9.42Z"/></g><g id="Path_640" data-name="Path 640"><path class="cls-3" d="M534,602l-13.31-6.6v-7.77l13.31,6.6Z"/><path class="cls-4" d="M533.22,600.79v-6.12l-11.83-5.86v6.11l11.83,5.87m1.48,2.38-14.79-7.33v-9.42l14.79,7.33Z"/></g></g><g id="Group_352" data-name="Group 352"><path id="Path_641" data-name="Path 641" class="cls-6" d="M169.8,587.64,139,570.79v-8.68L169.8,579Z"/><path id="Path_642" data-name="Path 642" class="cls-6" d="M169.8,579,139,562.11l11.74-3,30.81,16.85Z"/></g><g id="Group_353" data-name="Group 353"><path id="Path_643" data-name="Path 643" class="cls-6" d="M215.05,612.3l-30.8-16.84v-8.69l30.8,16.85Z"/><path id="Path_644" data-name="Path 644" class="cls-6" d="M215.05,603.62l-30.8-16.85,11.71-4,30.81,16.85Z"/></g><path id="Path_645" data-name="Path 645" class="cls-6" d="M184.46,574.23l-15.19,4.69V29.85l15.19-5Z"/><g id="Path_646" data-name="Path 646"><path class="cls-8" d="M360.59,640.3,171.71,541.08,393,466.16l185.39,96.61Z"/><path class="cls-9" d="M360.64,639.5l215.89-76.86L392.92,467,173.58,541.23,360.64,639.5m-.11,1.61L169.84,540.93,393,465.36,580.22,562.9Z"/></g><g id="Path_647" data-name="Path 647"><path class="cls-10" d="M360.63,537.39,173.14,438.9l219.79-74.42,184,95.9Z"/><path class="cls-4" d="M360.73,536l213-75.82L392.83,365.89,176.44,439.16,360.73,536m-.2,2.84L169.84,438.64,393,363.07l187.18,97.54Z"/></g><g id="Path_648" data-name="Path 648"><path class="cls-10" d="M360.63,435.1,173.14,336.6l219.79-74.41,184,95.9Z"/><path class="cls-4" d="M360.73,433.68l213-75.82L392.83,263.6,176.44,336.86l184.29,96.82m-.2,2.84L169.84,336.34,393,260.77l187.18,97.54Z"/></g><g id="Path_649" data-name="Path 649"><path class="cls-10" d="M360.63,332.8,173.14,234.31l219.79-74.42,184,95.9Z"/><path class="cls-4" d="M360.73,331.38l213-75.82L392.83,161.3,176.44,234.57l184.29,96.81m-.2,2.84L169.84,234.05,393,158.48,580.22,256Z"/></g><g id="Path_650" data-name="Path 650"><path class="cls-10" d="M360.63,230.51,173.14,132,392.93,57.59,577,153.5Z"/><path class="cls-4" d="M360.73,229.09l213-75.82L392.83,59,176.44,132.27l184.29,96.82m-.2,2.84L169.84,131.75,393,56.18l187.18,97.54Z"/></g><g id="Path_651" data-name="Path 651"><path class="cls-10" d="M360.63,128.21,173.14,29.72,392.93-44.7,577,51.2Z"/><path class="cls-4" d="M360.73,126.79,573.71,51,392.83-43.29,176.44,30l184.29,96.81m-.2,2.84L169.84,29.46,393-46.11,580.22,51.43Z"/></g><g id="Path_652" data-name="Path 652"><path class="cls-3" d="M361.27,664.09V130.16l13-4.44-2.92,534.77Z"/><path class="cls-4" d="M362,663l8.61-3.07,2.92-533.21L362,130.69V663m-1.48,2.1V129.63l14.5-4.94L372.1,661Z"/></g><g id="Path_653" data-name="Path 653"><path class="cls-3" d="M569.23,581.81l-.71-525.39,11-3.86.7,525.9Z"/><path class="cls-4" d="M570,580.81l9.48-2.9-.7-524.31-9.48,3.34.7,523.87m-1.47,2L567.78,55.9l12.44-4.38.7,527.48Z"/></g><g id="Path_654" data-name="Path 654"><path class="cls-3" d="M359.79,664.27l-13.73-7,.71-534,13,6.84Z"/><path class="cls-4" d="M359.05,663.06V130.53l-11.54-6.07L346.8,656.8l12.25,6.26m1.48,2.41-15.21-7.77L346,122l14.5,7.61Z"/></g><g id="Group_354" data-name="Group 354"><path id="Path_655" data-name="Path 655" class="cls-6" d="M184.06,586.51l-33.79,10.71-14.79-7.43,33.79-10.71Z"/><path id="Path_656" data-name="Path 656" class="cls-6" d="M184.06,595.93l-33.79,10.71v-9.43l33.79-10.7Z"/><path id="Path_657" data-name="Path 657" class="cls-6" d="M135.48,599.3l14.79,7.33v-9.42l-14.79-7.33Z"/><path id="Path_658" data-name="Path 658" class="cls-6" d="M215,612.67l11.45-4.78.28-8.27-11.71,4Z"/></g><path id="Path_659" data-name="Path 659" class="cls-6" d="M196.32,582.41l-12.25,4.43-14.79-8.16L181.54,575"/><path id="Path_660" data-name="Path 660" class="cls-6" d="M184.44,586.51l-15.56-7.82V29.85l15.56,7.5Z"/></g></g></g></g><circle id="Ellipse_8-2" data-name="Ellipse 8-2" class="cls-11" cx="375" cy="361.98" r="344.01"/></g></svg>