<svg id="Layer_1" data-name="Layer 1" xmlns="http://www.w3.org/2000/svg" xmlns:xlink="http://www.w3.org/1999/xlink" viewBox="0 0 750 750"><defs><style>.cls-1,.cls-2{fill:none;}.cls-2{stroke:#0055ec;stroke-width:5.67px;}.cls-2,.cls-8{stroke-miterlimit:10;}.cls-3{clip-path:url(#clip-path);}.cls-4{fill:#ffd900;}.cls-5{fill:#85b7ff;}.cls-6{fill:#aaa;}.cls-7{fill:#4c4c4c;}.cls-8{fill:#5b5b5b;stroke:#848484;}.cls-9{fill:#fff;}.cls-10{fill:#7c7c7c;}.cls-11{clip-path:url(#clip-path-2);}</style><clipPath id="clip-path"><circle class="cls-1" cx="375" cy="368.11" r="352.04"/></clipPath><clipPath id="clip-path-2"><path class="cls-1" d="M687.62,317,252.27,65.44l-3.49-.84a79.72,79.72,0,0,0-44,1.93l-7.85,2.63-90.7,52.36,436.16,252L620,328.74"/></clipPath></defs><g id="Group_387" data-name="Group 387"><circle id="Ellipse_8-2" data-name="Ellipse 8-2" class="cls-2" cx="375" cy="368.11" r="352.04"/><g id="Group_386" data-name="Group 386"><g class="cls-3"><g id="Group_385" data-name="Group 385"><g id="Path_661" data-name="Path 661"><path class="cls-4" d="M461.66,639.32,31.29,390.66,284.53,244.45,714.9,493.11Z"/><path class="cls-5" d="M461.66,638.46,713.42,493.11,284.53,245.31,32.77,390.66l428.89,247.8m0,1.71L29.81,390.66,284.53,243.59,716.38,493.11Z"/></g><g id="Group_384" data-name="Group 384"><g id="Path_662" data-name="Path 662"><path class="cls-6" d="M460.43,637.91V532.65A179.92,179.92,0,0,1,467,486.08a223.36,223.36,0,0,1,17.79-45.37,200.15,200.15,0,0,1,26.31-38.89c10.17-11.63,20.93-20.77,32-27.16l90.7-52.36c11.19-6.46,22-9.74,32.21-9.74a41.25,41.25,0,0,1,19.74,4.83,45.33,45.33,0,0,1,15.5,14c9.08,12.76,13.87,31,13.87,52.75V490.88l-18.8,10.69-2.64-1.52-.65-.38-.65.38-86.55,50-.65.38v3.91l-32.24,18.53-1.91-1.7-.7-.62-.82.47-87.23,50.44-.65.38v.76l0,3.06Z"/><path class="cls-7" d="M461.73,635.65l18.56-10.72,0-2.3v-1.52l1.32-.76,87.23-50.44,1.63-.94,1.41,1.25,1.2,1.07,30.77-17.68V549.7l1.31-.76,86.54-50,1.31-.76,1.31.76,2,1.15,17.49-9.95v-106c0-21.47-4.72-39.45-13.63-52-8.5-11.95-20.32-18.26-34.18-18.26-10,0-20.57,3.21-31.55,9.56L543.7,375.79c-10.94,6.32-21.6,15.37-31.67,26.89a198.75,198.75,0,0,0-26.13,38.64,221.32,221.32,0,0,0-17.69,45.1,178.67,178.67,0,0,0-6.48,46.23v103m-2.61,4.52V532.65c0-61.07,37.48-132.68,83.28-159.12l90.7-52.37c11.65-6.72,22.77-9.91,32.86-9.91,29.59,0,50.42,27.34,50.42,72.87V491.64l-20.11,11.44-3.29-1.9-86.55,50v3.92l-33.72,19.37-2.61-2.32-87.22,50.44,0,3.82Z"/></g><g id="Path_663" data-name="Path 663"><path class="cls-6" d="M24.27,385.9V280.64a179.91,179.91,0,0,1,6.52-46.56,223.14,223.14,0,0,1,17.79-45.37,199.41,199.41,0,0,1,26.31-38.89c10.16-11.64,20.93-20.77,32-27.16l90.7-52.37c11.19-6.46,22-9.73,32.21-9.73a41.36,41.36,0,0,1,19.74,4.82,45.42,45.42,0,0,1,15.5,14c9.07,12.77,13.87,31,13.87,52.76V238.88Z"/><path class="cls-7" d="M25.57,383.64l252-145.51v-106c0-21.48-4.71-39.46-13.63-52-8.49-11.94-20.31-18.26-34.17-18.26-10,0-20.57,3.22-31.56,9.56l-90.7,52.37c-10.94,6.32-21.6,15.36-31.67,26.89a197.92,197.92,0,0,0-26.13,38.63,221.4,221.4,0,0,0-17.69,45.11,178.6,178.6,0,0,0-6.48,46.22v103M23,388.16V280.64C23,219.57,60.43,148,106.24,121.53l90.7-52.37c11.65-6.73,22.77-9.91,32.86-9.91,29.59,0,50.42,27.33,50.42,72.87V239.64Z"/></g><path id="Path_664" data-name="Path 664" class="cls-8" d="M687.62,317,252.27,65.44l-21.93-6.19-33.4,9.91-90.7,52.36,436.16,252L620,328.75l28.07-12a44.15,44.15,0,0,1,26.56-2.58Z"/><g id="Group_360" data-name="Group 360"><path id="Path_665" data-name="Path 665" class="cls-9" d="M693.66,500.76,606.43,551.2V450.6l87.23-50.37Z"/><path id="Path_666" data-name="Path 666" class="cls-10" d="M696.27,398.68v104.4l-3.29-1.9V400.58Z"/><g id="Group_359" data-name="Group 359"><g id="Path_667" data-name="Path 667"><path class="cls-6" d="M607.74,480.73h0l4.75-2.75Z"/><path class="cls-7" d="M693,430v3l-86.55,50v-3Z"/></g><g id="Path_668" data-name="Path 668"><path class="cls-6" d="M607.74,490.53h0l4.72-2.72Z"/><path class="cls-7" d="M693,439.78v3l-86.55,50v-3Z"/></g><g id="Path_669" data-name="Path 669"><path class="cls-6" d="M607.74,500.34h0l4.15-2.39Z"/><path class="cls-7" d="M693,449.59v3l-86.55,50v-3Z"/></g><g id="Path_670" data-name="Path 670"><path class="cls-6" d="M607.74,461.11h0l4.2-2.43Z"/><path class="cls-7" d="M693,410.36v3l-86.55,50v-3Z"/></g><g id="Path_671" data-name="Path 671"><path class="cls-6" d="M607.74,470.92h0l4.17-2.41Z"/><path class="cls-7" d="M693,420.16v3l-86.55,50v-3Z"/></g><g id="Path_672" data-name="Path 672"><path class="cls-6" d="M607.74,510.15h0l4.53-2.62Z"/><path class="cls-7" d="M693,459.4v3l-86.55,50v-3Z"/></g><g id="Path_673" data-name="Path 673"><path class="cls-6" d="M607.74,520h0l4.5-2.6Z"/><path class="cls-7" d="M693,469.21v3l-86.55,50v-3Z"/></g><g id="Path_674" data-name="Path 674"><path class="cls-6" d="M607.74,529.77h0l4-2.34Z"/><path class="cls-7" d="M693,479v3l-86.55,50v-3Z"/></g><g id="Path_675" data-name="Path 675"><path class="cls-6" d="M607.74,539.57h0l4-2.3Z"/><path class="cls-7" d="M693,488.82v3l-86.55,50v-3Z"/></g></g></g><g id="Group_362" data-name="Group 362"><path id="Path_676" data-name="Path 676" class="cls-9" d="M570.11,572.17l-87.22,50.44V522l87.23-50.37Z"/><path id="Path_677" data-name="Path 677" class="cls-10" d="M572.73,470.09v104.4l-3.29-1.9V472Z"/><g id="Group_361" data-name="Group 361"><g id="Path_678" data-name="Path 678"><path class="cls-6" d="M484.19,552.14h0l4.8-2.77Z"/><path class="cls-7" d="M569.43,501.38v3l-86.54,50v-3Z"/></g><g id="Path_679" data-name="Path 679"><path class="cls-6" d="M484.19,561.94h0l5-2.87Z"/><path class="cls-7" d="M569.43,511.19v3l-86.54,50v-3Z"/></g><g id="Path_680" data-name="Path 680"><path class="cls-6" d="M484.19,571.75h0l3.54-2Z"/><path class="cls-7" d="M569.43,521v3l-86.54,50v-3Z"/></g><g id="Path_681" data-name="Path 681"><path class="cls-6" d="M484.19,532.52h0l4-2.31Z"/><path class="cls-7" d="M569.43,481.76v3l-86.54,50v-3Z"/></g><g id="Path_682" data-name="Path 682"><path class="cls-6" d="M484.19,542.33h0l5.36-3.1Z"/><path class="cls-7" d="M569.43,491.57v3l-86.54,50v-3Z"/></g><g id="Path_683" data-name="Path 683"><path class="cls-6" d="M484.19,581.56h0l5.11-2.95Z"/><path class="cls-7" d="M569.43,530.81v3l-86.54,50v-3Z"/></g><g id="Path_684" data-name="Path 684"><path class="cls-6" d="M484.19,591.37h0l4.37-2.53Z"/><path class="cls-7" d="M569.43,540.62v3l-86.54,50v-3Z"/></g><g id="Path_685" data-name="Path 685"><path class="cls-6" d="M484.19,601.17h0l6.86-4Z"/><path class="cls-7" d="M569.43,550.42v3l-86.54,50v-3Z"/></g><g id="Path_686" data-name="Path 686"><path class="cls-6" d="M484.19,611h0l6.18-3.56Z"/><path class="cls-7" d="M569.43,560.23v3l-86.54,50v-3Z"/></g></g></g><g id="Group_363" data-name="Group 363"><g id="Path_687" data-name="Path 687"><path class="cls-6" d="M563.74,429.71V389.06l37.08-21.41v40.66Z"/><path class="cls-7" d="M565.05,427.45l34.47-19.9V369.91l-34.47,19.9v37.64M562.44,432V388.31l39.69-22.92v43.67Z"/></g><path id="Path_688" data-name="Path 688" class="cls-9" d="M600.34,369.05v38.63l-36,20.75V389.8Z"/><g id="Path_689" data-name="Path 689"><path class="cls-6" d="M600.26,401v2.14l-36,21V421.8Z"/><path class="cls-7" d="M600.26,401v2.14l-36,21V421.8Z"/></g><g id="Path_690" data-name="Path 690"><path class="cls-6" d="M600.26,394.07v2.14l-36,20.75v-2.13Z"/><path class="cls-7" d="M600.26,394.07v2.14l-36,20.76v-2.14Z"/></g><g id="Path_691" data-name="Path 691"><path class="cls-6" d="M600.26,387.32v2.14l-36,20.76v-2.13Z"/><path class="cls-7" d="M600.26,387.32v2.14l-36,20.75v-2.13Z"/></g><g id="Path_692" data-name="Path 692"><path class="cls-6" d="M600.26,380.36v2.13l-36,20.75v-2.13Z"/><path class="cls-7" d="M600.26,380.35v2.14l-36,20.76v-2.14Z"/></g><g id="Path_693" data-name="Path 693"><path class="cls-6" d="M600.26,373.18v2.13l-36,20.76v-2.14Z"/><path class="cls-7" d="M600.26,373.18v2.13l-36,20.76v-2.13Z"/></g></g><g id="Group_383" data-name="Group 383"><g class="cls-11"><g id="Group_382" data-name="Group 382"><g id="Group_368" data-name="Group 368"><g id="Group_364" data-name="Group 364"><path id="Path_694" data-name="Path 694" class="cls-9" d="M510.18,354.84l90.7-52.36c19.83-11.45,38.09-12.62,52.44-5.32h0l.09,0A44.29,44.29,0,0,1,658,300l.58.35c-14.28-7.05-32.37-5.81-52,5.52l-90.7,52.37c-45.8,26.44-83.28,98.05-83.28,159.12V624.85l-5.71-3.37V514C426.9,452.89,464.38,381.29,510.18,354.84Z"/></g><g id="Group_365" data-name="Group 365"><path id="Path_695" data-name="Path 695" class="cls-9" d="M479.37,337.19l90.7-52.37c19.83-11.45,38.09-12.61,52.44-5.31h0l.09.05a41,41,0,0,1,4.59,2.76l.58.34c-14.28-7.05-32.37-5.8-52,5.53l-90.7,52.36c-45.8,26.45-83.28,98.05-83.28,159.13V607.2l-5.71-3.37V496.31C396.09,435.24,433.56,363.63,479.37,337.19Z"/></g><g id="Group_366" data-name="Group 366"><path id="Path_696" data-name="Path 696" class="cls-9" d="M447.52,318.84l90.7-52.37c19.83-11.45,38.1-12.61,52.44-5.31h0l.09,0a41,41,0,0,1,4.59,2.76l.58.35c-14.28-7.06-32.37-5.81-52,5.52L453.23,322.2C407.43,348.64,370,420.25,370,481.32V588.84l-5.71-3.36V478C364.24,416.89,401.72,345.28,447.52,318.84Z"/></g><g id="Group_367" data-name="Group 367"><path id="Path_697" data-name="Path 697" class="cls-9" d="M416.71,301.18l90.7-52.37c19.83-11.44,38.09-12.61,52.44-5.31h0l.09.05a42.6,42.6,0,0,1,4.59,2.76l.57.35c-14.27-7.06-32.36-5.81-52,5.52l-90.7,52.37c-45.8,26.44-83.28,98.05-83.28,159.12v99.49l-5.71-3.36V460.29C333.43,399.23,370.9,327.63,416.71,301.18Z"/></g></g><g id="Group_373" data-name="Group 373"><g id="Group_369" data-name="Group 369"><path id="Path_698" data-name="Path 698" class="cls-9" d="M386.59,283.53l90.7-52.37c19.83-11.45,38.09-12.62,52.44-5.32h0l.09.06a42.52,42.52,0,0,1,4.59,2.75l.58.35c-14.28-7.05-32.37-5.81-52,5.53l-90.7,52.36C346.51,313.34,309,384.94,309,446V553.53l-5.71-3.36V442.65C303.31,381.58,340.78,310,386.59,283.53Z"/></g><g id="Group_370" data-name="Group 370"><path id="Path_699" data-name="Path 699" class="cls-9" d="M355.78,265.86l90.69-52.36c19.83-11.45,38.09-12.61,52.44-5.31h0l.09.05A41,41,0,0,1,503.6,211l.58.34c-14.28-7.05-32.37-5.8-52,5.53l-90.7,52.36c-45.8,26.45-83.27,98-83.27,159.12V535.87l-5.72-3.36V425C272.49,363.92,310,292.31,355.78,265.86Z"/></g><g id="Group_371" data-name="Group 371"><path id="Path_700" data-name="Path 700" class="cls-9" d="M323.94,247.52l90.7-52.36c19.83-11.45,38.09-12.62,52.43-5.32h0l.09.06a43.52,43.52,0,0,1,4.59,2.75l.57.35c-14.27-7.06-32.36-5.81-52,5.52l-90.7,52.37c-45.82,26.44-83.31,98-83.31,159.11V517.52l-5.71-3.36V406.64C240.65,345.57,278.12,274,323.94,247.52Z"/></g><g id="Group_372" data-name="Group 372"><path id="Path_701" data-name="Path 701" class="cls-9" d="M293.12,229.87l90.7-52.37c19.83-11.45,38.09-12.61,52.43-5.32h0l.09.06A42,42,0,0,1,441,175l.57.34c-14.27-7.05-32.36-5.81-52,5.53l-90.7,52.36c-45.8,26.45-83.28,98-83.28,159.12V499.88l-5.71-3.37V389C209.84,327.91,247.32,256.31,293.12,229.87Z"/></g></g><g id="Group_378" data-name="Group 378"><g id="Group_374" data-name="Group 374"><path id="Path_702" data-name="Path 702" class="cls-9" d="M261.44,211.34,352.14,159c19.83-11.44,38.09-12.61,52.44-5.31h0l.09.05a41,41,0,0,1,4.59,2.76l.58.34c-14.28-7-32.37-5.8-52,5.53l-90.71,52.36c-45.81,26.44-83.28,98-83.28,159.12V481.34L178.16,478V370.45C178.16,309.39,215.64,237.79,261.44,211.34Z"/></g><g id="Group_375" data-name="Group 375"><path id="Path_703" data-name="Path 703" class="cls-9" d="M230.63,193.69l90.7-52.37c19.83-11.45,38.1-12.61,52.44-5.32h0l.09.06a41,41,0,0,1,4.59,2.76l.58.34c-14.28-7-32.36-5.81-52,5.53l-90.7,52.36c-45.8,26.44-83.27,98.05-83.27,159.12V463.69l-5.72-3.36V352.81C147.35,291.74,184.83,220.13,230.63,193.69Z"/></g><g id="Group_376" data-name="Group 376"><path id="Path_704" data-name="Path 704" class="cls-9" d="M198.78,175.34,289.48,123c19.83-11.44,38.09-12.61,52.44-5.31h0l.09,0a42.6,42.6,0,0,1,4.59,2.76l.58.35c-14.28-7.06-32.37-5.81-52,5.52l-90.7,52.37c-45.8,26.44-83.28,98-83.28,159.12V445.35L115.51,442V334.46C115.5,273.39,153,201.78,198.78,175.34Z"/></g><g id="Group_377" data-name="Group 377"><path id="Path_705" data-name="Path 705" class="cls-9" d="M168,157.68l90.7-52.36c19.84-11.45,38.1-12.62,52.44-5.32h0l.09.06a43.38,43.38,0,0,1,4.58,2.75l.58.35c-14.28-7-32.36-5.81-52,5.52l-90.7,52.37c-45.81,26.44-83.28,98.05-83.28,159.12V427.69l-5.71-3.36V316.81C84.69,255.73,122.16,184.13,168,157.68Z"/></g></g><g id="Group_381" data-name="Group 381"><g id="Group_379" data-name="Group 379"><path id="Path_706" data-name="Path 706" class="cls-9" d="M137.59,139.68l90.7-52.38c19.83-11.45,38.09-12.61,52.44-5.31h0l.09.05a41,41,0,0,1,4.59,2.76l.58.34c-14.28-7-32.37-5.8-52,5.53L143.3,143C97.5,169.49,60,241.09,60,302.16V409.68l-5.71-3.36V298.8C54.31,237.73,91.79,166.13,137.59,139.68Z"/></g><g id="Group_380" data-name="Group 380"><path id="Path_707" data-name="Path 707" class="cls-9" d="M106.78,122l90.7-52.37c19.83-11.45,38.09-12.62,52.44-5.32h0l.09.06a42.52,42.52,0,0,1,4.59,2.75l.58.35c-14.28-7-32.37-5.81-52,5.53l-90.71,52.36c-45.8,26.44-83.27,98-83.27,159.12V392l-5.72-3.37V281.14C23.5,220.07,61,148.47,106.78,122Z"/></g></g></g></g></g></g></g></g></g></g></svg>