<svg id="Layer_1" data-name="Layer 1" xmlns="http://www.w3.org/2000/svg" xmlns:xlink="http://www.w3.org/1999/xlink" viewBox="0 0 750 750"><defs><style>.cls-1,.cls-7{fill:none;}.cls-2{clip-path:url(#clip-path);}.cls-3{fill:#888;}.cls-4{fill:#fff;}.cls-5{clip-path:url(#clip-path-2);}.cls-6{fill:#ffd900;}.cls-7{stroke:#0055ec;stroke-miterlimit:10;stroke-width:5.67px;}</style><clipPath id="clip-path"><circle class="cls-1" cx="1248.6" cy="368.11" r="352.04"/></clipPath><clipPath id="clip-path-2"><circle class="cls-1" cx="377.66" cy="370.01" r="352.04"/></clipPath></defs><g id="Group_273" data-name="Group 273"><g id="Group_272" data-name="Group 272"><g class="cls-2"><g id="Group_271" data-name="Group 271"><g id="Group_270" data-name="Group 270"><g id="Group_258" data-name="Group 258"><path id="Path_370" data-name="Path 370" class="cls-3" d="M1198.57,242.58l-168.24,45.88L475.82,143.34l151.69-40.87Z"/><path id="Path_372" data-name="Path 372" class="cls-4" d="M799.32,179.25l-17.63,4.81-58.12-15.21,15.9-4.6Z"/><path id="Path_373" data-name="Path 373" class="cls-4" d="M722.72,159.43l-17.63,4.81L647,149l15.9-4.6Z"/><path id="Path_374" data-name="Path 374" class="cls-4" d="M647,139.62l-17.63,4.81-58.12-15.21,15.9-4.6Z"/></g></g></g></g></g></g><g id="Group_251" data-name="Group 251"><g id="Group_250" data-name="Group 250"><g class="cls-5"><g id="Group_249" data-name="Group 249"><g id="Group_248" data-name="Group 248"><g id="Path_356" data-name="Path 356"><path class="cls-3" d="M662.72,661.66H92.6L224,345.48a47.53,47.53,0,0,1,43.88-29.29H487.44a47.53,47.53,0,0,1,43.88,29.28Z"/><path class="cls-4" d="M662.15,661.29,518.9,316.57H236.41L93.17,661.29h569m1.14.75H92L235.91,315.82H519.4Z"/></g><path id="Path_362" data-name="Path 362" class="cls-6" d="M435.92,662H317.84L328,542.56h99.39Z"/><path id="Path_363" data-name="Path 363" class="cls-6" d="M421.12,476.08H332.64l7.59-80.95h74.46Z"/><path id="Path_364" data-name="Path 364" class="cls-6" d="M410.93,356.29h-68.1l5.84-40.47H406Z"/><rect id="Rectangle_37" data-name="Rectangle 37" class="cls-7" x="201.55" y="183.88" width="352.21" height="131.94" rx="65.97"/><path id="Path_357" data-name="Path 357" class="cls-7" d="M466.37,182.32H286.83L322.67,78H431.38Z"/><line id="Line_34" data-name="Line 34" class="cls-7" x1="224.95" y1="225.22" x2="376.6" y2="225.22"/><line id="Line_35" data-name="Line 35" class="cls-7" x1="533.84" y1="279.9" x2="353.49" y2="279.9"/><line id="Line_36" data-name="Line 36" class="cls-7" x1="376.6" y1="134.62" x2="394.54" y2="101.45"/><line id="Line_37" data-name="Line 37" class="cls-7" x1="381.65" y1="139.49" x2="391.75" y2="120.81"/><path id="Path_358" data-name="Path 358" class="cls-7" d="M173.2,268.55h0l-1.33,9.23H143.55l14.55-95.45h27.53L178.18,234h23.36v34.58H173.19"/><path id="Path_359" data-name="Path 359" class="cls-7" d="M582.11,268.55h0l1.33,9.23h28.31l-14.54-95.46H569.67L577.13,234H553.76v34.58h28.35"/><g id="Group_246" data-name="Group 246"><rect id="Rectangle_38" data-name="Rectangle 38" class="cls-7" x="243.14" y="118.04" width="30.77" height="41.07"/><path id="Path_360" data-name="Path 360" class="cls-7" d="M319.08,88.42H258.52V118"/></g><g id="Group_247" data-name="Group 247"><rect id="Rectangle_39" data-name="Rectangle 39" class="cls-7" x="481.91" y="118.04" width="30.77" height="41.07"/><path id="Path_361" data-name="Path 361" class="cls-7" d="M436.73,88.42h60.56V118"/></g></g></g></g></g><circle id="Ellipse_8-2" data-name="Ellipse 8-2" class="cls-7" cx="374.8" cy="370.01" r="352.04"/></g></svg>