<svg id="Layer_1" data-name="Layer 1" xmlns="http://www.w3.org/2000/svg" viewBox="0 0 750 750"><defs><style>.cls-1,.cls-6{fill:#b7b7b7;}.cls-2{fill:#606060;}.cls-3,.cls-7,.cls-8,.cls-9{fill:none;}.cls-3,.cls-6,.cls-7,.cls-8{stroke:#606060;}.cls-3,.cls-6{stroke-linecap:round;stroke-linejoin:round;}.cls-3,.cls-6,.cls-8{stroke-width:0.1px;}.cls-4{fill:#ffd900;}.cls-5{fill:#fff;}.cls-7,.cls-8,.cls-9{stroke-miterlimit:10;}.cls-7{stroke-width:0.28px;}.cls-9{stroke:#0055ec;stroke-width:5.67px;}</style></defs><g id="Group_220" data-name="Group 220"><g id="Group_132" data-name="Group 132"><g id="Group_211" data-name="Group 211"><g id="Group_210" data-name="Group 210"><g id="Path_320" data-name="Path 320"><path class="cls-1" d="M659.43,433.08l-110.5-38.61,63.93-22.16,102.37,32.81Z"/><path class="cls-2" d="M612.86,372.45l-63.53,22,110.09,38.47,55.46-27.8-102-32.69m0-.28,102.73,32.92-56.15,28.14L548.52,394.47Z"/></g><g id="Path_321" data-name="Path 321"><path class="cls-1" d="M659.59,461.75,550.16,424.7l.43-29.9,108.8,38.56.05,0,.06,0,56-28V432Z"/><path class="cls-2" d="M659.58,461.6,715.32,432V405.52l-55.76,28-.12,0-.09,0L550.72,395l-.42,29.61,109.28,37m0,.3L550,424.79l.43-30.18,109,38.62,56.15-28.14v27Z"/></g></g><line id="Line_25" data-name="Line 25" class="cls-3" x1="659.63" y1="433.48" x2="659.3" y2="461.9"/></g><g id="Group_212" data-name="Group 212"><g id="Path_322" data-name="Path 322"><path class="cls-1" d="M495.81,522.31,361.61,472l77.5-26.86,124,38.39Z"/><path class="cls-2" d="M439.12,445.29,362,472,495.8,522.17l67-38.59-123.7-38.29m0-.28,124.37,38.5-67.66,39L361.22,472Z"/></g><g id="Path_323" data-name="Path 323"><path class="cls-1" d="M495.69,553.49l-133.95-48,.47-33.14,133.24,46.69.06,0,.05,0,67.79-35.32V517.5Z"/><path class="cls-2" d="M495.68,553.34l67.53-35.92V484l-67.59,35.22a.27.27,0,0,1-.12,0l-.09,0L362.34,472.56l-.47,32.86,133.81,47.92m0,.29-134.1-48,.48-33.42L495.5,518.93l68-35.43v34.08Z"/></g></g><g id="Group_213" data-name="Group 213"><g id="Path_324" data-name="Path 324"><path class="cls-1" d="M160.1,396.93,52.56,356.3l68.24-18,106.53,36.88Z"/><path class="cls-2" d="M120.8,338.47,53,356.33l107.11,40.46,66.8-21.58L120.8,338.47m0-.28,107,37L160.1,397.07l-108-40.79Z"/></g><g id="Path_325" data-name="Path 325"><path class="cls-1" d="M160,429.91,51.82,387.08l.43-30.61,107.8,40.73,0,0,0,0,67.5-21.8,1.8,26Z"/><path class="cls-2" d="M160,429.77l69.3-28.51-1.79-25.68-67.33,21.75h-.08a.15.15,0,0,1-.09,0L52.39,356.67,52,387,160,429.77m0,.29L51.68,387.17l.44-30.89,108,40.79,67.66-21.85,1.82,26.22Z"/></g></g><g id="Group_214" data-name="Group 214"><g id="Path_326" data-name="Path 326"><path class="cls-4" d="M481.22,470.84l-.49-.17-357-123.39-4.32-1.5,4.44-1.08,216.94-52.79.34-.08.33.09L677.14,384l3.69,1-3.52,1.51L481.69,470.64Z"/><path class="cls-5" d="M341.15,293.22,124.2,346l357,123.4,195.62-84.12L341.15,293.22m-.64-2.61,1.35,0L677.49,382.7l.35,5.06L482.22,471.87l-1.93.07-357-123.4.24-5.14Z"/></g><g id="Path_327" data-name="Path 327"><path class="cls-4" d="M476.64,481.38l-.14-.05L123.76,355.38l-.25-.09v-9.67l.5.17L476.62,467.55l200-82.61.56-.23,0,.61-.69,10.75v.24l-.22.09L476.78,481.33Z"/><path class="cls-5" d="M123.89,346.15V355L476.63,481l199.46-84.93.69-10.76L476.63,468,123.89,346.15m.24-.72L476.61,467.14l199.88-82.55,1,.75-.69,10.76-.46.65L476.93,481.68h-.56L123.63,355.74l-.5-.72v-8.87Z"/></g></g><g id="Group_215" data-name="Group 215"><path id="Path_328" data-name="Path 328" class="cls-6" d="M482.51,325.56,476.63,468l14.3-5.9,4.56-137.91Z"/><path id="Path_329" data-name="Path 329" class="cls-6" d="M464,318.88,460,462,476.63,468l5.88-137.66Z"/></g><g id="Group_216" data-name="Group 216"><g id="Path_330" data-name="Path 330"><path class="cls-1" d="M663.44,390.71l1.91-130.31,12.72-1.26L676.65,385.2Z"/><path class="cls-2" d="M677.94,259.29l-12.45,1.24-1.91,130,12.94-5.4,1.42-125.82m.27-.3-1.43,126.3-13.47,5.62,1.91-130.63Z"/></g><g id="Path_331" data-name="Path 331"><path class="cls-1" d="M663.18,390.73l-16.35-5.32V255.06l18.26,10.27Z"/><path class="cls-2" d="M647,255.29v130L663,390.55,665,265.41l-18-10.12m-.27-.46,18.53,10.42-1.91,125.66-16.62-5.41Z"/></g></g><g id="Group_217" data-name="Group 217"><g id="Path_332" data-name="Path 332"><path class="cls-1" d="M138,350.88l-14-4.83-5.44-117.58,15.48,4.67Z"/><path class="cls-2" d="M118.72,228.65,124.15,346l13.69,4.73-3.91-117.45-15.21-4.59m-.28-.36L134.19,233l3.93,118-14.23-4.92Z"/></g><g id="Path_333" data-name="Path 333"><path class="cls-1" d="M138.25,350.9,133.4,233.7l11.9-7.78,3.62,122.51Z"/><path class="cls-2" d="M145.17,226.16l-11.64,7.61,4.84,117,10.41-2.41-3.61-122.16m.26-.48,3.63,122.85-10.94,2.54-4.86-117.44Z"/></g></g><g id="Group_218" data-name="Group 218"><g id="Path_334" data-name="Path 334"><path class="cls-1" d="M337.28,302.53l-9.68-3.14-2.81-64.48,10,1Z"/><path class="cls-2" d="M324.94,235.06l2.79,64.23,9.41,3-2.52-66.29-9.68-1m-.29-.3,10.23,1,2.54,66.91-9.95-3.22Z"/></g><g id="Path_335" data-name="Path 335"><path class="cls-1" d="M337.31,302.4l-2.81-66.19,7.75-4.31,2.53,68.37Z"/><path class="cls-2" d="M342.13,232.13l-7.49,4.16,2.79,65.93,7.21-2.06-2.51-68m.25-.45,2.54,68.69-7.74,2.2-2.82-66.44Z"/></g></g><g id="Group_219" data-name="Group 219"><g id="Path_336" data-name="Path 336"><path class="cls-1" d="M482.84,321.37l-366-99.11,225-31.5,352.63,60.83Z"/><path class="cls-2" d="M341.79,190.89,117.46,222.3l365.37,98.93,211-69.6L341.79,190.89m0-.27L695,251.55l-212.14,70L116.12,222.22Z"/></g><g id="Path_337" data-name="Path 337"><path class="cls-1" d="M482.51,334.24,116.26,230.62v-8.23l366.55,99.25h.07l212-69.9V264Z"/><path class="cls-2" d="M116.39,222.57v8L482.51,334.1l212.2-70.18v-12L482.93,321.77h-.16l-366.38-99.2m-.27-.35,366.72,99.29,212.14-70v12.56L482.51,334.38,116.12,230.72Z"/></g></g><line id="Line_26" data-name="Line 26" class="cls-7" x1="482.84" y1="321.51" x2="482.51" y2="334.38"/><line id="Line_27" data-name="Line 27" class="cls-3" x1="495.66" y1="518.93" x2="495.33" y2="553.64"/><line id="Line_28" data-name="Line 28" class="cls-8" x1="160.26" y1="397.07" x2="159.95" y2="430.06"/></g><circle id="Ellipse_8" data-name="Ellipse 8" class="cls-9" cx="383.63" cy="372.13" r="353.92"/></g></svg>