<svg id="Layer_1" data-name="Layer 1" xmlns="http://www.w3.org/2000/svg" viewBox="0 0 750 750"><defs><style>.cls-1{fill:#b7b7b7;}.cls-2{fill:#606060;}.cls-3,.cls-6,.cls-7,.cls-8{fill:none;}.cls-3,.cls-7{stroke:#606060;}.cls-3{stroke-linecap:round;stroke-linejoin:round;}.cls-3,.cls-6,.cls-7{stroke-width:0.1px;}.cls-4{fill:#ffd900;}.cls-5{fill:#fff;}.cls-6{stroke:#858585;}.cls-6,.cls-7,.cls-8{stroke-miterlimit:10;}.cls-8{stroke:#0055ec;stroke-width:5.67px;}</style></defs><g id="Group_209" data-name="Group 209"><g id="Group_132" data-name="Group 132"><g id="Group_200" data-name="Group 200"><g id="Group_199" data-name="Group 199"><g id="Path_302" data-name="Path 302"><path class="cls-1" d="M650.13,439,543.36,401.65l61.77-21.41,98.92,31.7Z"/><path class="cls-2" d="M605.14,380.38l-61.38,21.27,106.36,37.17L703.7,412l-98.56-31.59m0-.28,99.27,31.81L650.14,439.1,543,401.65Z"/></g><g id="Path_303" data-name="Path 303"><path class="cls-1" d="M650.29,466.66l-105.74-35.8L545,402l105.13,37.26h.06l.05,0,54.07-27.1V438Z"/><path class="cls-2" d="M650.27,466.52l53.87-28.65V412.34l-53.88,27a.27.27,0,0,1-.12,0l-.09,0-105-37.19-.41,28.6,105.59,35.76m0,.28L544.42,431l.42-29.16,105.3,37.31,54.26-27.19V438Z"/></g></g><line id="Line_21" data-name="Line 21" class="cls-3" x1="650.33" y1="439.35" x2="650.01" y2="466.8"/></g><g id="Group_201" data-name="Group 201"><g id="Path_304" data-name="Path 304"><path class="cls-1" d="M492,525.18l-129.67-48.6,74.88-26,119.85,37.1Z"/><path class="cls-2" d="M437.25,450.76l-74.5,25.83L492,525l64.75-37.28-119.52-37m0-.28,120.18,37.21L492,525.33,362,476.58Z"/></g><g id="Path_305" data-name="Path 305"><path class="cls-1" d="M491.91,555.31,362.48,509l.46-32L491.68,522l.06,0,.05,0,65.5-34.13v32.64Z"/><path class="cls-2" d="M491.9,555.16l65.25-34.7V488.12l-65.3,34-.12,0-.09,0-128.58-45-.45,31.75,129.29,46.3m0,.29L362.34,509l.47-32.3,128.92,45.18,65.69-34.23v32.92Z"/></g></g><g id="Group_202" data-name="Group 202"><g id="Path_306" data-name="Path 306"><path class="cls-1" d="M167.64,404,63.73,364.77l65.93-17.36L232.59,383Z"/><path class="cls-2" d="M129.65,347.54,64.16,364.79l103.48,39.1L232.18,383l-102.53-35.5m0-.27L233,383.05l-65.38,21.12L63.29,364.75Z"/></g><g id="Path_307" data-name="Path 307"><path class="cls-1" d="M167.53,435.9,63,394.5l.42-29.56,104.17,39.35,0,0,.05,0,65.21-21.06,1.75,25.07Z"/><path class="cls-2" d="M167.53,435.75l67-27.54-1.73-24.81-65.05,21h-.08l-.1,0-104-39.28-.42,29.29,104.4,41.33m0,.29L62.87,394.59l.43-29.84,104.34,39.42L233,383.05l1.76,25.34Z"/></g></g><g id="Group_203" data-name="Group 203"><g id="Path_308" data-name="Path 308"><path class="cls-1" d="M477.87,473.92,133.41,354.85,342.58,304,666.5,392.81Z"/><path class="cls-2" d="M342.58,304.08l-208.7,50.79,344,118.91,188.24-80.94L342.58,304.08m0-.27,324.32,89-189,81.28L133,354.82Z"/></g><g id="Path_309" data-name="Path 309"><path class="cls-1" d="M473.49,485.1,132.77,363.44v-8.3L473.45,472.79h.05l.05,0L666.76,393l-.65,10.11Z"/><path class="cls-2" d="M132.9,355.33v8L473.49,485,666,403l.62-9.81-193,79.71a.2.2,0,0,1-.1,0h-.09L132.9,355.33m-.26-.37L473.5,472.66l193.4-79.88-.66,10.4L473.5,485.24,132.64,363.53Z"/></g></g><g id="Group_204" data-name="Group 204"><g id="Path_310" data-name="Path 310"><path class="cls-4" d="M472.8,473.66l0-1L478.52,335l0-.56.57-.07L491.66,333l.75-.08,0,.76L488,467l0,.43-.39.16-13.82,5.71Z"/><path class="cls-5" d="M491.73,333.69l-12.55,1.37-5.68,137.6L487.32,467l4.41-133.26m-.14-1.3,1.45,1.35L488.63,467l-.81,1.17L474,473.88l-1.82-1.27L477.86,335l1.18-1.25Z"/></g><g id="Path_311" data-name="Path 311"><path class="cls-4" d="M474.13,473.59l-.85-.31-16.06-5.73-.45-.16,0-.47,3.83-138.33,0-1.24,1,.72,15.4,11,.28.21v.35l-3.18,133.06Z"/><path class="cls-5" d="M461.27,328.61l-3.83,138.32,16.06,5.73,3.17-133.06-15.4-11m.77-1.07,15.4,11,.55,1.1-3.18,133.06-1.76,1.21L457,468.17l-.87-1.27L460,328.57Z"/></g></g><g id="Group_205" data-name="Group 205"><g id="Path_312" data-name="Path 312"><path class="cls-4" d="M653.21,399.21v-1L655.07,272v-.59l.58-.06,12.55-1.24.73-.08v.74l-1.38,122v.43l-.4.17-13,5.43Z"/><path class="cls-5" d="M668.28,270.74,655.73,272l-1.85,126.22,13-5.43,1.38-122m-.13-1.31,1.44,1.33-1.38,122-.8,1.2-13,5.43-1.82-1.24L654.41,272l1.19-1.29Z"/></g><g id="Path_313" data-name="Path 313"><path class="cls-4" d="M654.52,399.12l-.85-.28-16-5.23-.45-.14V265.6l1,.55,17.9,10.07.34.19v.39l-1.85,121.42Z"/><path class="cls-5" d="M637.83,266.72V393l16,5.22,1.85-121.42-17.9-10.07m.64-1.15,17.9,10.07.67,1.17-1.85,121.42-1.72,1.24-16.05-5.23-.91-1.25V266.72Z"/></g></g><g id="Group_206" data-name="Group 206"><g id="Path_314" data-name="Path 314"><path class="cls-4" d="M145.21,361.09l-.91-.39-11.92-5.14-.39-.17V355l-1-113.5v-.91l.86.28,13.62,4.41.46.15v.48l-.68,114.23Z"/><path class="cls-5" d="M131.62,241.46l1,113.5,11.92,5.14.68-114.23-13.62-4.41m.41-1.26,13.61,4.41.91,1.26-.68,114.23L144,361.3l-11.92-5.13-.8-1.2-1-113.5Z"/></g><g id="Path_315" data-name="Path 315"><path class="cls-4" d="M145.74,360.54v-.83l-.39-113v-.35l.3-.2,11.76-7.68,1-.67v1.22l-.8,118.22v.51l-.51.12-10.57,2.45Z"/><path class="cls-5" d="M157.77,239.05,146,246.73l.38,113L157,357.26l.81-118.21m-.72-1.1,2,1.11-.8,118.21-1,1.27L146.69,361l-1.61-1.28-.39-113,.6-1.11Z"/></g></g><g id="Group_207" data-name="Group 207"><g id="Path_316" data-name="Path 316"><path class="cls-4" d="M339.67,313.9l-.89-.29-9.62-3.12-.43-.14,0-.45L326,247.35l0-.76.76.08,9.88,1,.57.06,0,.57L339.64,313Z"/><path class="cls-5" d="M326.64,247.33l2.72,62.54L339,313l-2.45-64.66-9.89-1m.13-1.31,9.89,1,1.18,1.26,2.46,64.66-1.72,1.3L329,311.12l-.91-1.19-2.72-62.55Z"/></g><g id="Path_317" data-name="Path 317"><path class="cls-4" d="M338.12,313.71l0-.83-2.73-64.2v-.41l.35-.2,7.75-4.3.94-.52,0,1.07,2.46,66.37,0,.52-.5.14-7.48,2.13Z"/><path class="cls-5" d="M343.77,244.35l-7.75,4.3,2.72,64.2,7.48-2.13-2.45-66.37m-.64-1.15,1.95,1.1,2.46,66.37-1,1.31-7.48,2.13-1.67-1.2-2.72-64.2.67-1.21Z"/></g></g><g id="Group_208" data-name="Group 208"><g id="Path_318" data-name="Path 318"><path class="cls-1" d="M479.49,331l-353.7-95.77L343.2,204.8l340.74,58.79Z"/><path class="cls-2" d="M343.2,204.94,126.45,235.28l353,95.6L683.4,263.63,343.2,204.94m0-.27,341.28,58.88-205,67.6L125.14,235.2Z"/></g><g id="Path_319" data-name="Path 319"><path class="cls-1" d="M479.17,343.45,125.27,243.32v-7.95l354.19,95.91h.08l204.81-67.55v11.86Z"/><path class="cls-2" d="M125.4,235.55v7.67L479.17,343.31l205.05-67.82V263.91L479.58,331.4h-.15l-354-95.86m-.26-.35L479.5,331.15l205-67.6v12.13l-205.3,67.91-354-100.17Z"/></g></g><line id="Line_22" data-name="Line 22" class="cls-6" x1="479.5" y1="331.15" x2="479.18" y2="343.59"/><line id="Line_23" data-name="Line 23" class="cls-7" x1="491.89" y1="521.92" x2="491.57" y2="555.45"/><line id="Line_24" data-name="Line 24" class="cls-7" x1="167.79" y1="404.17" x2="167.49" y2="436.04"/></g><circle id="Ellipse_8" data-name="Ellipse 8" class="cls-8" cx="383.63" cy="380.06" r="347.16"/></g></svg>