<svg id="Layer_1" data-name="Layer 1" xmlns="http://www.w3.org/2000/svg" viewBox="0 0 750 750"><defs><style>.cls-1{fill:#ffd900;}.cls-2{fill:#fff;}.cls-3,.cls-6,.cls-7,.cls-8{fill:none;}.cls-3{stroke:#ffd900;}.cls-3,.cls-6{stroke-linecap:round;}.cls-3,.cls-7,.cls-8{stroke-miterlimit:10;}.cls-3,.cls-7{stroke-width:0.28px;}.cls-4{fill:#b7b7b7;}.cls-5{fill:#606060;}.cls-6{stroke:#606060;stroke-linejoin:round;stroke-width:0.1px;}.cls-7{stroke:#fff;}.cls-8{stroke:#0055ec;stroke-width:5.67px;}</style></defs><g id="Group_231" data-name="Group 231"><g id="Group_132" data-name="Group 132"><g id="Group_222" data-name="Group 222"><g id="Group_221" data-name="Group 221"><g id="Path_338" data-name="Path 338"><path class="cls-1" d="M646,428.61,538.32,391l62-21.49,99.82,32Z"/><path class="cls-2" d="M600.32,369.9,539.46,391,646,428.21l53.16-26.65L600.32,369.9m0-.8,100.81,32.31L646,429,537.17,391Z"/></g><g id="Path_339" data-name="Path 339"><path class="cls-1" d="M646.15,456.75,539,420.48l.41-28.82,106.45,37.72.15.05.15-.07L700.75,402v25.69Z"/><path class="cls-2" d="M646.11,456.34l54.26-28.86V402.63l-54,27.07-.59,0-106-37.55-.4,28,106.7,36.13m.07.82L538.65,420.75l.42-29.62L646,429l55.11-27.62v26.52Z"/></g></g><line id="Line_29" data-name="Line 29" class="cls-3" x1="646.21" y1="429.27" x2="645.89" y2="457.16"/></g><g id="Group_223" data-name="Group 223"><g id="Path_340" data-name="Path 340"><path class="cls-1" d="M485.42,516.18,354.47,467.1,429.81,441l121.11,37.49Z"/><path class="cls-2" d="M429.81,441.38l-74.23,25.73,129.81,48.65L550,478.57,429.81,441.38m0-.8,122.05,37.78-66.39,38.23-132.1-49.51Z"/></g><g id="Path_341" data-name="Path 341"><path class="cls-1" d="M485.31,546.78l-131.19-47,.46-32L485,513.49l.16,0,.14-.08L551.48,479v32.59Z"/><path class="cls-2" d="M485.28,546.37l65.82-35V479.61L485.49,513.8l-.6,0L355,468.31l-.45,31.21,130.78,46.85m.05.82L353.74,500.05l.47-32.8,130.93,45.88,66.71-34.76v33.44Z"/></g></g><g id="Group_224" data-name="Group 224"><g id="Path_342" data-name="Path 342"><path class="cls-1" d="M156,393.14,51.26,353.57l66.15-17.42,103.78,35.93Z"/><path class="cls-2" d="M117.4,336.54l-64.9,17.1L156,392.74l64-20.67L117.4,336.54m0-.78,105,36.33L156,393.54l-106-40Z"/></g><g id="Path_343" data-name="Path 343"><path class="cls-1" d="M155.88,425.5,50,383.56l.42-29.51,105.46,39.84.13.05.12,0L222,372.6l1.74,25Z"/><path class="cls-2" d="M155.88,425.09l67.5-27.76L221.7,373.1l-65.48,21.16-.5,0-105-39.65-.41,28.72,105.53,41.78m0,.82L49.59,383.82,50,353.51l106,40,66.39-21.45,1.79,25.73Z"/></g></g><g id="Group_225" data-name="Group 225"><g id="Path_344" data-name="Path 344"><path class="cls-4" d="M471.07,464.38,121.23,343.45l212.43-51.69,329,90.25Z"/><path class="cls-5" d="M333.66,291.9l-212,51.57L471.06,464.24,662.24,382,333.66,291.9m0-.28L663,382l-192,82.55L120.76,343.43Z"/></g><g id="Path_345" data-name="Path 345"><path class="cls-4" d="M466.62,475.74l-346-123.56v-8.43l346,119.48.05,0,0,0L662.9,382.18l-.66,10.27Z"/><path class="cls-5" d="M120.72,343.94v8.15L466.61,475.6l195.5-83.24.64-10-196,81-.1,0h-.09L120.72,343.94m-.27-.37L466.62,463.1,663,382l-.67,10.56L466.62,475.88,120.45,352.27Z"/></g></g><g id="Group_226" data-name="Group 226"><g id="Path_346" data-name="Path 346"><path class="cls-4" d="M466.76,462.9l5.76-139.43L485,322.12l-4.47,135.1Z"/><path class="cls-5" d="M484.86,322.27l-12.21,1.32L466.9,462.7l13.5-5.57,4.46-134.86m.28-.3-4.48,135.34-14,5.79,5.77-139.75Z"/></g><g id="Path_347" data-name="Path 347"><path class="cls-4" d="M466.5,462.92l-16.05-5.72L454.33,317l17.93,11Z"/><path class="cls-5" d="M454.46,317.27,450.59,457.1l15.78,5.63,5.75-134.58-17.66-10.88m-.25-.47L472.39,328,466.62,463.1l-16.3-5.81Z"/></g></g><g id="Group_227" data-name="Group 227"><g id="Path_348" data-name="Path 348"><path class="cls-4" d="M650,387.3l1.88-127.88,12.48-1.24-1.4,123.71Z"/><path class="cls-5" d="M664.17,258.33,652,259.54l-1.87,127.55,12.69-5.29,1.39-123.47m.27-.29L663,382l-13.22,5.52,1.88-128.2Z"/></g><g id="Path_349" data-name="Path 349"><path class="cls-4" d="M649.69,387.31l-16-5.22V254.18l17.91,10.07Z"/><path class="cls-5" d="M633.78,254.41V382l15.78,5.14,1.87-122.8-17.65-9.92m-.27-.46,18.19,10.23L649.82,387.5l-16.31-5.31Z"/></g></g><g id="Group_228" data-name="Group 228"><g id="Path_350" data-name="Path 350"><path class="cls-4" d="M134.28,348.2l-13.7-4.73-5.34-115.39,15.19,4.58Z"/><path class="cls-5" d="M115.38,228.26l5.33,115.12L134.14,348,130.3,232.76l-14.92-4.5m-.28-.36,15.46,4.66,3.86,115.83-14-4.82Z"/></g><g id="Path_351" data-name="Path 351"><path class="cls-4" d="M134.54,348.23l-4.76-115,11.68-7.63L145,345.8Z"/><path class="cls-5" d="M141.33,225.82l-11.41,7.46,4.75,114.78,10.21-2.37-3.55-119.87m.26-.49,3.56,120.57-10.73,2.49-4.77-115.25Z"/></g></g><g id="Group_229" data-name="Group 229"><g id="Path_352" data-name="Path 352"><path class="cls-4" d="M329.87,300.75l-9.5-3.08-2.75-63.27,9.77,1Z"/><path class="cls-5" d="M317.76,234.55l2.74,63,9.23,3-2.47-65.06-9.5-1m-.28-.3,10,1L330,300.94l-9.77-3.17Z"/></g><g id="Path_353" data-name="Path 353"><path class="cls-4" d="M329.89,300.63l-2.75-64.95,7.6-4.23,2.49,67.09Z"/><path class="cls-5" d="M334.62,231.67l-7.34,4.08,2.74,64.7,7.07-2-2.47-66.77m.25-.44,2.49,67.41-7.59,2.16L327,235.6Z"/></g></g><g id="Group_230" data-name="Group 230"><g id="Path_354" data-name="Path 354"><path class="cls-4" d="M472.71,319.25,113.49,222l220.8-30.91,346.06,59.7Z"/><path class="cls-5" d="M334.29,191.2,114.15,222l358.56,97.09,207.09-68.3L334.29,191.2m0-.27,346.59,59.8L472.71,319.38,112.83,221.94Z"/></g><g id="Path_355" data-name="Path 355"><path class="cls-4" d="M472.39,331.87,113,230.19v-8.08l359.72,97.4h.07l208-68.6v12Z"/><path class="cls-5" d="M113.09,222.29v7.8L472.38,331.74l208.25-68.88V251.1L472.8,319.64h-.16L113.09,222.29m-.26-.35,359.88,97.45,208.18-68.66v12.32l-208.5,69L112.83,230.29Z"/></g></g><line id="Line_30" data-name="Line 30" class="cls-6" x1="472.71" y1="319.39" x2="472.39" y2="332.02"/><line id="Line_31" data-name="Line 31" class="cls-7" x1="485.3" y1="513.13" x2="484.97" y2="547.19"/><line id="Line_32" data-name="Line 32" class="cls-7" x1="156.15" y1="393.54" x2="155.84" y2="425.91"/></g><circle id="Ellipse_8" data-name="Ellipse 8" class="cls-8" cx="375.36" cy="369.06" r="351.09"/></g></svg>